G04 Layer: TopSilkLayer*
G04 EasyEDA v6.4.25, 2021-11-28T16:05:41+01:00*
G04 4c1ba96cef074ee2a20bac9ac7328723,10*
G04 Gerber Generator version 0.2*
G04 Scale: 100 percent, Rotated: No, Reflected: No *
G04 Dimensions in millimeters *
G04 leading zeros omitted , absolute positions ,4 integer and 5 decimal *
%FSLAX45Y45*%
%MOMM*%

%ADD11C,0.1524*%
%ADD12C,0.2540*%
%ADD17C,0.2997*%
%ADD18C,0.1000*%
%ADD19C,0.1270*%

%LPD*%
G36*
X3924604Y5735066D02*
G01*
X3917137Y5717590D01*
X3914241Y5709564D01*
X3913835Y5707583D01*
X3915460Y5706008D01*
X3919931Y5703620D01*
X3926586Y5700725D01*
X3945839Y5693359D01*
X3966362Y5684672D01*
X3994454Y5671820D01*
X4016654Y5660745D01*
X4038396Y5648858D01*
X4049064Y5642660D01*
X4064812Y5633008D01*
X4080256Y5622899D01*
X4090415Y5615990D01*
X4105351Y5605221D01*
X4124706Y5590336D01*
X4134205Y5582615D01*
X4148124Y5570778D01*
X4161688Y5558536D01*
X4174896Y5545937D01*
X4191914Y5528665D01*
X4208272Y5510733D01*
X4220108Y5496966D01*
X4235246Y5478068D01*
X4249674Y5458663D01*
X4263339Y5438698D01*
X4276242Y5418277D01*
X4282440Y5407863D01*
X4291330Y5392064D01*
X4302455Y5370576D01*
X4310278Y5354167D01*
X4319930Y5331968D01*
X4328007Y5312613D01*
X4332122Y5305399D01*
X4336135Y5302961D01*
X4341520Y5303570D01*
X4348480Y5305298D01*
X4353763Y5307076D01*
X4357624Y5309260D01*
X4360265Y5312359D01*
X4361891Y5316626D01*
X4362805Y5322570D01*
X4363212Y5330444D01*
X4363212Y5347309D01*
X4362754Y5360365D01*
X4361840Y5373370D01*
X4360468Y5386374D01*
X4358690Y5399379D01*
X4356455Y5412282D01*
X4353763Y5425135D01*
X4350664Y5437886D01*
X4347108Y5450586D01*
X4343146Y5463184D01*
X4338777Y5475630D01*
X4334002Y5487924D01*
X4328769Y5500116D01*
X4323181Y5512104D01*
X4317187Y5523941D01*
X4310786Y5535574D01*
X4303979Y5547004D01*
X4296816Y5558231D01*
X4290161Y5567832D01*
X4283506Y5576519D01*
X4275836Y5585663D01*
X4267352Y5595213D01*
X4258259Y5604916D01*
X4248607Y5614670D01*
X4238701Y5624271D01*
X4228592Y5633567D01*
X4218533Y5642356D01*
X4208729Y5650534D01*
X4199229Y5657900D01*
X4190339Y5664301D01*
X4180890Y5670397D01*
X4170375Y5676696D01*
X4159707Y5682742D01*
X4148836Y5688431D01*
X4137863Y5693816D01*
X4126737Y5698896D01*
X4115460Y5703620D01*
X4104081Y5708091D01*
X4092549Y5712155D01*
X4080967Y5715914D01*
X4069232Y5719368D01*
X4057446Y5722467D01*
X4045559Y5725261D01*
X4033621Y5727700D01*
X4021582Y5729782D01*
X4009491Y5731510D01*
X3997401Y5732932D01*
X3985209Y5733999D01*
X3973017Y5734710D01*
X3960774Y5735066D01*
G37*
G36*
X3771849Y5690311D02*
G01*
X3767683Y5689193D01*
X3760774Y5686094D01*
X3752087Y5681624D01*
X3737610Y5672988D01*
X3726738Y5665825D01*
X3715918Y5658307D01*
X3706368Y5651296D01*
X3697071Y5643829D01*
X3692956Y5640222D01*
X3689959Y5637022D01*
X3687927Y5633974D01*
X3686606Y5630722D01*
X3685895Y5626963D01*
X3685590Y5622290D01*
X3685692Y5608167D01*
X3686911Y5589981D01*
X3690061Y5566410D01*
X3722979Y5566359D01*
X3734104Y5565952D01*
X3745382Y5565241D01*
X3756812Y5564124D01*
X3768394Y5562650D01*
X3780078Y5560822D01*
X3791813Y5558637D01*
X3803700Y5556148D01*
X3815638Y5553303D01*
X3827627Y5550103D01*
X3839616Y5546598D01*
X3851656Y5542737D01*
X3863644Y5538622D01*
X3875633Y5534152D01*
X3887622Y5529376D01*
X3911346Y5518962D01*
X3923131Y5513324D01*
X3934764Y5507380D01*
X3946296Y5501182D01*
X3957675Y5494680D01*
X3968902Y5487924D01*
X3978503Y5481828D01*
X3987241Y5475681D01*
X3996537Y5468620D01*
X4006342Y5460695D01*
X4016501Y5452110D01*
X4026865Y5442966D01*
X4047540Y5423611D01*
X4057599Y5413705D01*
X4076344Y5393994D01*
X4084726Y5384546D01*
X4092346Y5375503D01*
X4098950Y5367020D01*
X4105503Y5357774D01*
X4112615Y5347106D01*
X4119473Y5336184D01*
X4126026Y5325160D01*
X4132275Y5313934D01*
X4138218Y5302605D01*
X4143857Y5291124D01*
X4149191Y5279542D01*
X4154220Y5267858D01*
X4158894Y5256072D01*
X4163263Y5244236D01*
X4167276Y5232349D01*
X4170934Y5220411D01*
X4174286Y5208422D01*
X4177233Y5196484D01*
X4179874Y5184495D01*
X4182110Y5172557D01*
X4183989Y5160670D01*
X4185513Y5148834D01*
X4186682Y5136997D01*
X4188510Y5106416D01*
X4189526Y5095748D01*
X4190288Y5091836D01*
X4191304Y5088737D01*
X4192625Y5086400D01*
X4194403Y5084673D01*
X4196689Y5083454D01*
X4199534Y5082692D01*
X4203039Y5082235D01*
X4259224Y5080762D01*
X4278833Y5104079D01*
X4286605Y5114086D01*
X4294530Y5124907D01*
X4301642Y5135270D01*
X4317796Y5160721D01*
X4312361Y5192928D01*
X4310126Y5204866D01*
X4304842Y5228590D01*
X4298594Y5252059D01*
X4295089Y5263743D01*
X4287367Y5286857D01*
X4283151Y5298287D01*
X4274007Y5320893D01*
X4263948Y5343194D01*
X4255770Y5359654D01*
X4250080Y5370474D01*
X4237990Y5391810D01*
X4228338Y5407456D01*
X4214723Y5427929D01*
X4200296Y5447842D01*
X4192778Y5457545D01*
X4177080Y5476595D01*
X4160469Y5495086D01*
X4142994Y5512917D01*
X4129379Y5525820D01*
X4115308Y5538368D01*
X4095902Y5554472D01*
X4075785Y5569813D01*
X4065473Y5577230D01*
X4044442Y5591403D01*
X4033723Y5598210D01*
X4017314Y5608015D01*
X3995064Y5620308D01*
X3978046Y5628995D01*
X3966565Y5634532D01*
X3949141Y5642356D01*
X3925620Y5652008D01*
X3907739Y5658612D01*
X3883660Y5666536D01*
X3871518Y5670143D01*
X3859326Y5673496D01*
X3834841Y5679440D01*
X3816350Y5683199D01*
X3787394Y5688228D01*
X3777234Y5689752D01*
G37*
G36*
X3616960Y5669686D02*
G01*
X3614420Y5667857D01*
X3609289Y5662828D01*
X3602278Y5655462D01*
X3589832Y5641441D01*
X3581349Y5631332D01*
X3573221Y5621020D01*
X3565398Y5610606D01*
X3557930Y5600039D01*
X3547262Y5583936D01*
X3540607Y5573014D01*
X3534257Y5561939D01*
X3528263Y5550763D01*
X3522573Y5539435D01*
X3517188Y5527954D01*
X3512159Y5516372D01*
X3507486Y5504637D01*
X3503117Y5492750D01*
X3499053Y5480761D01*
X3495344Y5468620D01*
X3491992Y5456377D01*
X3488944Y5444032D01*
X3486251Y5431536D01*
X3483914Y5418886D01*
X3482238Y5408168D01*
X3480917Y5396890D01*
X3479850Y5385155D01*
X3479139Y5373065D01*
X3478529Y5354421D01*
X3478631Y5335422D01*
X3479037Y5322671D01*
X3480206Y5303672D01*
X3481324Y5291175D01*
X3482695Y5278932D01*
X3484372Y5266994D01*
X3486302Y5255463D01*
X3488486Y5244388D01*
X3490925Y5233873D01*
X3493922Y5222798D01*
X3497579Y5210759D01*
X3501491Y5198821D01*
X3505657Y5187086D01*
X3510178Y5175504D01*
X3514902Y5164124D01*
X3519932Y5152847D01*
X3525265Y5141772D01*
X3530854Y5130901D01*
X3536696Y5120182D01*
X3542842Y5109616D01*
X3549243Y5099253D01*
X3555898Y5089093D01*
X3562807Y5079136D01*
X3569970Y5069332D01*
X3577437Y5059730D01*
X3585108Y5050332D01*
X3593084Y5041138D01*
X3601262Y5032146D01*
X3609746Y5023358D01*
X3618433Y5014772D01*
X3627424Y5006390D01*
X3636619Y4998262D01*
X3646068Y4990287D01*
X3655771Y4982565D01*
X3665677Y4975047D01*
X3675786Y4967833D01*
X3686048Y4960874D01*
X3696411Y4954219D01*
X3706876Y4947869D01*
X3717493Y4941773D01*
X3728212Y4935931D01*
X3739032Y4930444D01*
X3760927Y4920234D01*
X3772052Y4915560D01*
X3788867Y4909108D01*
X3800195Y4905146D01*
X3811574Y4901488D01*
X3828745Y4896510D01*
X3840276Y4893564D01*
X3851859Y4890871D01*
X3863492Y4888484D01*
X3875176Y4886401D01*
X3886911Y4884572D01*
X3910380Y4881778D01*
X3934002Y4880102D01*
X3945839Y4879695D01*
X3969461Y4879746D01*
X3981297Y4880203D01*
X3993083Y4880914D01*
X4010761Y4882540D01*
X4034282Y4885690D01*
X4045965Y4887722D01*
X4069232Y4892548D01*
X4092295Y4898542D01*
X4103725Y4901946D01*
X4115104Y4905654D01*
X4126382Y4909667D01*
X4137609Y4913934D01*
X4148734Y4918456D01*
X4159808Y4923282D01*
X4170781Y4928412D01*
X4181652Y4933797D01*
X4197705Y4942382D01*
X4208322Y4948478D01*
X4223969Y4958181D01*
X4234281Y4964988D01*
X4244441Y4972050D01*
X4254449Y4979416D01*
X4266082Y4988356D01*
X4276648Y4996789D01*
X4284929Y5003749D01*
X4289856Y5008321D01*
X4293616Y5012791D01*
X4294327Y5016296D01*
X4291533Y5020665D01*
X4284726Y5027676D01*
X4279798Y5032349D01*
X4275378Y5036159D01*
X4271924Y5038750D01*
X4269841Y5039664D01*
X4267250Y5038344D01*
X4262221Y5034737D01*
X4255516Y5029403D01*
X4243374Y5019090D01*
X4234230Y5011623D01*
X4224680Y5004358D01*
X4214774Y4997297D01*
X4204512Y4990439D01*
X4193946Y4983835D01*
X4183126Y4977485D01*
X4172000Y4971389D01*
X4154881Y4962753D01*
X4143197Y4957368D01*
X4131360Y4952238D01*
X4119321Y4947462D01*
X4107179Y4942992D01*
X4094937Y4938826D01*
X4082592Y4935016D01*
X4070197Y4931562D01*
X4057751Y4928463D01*
X4045305Y4925771D01*
X4034840Y4923840D01*
X4023614Y4922215D01*
X4011726Y4920843D01*
X3999433Y4919726D01*
X3986784Y4918913D01*
X3973880Y4918354D01*
X3960926Y4918049D01*
X3948023Y4918049D01*
X3935272Y4918303D01*
X3922826Y4918862D01*
X3910787Y4919675D01*
X3899357Y4920742D01*
X3888638Y4922113D01*
X3878732Y4923790D01*
X3865676Y4926482D01*
X3852621Y4929581D01*
X3839616Y4933035D01*
X3826713Y4936845D01*
X3813860Y4941011D01*
X3801160Y4945481D01*
X3788613Y4950307D01*
X3776268Y4955438D01*
X3764127Y4960823D01*
X3752240Y4966512D01*
X3740607Y4972456D01*
X3729278Y4978704D01*
X3718306Y4985105D01*
X3707688Y4991811D01*
X3697478Y4998669D01*
X3687673Y5005730D01*
X3678326Y5012994D01*
X3651656Y5036007D01*
X3667455Y5028844D01*
X3672738Y5026710D01*
X3678021Y5024983D01*
X3683304Y5023713D01*
X3688537Y5022900D01*
X3693718Y5022494D01*
X3698849Y5022443D01*
X3703878Y5022850D01*
X3708806Y5023561D01*
X3713683Y5024678D01*
X3718407Y5026101D01*
X3722979Y5027828D01*
X3727399Y5029860D01*
X3731717Y5032197D01*
X3739743Y5037683D01*
X3743451Y5040782D01*
X3746957Y5044135D01*
X3750208Y5047691D01*
X3753256Y5051450D01*
X3756050Y5055362D01*
X3758590Y5059426D01*
X3762756Y5068062D01*
X3764381Y5072532D01*
X3765651Y5077104D01*
X3766616Y5081778D01*
X3767277Y5086553D01*
X3767531Y5091328D01*
X3767378Y5096154D01*
X3766870Y5101031D01*
X3765956Y5105908D01*
X3764635Y5110734D01*
X3762857Y5115610D01*
X3760673Y5120386D01*
X3757980Y5125110D01*
X3754882Y5129784D01*
X3751072Y5134610D01*
X3746957Y5138978D01*
X3742639Y5142941D01*
X3738067Y5146497D01*
X3733241Y5149596D01*
X3728313Y5152339D01*
X3723182Y5154625D01*
X3717950Y5156504D01*
X3712565Y5157927D01*
X3707180Y5158994D01*
X3701694Y5159603D01*
X3696208Y5159806D01*
X3690670Y5159552D01*
X3685184Y5158943D01*
X3679748Y5157876D01*
X3674414Y5156403D01*
X3669182Y5154523D01*
X3664051Y5152186D01*
X3659073Y5149494D01*
X3654298Y5146344D01*
X3649726Y5142738D01*
X3645357Y5138775D01*
X3641242Y5134406D01*
X3637432Y5129580D01*
X3634384Y5125212D01*
X3631996Y5121300D01*
X3630117Y5117541D01*
X3628745Y5113782D01*
X3627780Y5109718D01*
X3627170Y5105146D01*
X3626764Y5093665D01*
X3627120Y5083810D01*
X3628339Y5074818D01*
X3630269Y5066995D01*
X3633012Y5060543D01*
X3639312Y5048656D01*
X3627475Y5059527D01*
X3621176Y5066131D01*
X3614521Y5073954D01*
X3607612Y5082743D01*
X3600500Y5092446D01*
X3593337Y5102860D01*
X3586175Y5113883D01*
X3579114Y5125313D01*
X3572205Y5137099D01*
X3565601Y5148986D01*
X3559352Y5160924D01*
X3553510Y5172710D01*
X3548278Y5184241D01*
X3543655Y5195316D01*
X3539490Y5206441D01*
X3535629Y5218328D01*
X3532073Y5230672D01*
X3528872Y5243423D01*
X3526028Y5256530D01*
X3523589Y5269890D01*
X3521456Y5283454D01*
X3519779Y5297170D01*
X3518408Y5310936D01*
X3517493Y5324754D01*
X3516934Y5338470D01*
X3516782Y5352034D01*
X3517036Y5365445D01*
X3517696Y5378551D01*
X3518814Y5391353D01*
X3520338Y5403748D01*
X3522319Y5415686D01*
X3524707Y5427675D01*
X3527501Y5439664D01*
X3530701Y5451652D01*
X3534359Y5463641D01*
X3538372Y5475630D01*
X3542741Y5487517D01*
X3547465Y5499354D01*
X3552545Y5511088D01*
X3557981Y5522671D01*
X3566668Y5539790D01*
X3572916Y5550966D01*
X3579418Y5561888D01*
X3586175Y5572607D01*
X3593236Y5583072D01*
X3600500Y5593232D01*
X3608070Y5603036D01*
X3615842Y5612587D01*
X3623868Y5621731D01*
X3632047Y5630468D01*
X3645814Y5644642D01*
X3627170Y5662015D01*
X3622446Y5666028D01*
X3618890Y5668670D01*
G37*
G36*
X3708704Y5521299D02*
G01*
X3695090Y5520791D01*
X3681780Y5519775D01*
X3670300Y5518302D01*
X3662172Y5516575D01*
X3655771Y5514492D01*
X3643477Y5509666D01*
X3631793Y5504027D01*
X3620871Y5497576D01*
X3615639Y5494070D01*
X3605733Y5486501D01*
X3596589Y5478221D01*
X3588258Y5469229D01*
X3580688Y5459577D01*
X3577234Y5454548D01*
X3573983Y5449316D01*
X3568141Y5438495D01*
X3565550Y5432856D01*
X3561079Y5421172D01*
X3559149Y5415178D01*
X3557473Y5409031D01*
X3556050Y5402732D01*
X3554882Y5396382D01*
X3553307Y5383631D01*
X3552647Y5371490D01*
X3552647Y5365546D01*
X3553358Y5353913D01*
X3554984Y5342686D01*
X3556101Y5337200D01*
X3559048Y5326481D01*
X3562908Y5316118D01*
X3567684Y5306110D01*
X3573373Y5296458D01*
X3579977Y5287111D01*
X3587496Y5278120D01*
X3595928Y5269433D01*
X3605326Y5261000D01*
X3615029Y5253380D01*
X3624834Y5246776D01*
X3634892Y5241137D01*
X3640074Y5238648D01*
X3650792Y5234330D01*
X3662121Y5230774D01*
X3674262Y5227929D01*
X3687318Y5225745D01*
X3726535Y5220157D01*
X3731717Y5219242D01*
X3736949Y5217922D01*
X3742283Y5216245D01*
X3747617Y5214213D01*
X3758285Y5209184D01*
X3768801Y5202936D01*
X3779012Y5195671D01*
X3783939Y5191709D01*
X3793388Y5183124D01*
X3802075Y5173827D01*
X3806037Y5169001D01*
X3809796Y5163972D01*
X3813251Y5158892D01*
X3816451Y5153710D01*
X3819296Y5148427D01*
X3821633Y5143500D01*
X3825595Y5133187D01*
X3828542Y5122418D01*
X3829710Y5116880D01*
X3831285Y5105552D01*
X3831894Y5094122D01*
X3831590Y5082590D01*
X3830320Y5071110D01*
X3828186Y5059832D01*
X3826764Y5054295D01*
X3823258Y5043576D01*
X3818839Y5033314D01*
X3816299Y5028387D01*
X3810558Y5019090D01*
X3799840Y5003647D01*
X3815994Y4987798D01*
X3820718Y4983581D01*
X3825392Y4979822D01*
X3830116Y4976368D01*
X3834892Y4973320D01*
X3839819Y4970526D01*
X3844950Y4968087D01*
X3850335Y4965852D01*
X3855974Y4963871D01*
X3868420Y4960467D01*
X3886250Y4956860D01*
X3903014Y4954066D01*
X3909314Y4953508D01*
X3914444Y4953660D01*
X3918712Y4954473D01*
X3922268Y4956098D01*
X3925366Y4958588D01*
X3928160Y4962042D01*
X3930954Y4966462D01*
X3937152Y4978552D01*
X3942334Y4989779D01*
X3946956Y5001056D01*
X3950970Y5012486D01*
X3954475Y5023967D01*
X3957421Y5035550D01*
X3959809Y5047132D01*
X3961637Y5058816D01*
X3962908Y5070500D01*
X3963619Y5082184D01*
X3963822Y5093868D01*
X3963415Y5105501D01*
X3962501Y5117134D01*
X3961028Y5128717D01*
X3958996Y5140198D01*
X3956456Y5151678D01*
X3953306Y5163007D01*
X3949700Y5174234D01*
X3945483Y5185359D01*
X3940759Y5196332D01*
X3935526Y5207152D01*
X3929735Y5217769D01*
X3923385Y5228285D01*
X3916527Y5238546D01*
X3909161Y5248605D01*
X3901948Y5257444D01*
X3894226Y5265978D01*
X3885946Y5274208D01*
X3877157Y5282133D01*
X3867962Y5289753D01*
X3858310Y5296966D01*
X3848303Y5303824D01*
X3837940Y5310276D01*
X3827272Y5316270D01*
X3816350Y5321858D01*
X3805174Y5326989D01*
X3793794Y5331663D01*
X3782314Y5335778D01*
X3770629Y5339435D01*
X3758946Y5342534D01*
X3747160Y5345074D01*
X3735374Y5347004D01*
X3714953Y5349443D01*
X3707231Y5350967D01*
X3700526Y5352948D01*
X3694836Y5355336D01*
X3690112Y5358130D01*
X3686505Y5361330D01*
X3683914Y5364886D01*
X3682441Y5368747D01*
X3682085Y5372912D01*
X3682847Y5377383D01*
X3684778Y5382107D01*
X3687876Y5387086D01*
X3689858Y5389676D01*
X3691839Y5391607D01*
X3694277Y5392978D01*
X3697478Y5393791D01*
X3701846Y5394198D01*
X3715816Y5393791D01*
X3732123Y5392775D01*
X3743858Y5391556D01*
X3755542Y5389880D01*
X3767074Y5387746D01*
X3778554Y5385155D01*
X3789883Y5382107D01*
X3801059Y5378602D01*
X3812133Y5374690D01*
X3823055Y5370322D01*
X3833825Y5365496D01*
X3844442Y5360212D01*
X3854907Y5354523D01*
X3865168Y5348427D01*
X3875278Y5341874D01*
X3885184Y5334914D01*
X3894886Y5327497D01*
X3904386Y5319725D01*
X3913682Y5311495D01*
X3922877Y5302758D01*
X3931767Y5293614D01*
X3940149Y5284368D01*
X3948023Y5274919D01*
X3955389Y5265216D01*
X3962298Y5255209D01*
X3968750Y5244947D01*
X3974846Y5234279D01*
X3980535Y5223256D01*
X3985869Y5211775D01*
X3990848Y5199786D01*
X3995572Y5187289D01*
X3999788Y5174792D01*
X4002989Y5163870D01*
X4005326Y5153304D01*
X4006951Y5141874D01*
X4008120Y5128310D01*
X4008932Y5111394D01*
X4009542Y5092293D01*
X4009796Y5076647D01*
X4009542Y5063236D01*
X4008678Y5051196D01*
X4007104Y5039563D01*
X4004614Y5027523D01*
X4001211Y5014112D01*
X3993946Y4989423D01*
X3993489Y4987239D01*
X3993743Y4985308D01*
X3994861Y4983480D01*
X3997096Y4981651D01*
X4000652Y4979670D01*
X4005783Y4977384D01*
X4021480Y4971440D01*
X4051147Y4960670D01*
X4081322Y4969865D01*
X4100017Y4976418D01*
X4118000Y4983226D01*
X4129684Y4988204D01*
X4131411Y4989322D01*
X4136745Y5019040D01*
X4138320Y5029098D01*
X4139641Y5040325D01*
X4140657Y5052364D01*
X4141774Y5078272D01*
X4141724Y5105146D01*
X4141266Y5118404D01*
X4140504Y5131257D01*
X4139488Y5143500D01*
X4138117Y5154930D01*
X4136491Y5165344D01*
X4134104Y5177586D01*
X4131360Y5189778D01*
X4128211Y5201818D01*
X4124706Y5213756D01*
X4120845Y5225592D01*
X4116679Y5237327D01*
X4112107Y5248859D01*
X4107230Y5260289D01*
X4101998Y5271566D01*
X4096461Y5282692D01*
X4090568Y5293664D01*
X4084421Y5304434D01*
X4077919Y5315051D01*
X4071112Y5325516D01*
X4064000Y5335727D01*
X4056583Y5345785D01*
X4048912Y5355590D01*
X4040936Y5365191D01*
X4032707Y5374589D01*
X4024172Y5383784D01*
X4015384Y5392724D01*
X4006291Y5401411D01*
X3996994Y5409844D01*
X3987444Y5418023D01*
X3977640Y5425998D01*
X3967581Y5433618D01*
X3957269Y5440984D01*
X3946753Y5448096D01*
X3936034Y5454904D01*
X3925062Y5461406D01*
X3913886Y5467604D01*
X3902506Y5473496D01*
X3890670Y5479186D01*
X3878681Y5484520D01*
X3866591Y5489549D01*
X3854399Y5494223D01*
X3842156Y5498541D01*
X3829862Y5502503D01*
X3817518Y5506110D01*
X3805123Y5509361D01*
X3792778Y5512206D01*
X3780485Y5514695D01*
X3768242Y5516778D01*
X3756101Y5518505D01*
X3744061Y5519775D01*
X3732123Y5520690D01*
X3720337Y5521198D01*
G37*
G36*
X3942791Y3981043D02*
G01*
X3852164Y3980840D01*
X3711498Y3979773D01*
X3656380Y3979011D01*
X3611422Y3978046D01*
X3578860Y3976878D01*
X3567937Y3976268D01*
X3560927Y3975557D01*
X3559048Y3975201D01*
X3548329Y3971848D01*
X3543096Y3969867D01*
X3532886Y3965244D01*
X3523030Y3959860D01*
X3513582Y3953713D01*
X3504590Y3946906D01*
X3496106Y3939438D01*
X3488131Y3931412D01*
X3480815Y3922826D01*
X3474110Y3913682D01*
X3470960Y3908958D01*
X3465322Y3899154D01*
X3462731Y3894124D01*
X3458210Y3883761D01*
X3456228Y3878478D01*
X3452977Y3867658D01*
X3452215Y3862628D01*
X3450894Y3840683D01*
X3449777Y3804716D01*
X3448862Y3757015D01*
X3447592Y3635298D01*
X3447237Y3565753D01*
X3447213Y3397707D01*
X3499256Y3397707D01*
X3499408Y3406546D01*
X3499967Y3415436D01*
X3501034Y3424326D01*
X3502558Y3433267D01*
X3504590Y3442208D01*
X3507079Y3451148D01*
X3510076Y3460089D01*
X3513582Y3468979D01*
X3517595Y3477920D01*
X3520236Y3483101D01*
X3523234Y3488283D01*
X3530092Y3498545D01*
X3538067Y3508552D01*
X3542385Y3513480D01*
X3551732Y3522929D01*
X3561791Y3531971D01*
X3572408Y3540353D01*
X3583533Y3547973D01*
X3589172Y3551529D01*
X3600704Y3557879D01*
X3612286Y3563213D01*
X3618026Y3565499D01*
X3623818Y3567480D01*
X3644646Y3572764D01*
X3650487Y3575151D01*
X3653739Y3578351D01*
X3655364Y3582873D01*
X3658108Y3594557D01*
X3661257Y3606037D01*
X3664813Y3617264D01*
X3668725Y3628339D01*
X3675278Y3644442D01*
X3680155Y3654907D01*
X3685286Y3665118D01*
X3690823Y3675075D01*
X3696665Y3684778D01*
X3702812Y3694226D01*
X3709314Y3703421D01*
X3716070Y3712311D01*
X3723132Y3720947D01*
X3730498Y3729278D01*
X3738118Y3737305D01*
X3745992Y3745077D01*
X3754120Y3752545D01*
X3762501Y3759657D01*
X3771087Y3766464D01*
X3779926Y3772966D01*
X3788968Y3779164D01*
X3798214Y3785006D01*
X3807663Y3790492D01*
X3817315Y3795674D01*
X3827119Y3800449D01*
X3837127Y3804920D01*
X3847236Y3809034D01*
X3857548Y3812743D01*
X3867962Y3816096D01*
X3878529Y3819042D01*
X3889197Y3821633D01*
X3899966Y3823817D01*
X3910888Y3825595D01*
X3921861Y3826967D01*
X3932936Y3827932D01*
X3944061Y3828491D01*
X3955237Y3828592D01*
X3966514Y3828287D01*
X3977792Y3827576D01*
X3989120Y3826408D01*
X4000500Y3824782D01*
X4011879Y3822700D01*
X4023258Y3820160D01*
X4034891Y3817061D01*
X4046677Y3813454D01*
X4058259Y3809390D01*
X4069587Y3804869D01*
X4080662Y3799941D01*
X4091533Y3794556D01*
X4102100Y3788765D01*
X4112412Y3782618D01*
X4122470Y3776014D01*
X4132275Y3769055D01*
X4141724Y3761740D01*
X4150918Y3754018D01*
X4159758Y3745992D01*
X4168343Y3737559D01*
X4176522Y3728821D01*
X4184446Y3719779D01*
X4191965Y3710381D01*
X4199128Y3700729D01*
X4205986Y3690721D01*
X4212386Y3680460D01*
X4218482Y3669893D01*
X4224172Y3659073D01*
X4229404Y3647998D01*
X4234281Y3636670D01*
X4238752Y3625087D01*
X4242765Y3613302D01*
X4246321Y3601313D01*
X4250893Y3582873D01*
X4252518Y3578351D01*
X4255770Y3575202D01*
X4261612Y3572764D01*
X4276496Y3569208D01*
X4287113Y3566160D01*
X4297476Y3562299D01*
X4307535Y3557727D01*
X4317288Y3552444D01*
X4326686Y3546551D01*
X4335729Y3539998D01*
X4344365Y3532886D01*
X4352544Y3525265D01*
X4360316Y3517087D01*
X4367580Y3508501D01*
X4374337Y3499459D01*
X4380534Y3490061D01*
X4386173Y3480308D01*
X4391202Y3470249D01*
X4395571Y3459937D01*
X4399330Y3449370D01*
X4402378Y3438601D01*
X4404715Y3427729D01*
X4406341Y3416706D01*
X4407154Y3405581D01*
X4407204Y3394456D01*
X4406493Y3384448D01*
X4405426Y3375558D01*
X4403902Y3366770D01*
X4401921Y3358083D01*
X4399534Y3349498D01*
X4396790Y3341065D01*
X4393590Y3332683D01*
X4389983Y3324402D01*
X4386021Y3316274D01*
X4381652Y3308248D01*
X4376877Y3300374D01*
X4371797Y3292551D01*
X4366310Y3284931D01*
X4357471Y3273704D01*
X4351121Y3266389D01*
X4344416Y3259175D01*
X4337405Y3252165D01*
X4330090Y3245256D01*
X4322470Y3238550D01*
X4314545Y3231946D01*
X4306265Y3225495D01*
X4297781Y3219246D01*
X4288942Y3213150D01*
X4279849Y3207207D01*
X4270502Y3201416D01*
X4260900Y3195828D01*
X4250994Y3190392D01*
X4230522Y3180080D01*
X4219956Y3175203D01*
X4198112Y3166008D01*
X4175455Y3157626D01*
X4163822Y3153714D01*
X4139996Y3146552D01*
X4115511Y3140202D01*
X4096715Y3136036D01*
X4071162Y3131261D01*
X4058208Y3129229D01*
X4038498Y3126587D01*
X4011879Y3123946D01*
X3984853Y3122269D01*
X3971188Y3121812D01*
X3957472Y3121609D01*
X3929837Y3121964D01*
X3915918Y3122523D01*
X3887978Y3124504D01*
X3866946Y3126689D01*
X3845915Y3129534D01*
X3831844Y3131769D01*
X3817365Y3134410D01*
X3796080Y3138830D01*
X3782263Y3142132D01*
X3768699Y3145637D01*
X3755339Y3149447D01*
X3742334Y3153460D01*
X3729532Y3157728D01*
X3717086Y3162249D01*
X3704894Y3166973D01*
X3692956Y3171901D01*
X3681374Y3177082D01*
X3670096Y3182416D01*
X3659073Y3188004D01*
X3648405Y3193745D01*
X3638092Y3199739D01*
X3628034Y3205886D01*
X3618382Y3212185D01*
X3609035Y3218688D01*
X3599992Y3225342D01*
X3591356Y3232150D01*
X3583025Y3239109D01*
X3575100Y3246272D01*
X3567480Y3253536D01*
X3560267Y3260953D01*
X3553460Y3268472D01*
X3546957Y3276142D01*
X3540912Y3283915D01*
X3535222Y3291789D01*
X3529939Y3299815D01*
X3525012Y3307943D01*
X3520541Y3316122D01*
X3516477Y3324402D01*
X3512820Y3332784D01*
X3509568Y3341268D01*
X3506774Y3349751D01*
X3504437Y3358387D01*
X3502507Y3367024D01*
X3500983Y3375710D01*
X3499967Y3384499D01*
X3499256Y3397707D01*
X3447213Y3397707D01*
X3447999Y3266033D01*
X3448659Y3206800D01*
X3449523Y3156458D01*
X3450590Y3117392D01*
X3451860Y3091738D01*
X3452571Y3084626D01*
X3454501Y3077108D01*
X3458260Y3066288D01*
X3462832Y3055874D01*
X3468166Y3045815D01*
X3474262Y3036214D01*
X3481019Y3027070D01*
X3488436Y3018485D01*
X3496462Y3010458D01*
X3505047Y3003042D01*
X3514191Y2996234D01*
X3523742Y2990138D01*
X3533800Y2984804D01*
X3544214Y2980232D01*
X3554984Y2976473D01*
X3561384Y2974746D01*
X3567480Y2974035D01*
X3577539Y2973324D01*
X3608527Y2972155D01*
X3652113Y2971139D01*
X3706063Y2970326D01*
X3768090Y2969666D01*
X3836009Y2969260D01*
X3916629Y2969056D01*
X4043730Y2969158D01*
X4185361Y2970123D01*
X4241495Y2970885D01*
X4287875Y2971850D01*
X4322267Y2973019D01*
X4334205Y2973679D01*
X4344873Y2974746D01*
X4351274Y2976473D01*
X4362043Y2980232D01*
X4372457Y2984804D01*
X4382465Y2990138D01*
X4392066Y2996234D01*
X4401159Y3003042D01*
X4409744Y3010458D01*
X4413859Y3014370D01*
X4421581Y3022701D01*
X4428693Y3031591D01*
X4435094Y3040938D01*
X4440834Y3050794D01*
X4445812Y3061055D01*
X4449978Y3071672D01*
X4451756Y3077108D01*
X4453483Y3083509D01*
X4454194Y3089605D01*
X4455515Y3113430D01*
X4456582Y3150971D01*
X4457496Y3199993D01*
X4458208Y3258261D01*
X4459071Y3402533D01*
X4459071Y3529888D01*
X4458817Y3609797D01*
X4457649Y3736644D01*
X4456785Y3788206D01*
X4455769Y3828846D01*
X4454499Y3856329D01*
X4453432Y3866997D01*
X4451705Y3873347D01*
X4447946Y3884117D01*
X4443374Y3894582D01*
X4438040Y3904589D01*
X4431944Y3914190D01*
X4425188Y3923284D01*
X4417720Y3931869D01*
X4413808Y3935984D01*
X4405477Y3943705D01*
X4396587Y3950817D01*
X4387240Y3957218D01*
X4377385Y3962958D01*
X4367123Y3967937D01*
X4356506Y3972102D01*
X4351070Y3973880D01*
X4344720Y3975608D01*
X4338675Y3976319D01*
X4314901Y3977538D01*
X4277309Y3978605D01*
X4228134Y3979468D01*
X4169714Y3980179D01*
X4024934Y3980942D01*
G37*
G36*
X4028948Y3727856D02*
G01*
X4024884Y3727196D01*
X4020362Y3725468D01*
X4015841Y3722827D01*
X4011929Y3719626D01*
X4009339Y3716883D01*
X4007408Y3714191D01*
X4005935Y3711194D01*
X4004919Y3707434D01*
X4004259Y3702558D01*
X4003852Y3696208D01*
X4003649Y3677310D01*
X4003801Y3668369D01*
X4004208Y3660444D01*
X4004970Y3653485D01*
X4006037Y3647440D01*
X4007408Y3642207D01*
X4009186Y3637889D01*
X4011371Y3634282D01*
X4013962Y3631488D01*
X4017010Y3629355D01*
X4020515Y3627882D01*
X4024477Y3627069D01*
X4028948Y3626764D01*
X4033418Y3627069D01*
X4037380Y3627882D01*
X4040835Y3629355D01*
X4043883Y3631488D01*
X4046474Y3634282D01*
X4048658Y3637889D01*
X4050436Y3642207D01*
X4051858Y3647440D01*
X4052874Y3653485D01*
X4053636Y3660444D01*
X4054043Y3668369D01*
X4054195Y3677310D01*
X4054043Y3686251D01*
X4053636Y3694176D01*
X4052874Y3701186D01*
X4051858Y3707231D01*
X4050436Y3712413D01*
X4048658Y3716782D01*
X4046474Y3720337D01*
X4043883Y3723182D01*
X4040835Y3725265D01*
X4037380Y3726738D01*
X4033418Y3727602D01*
G37*
G36*
X3953103Y3727856D02*
G01*
X3948836Y3727348D01*
X3944162Y3725976D01*
X3939641Y3723944D01*
X3935831Y3721455D01*
X3933342Y3719271D01*
X3931412Y3716985D01*
X3929989Y3714191D01*
X3929024Y3710432D01*
X3928414Y3705301D01*
X3928059Y3698341D01*
X3927856Y3677310D01*
X3928262Y3659073D01*
X3928872Y3651808D01*
X3929786Y3645611D01*
X3931005Y3640531D01*
X3932631Y3636365D01*
X3934714Y3633063D01*
X3937254Y3630574D01*
X3940352Y3628796D01*
X3944010Y3627628D01*
X3948226Y3626967D01*
X3953103Y3626764D01*
X3957980Y3626967D01*
X3962247Y3627628D01*
X3965905Y3628796D01*
X3968953Y3630574D01*
X3971493Y3633063D01*
X3973576Y3636365D01*
X3975252Y3640531D01*
X3976471Y3645611D01*
X3977386Y3651808D01*
X3977944Y3659073D01*
X3978300Y3667556D01*
X3978300Y3687114D01*
X3977944Y3695598D01*
X3977386Y3702862D01*
X3976471Y3709009D01*
X3975252Y3714140D01*
X3973576Y3718306D01*
X3971493Y3721557D01*
X3968953Y3724046D01*
X3965905Y3725875D01*
X3962247Y3727043D01*
X3957980Y3727653D01*
G37*
G36*
X3877310Y3727856D02*
G01*
X3873296Y3727196D01*
X3868724Y3725468D01*
X3864203Y3722827D01*
X3860342Y3719626D01*
X3857751Y3716883D01*
X3855770Y3714191D01*
X3854348Y3711194D01*
X3853281Y3707434D01*
X3852621Y3702558D01*
X3852265Y3696208D01*
X3852062Y3677310D01*
X3852164Y3668369D01*
X3852621Y3660444D01*
X3853332Y3653485D01*
X3854399Y3647440D01*
X3855821Y3642207D01*
X3857599Y3637889D01*
X3859784Y3634282D01*
X3862374Y3631488D01*
X3865422Y3629355D01*
X3868877Y3627882D01*
X3872839Y3627069D01*
X3877310Y3626764D01*
X3881780Y3627069D01*
X3885742Y3627882D01*
X3889248Y3629355D01*
X3892296Y3631488D01*
X3894886Y3634282D01*
X3897020Y3637889D01*
X3898849Y3642207D01*
X3900220Y3647440D01*
X3901287Y3653485D01*
X3902049Y3660444D01*
X3902456Y3668369D01*
X3902608Y3677310D01*
X3902456Y3686251D01*
X3902049Y3694176D01*
X3901287Y3701186D01*
X3900220Y3707231D01*
X3898849Y3712413D01*
X3897020Y3716782D01*
X3894886Y3720337D01*
X3892296Y3723182D01*
X3889248Y3725265D01*
X3885742Y3726738D01*
X3881780Y3727602D01*
G37*
G36*
X3905453Y3603040D02*
G01*
X3874414Y3602583D01*
X3861663Y3602177D01*
X3851300Y3601516D01*
X3843731Y3600754D01*
X3839362Y3599789D01*
X3835704Y3597859D01*
X3834079Y3596640D01*
X3832656Y3595065D01*
X3831386Y3593185D01*
X3830269Y3590848D01*
X3829304Y3587953D01*
X3827729Y3580384D01*
X3826662Y3569817D01*
X3825951Y3555695D01*
X3825595Y3537407D01*
X3825697Y3486048D01*
X3826111Y3437940D01*
X3890264Y3437940D01*
X3890619Y3442208D01*
X3891991Y3446526D01*
X3894378Y3450844D01*
X3899001Y3456990D01*
X3900017Y3459429D01*
X3900830Y3462680D01*
X3901490Y3466795D01*
X3902354Y3477869D01*
X3902608Y3493109D01*
X3902608Y3525723D01*
X3919270Y3525570D01*
X3922826Y3524961D01*
X3926230Y3523742D01*
X3929837Y3521760D01*
X3933850Y3518763D01*
X3938625Y3514598D01*
X3960723Y3492957D01*
X3968750Y3485438D01*
X3974592Y3480358D01*
X3977436Y3478529D01*
X3979773Y3480054D01*
X3979773Y3484168D01*
X3977538Y3489858D01*
X3970324Y3500882D01*
X3968292Y3505657D01*
X3967175Y3510432D01*
X3967022Y3515156D01*
X3967683Y3519678D01*
X3969207Y3523996D01*
X3971493Y3527907D01*
X3974490Y3531412D01*
X3978198Y3534359D01*
X3982567Y3536696D01*
X3987495Y3538220D01*
X3992981Y3538982D01*
X3995521Y3538220D01*
X3999128Y3536137D01*
X4003344Y3532936D01*
X4007612Y3528974D01*
X4011218Y3524859D01*
X4013809Y3520694D01*
X4015384Y3516528D01*
X4015994Y3512261D01*
X4015587Y3507994D01*
X4014215Y3503726D01*
X4011828Y3499408D01*
X4007256Y3493363D01*
X4006240Y3490874D01*
X4005427Y3487623D01*
X4004767Y3483508D01*
X4003903Y3472484D01*
X4003649Y3457194D01*
X4003649Y3424631D01*
X3986987Y3424783D01*
X3983431Y3425342D01*
X3980027Y3426561D01*
X3976420Y3428542D01*
X3972356Y3431540D01*
X3961841Y3441192D01*
X3945534Y3457346D01*
X3937508Y3464864D01*
X3931665Y3469944D01*
X3928770Y3471773D01*
X3926433Y3470249D01*
X3926484Y3466134D01*
X3928719Y3460445D01*
X3936136Y3449116D01*
X3938219Y3444240D01*
X3939286Y3439414D01*
X3939387Y3434740D01*
X3938676Y3430270D01*
X3937152Y3426155D01*
X3934968Y3422446D01*
X3932174Y3419195D01*
X3928872Y3416554D01*
X3925163Y3414522D01*
X3921099Y3413251D01*
X3916832Y3412794D01*
X3912362Y3413251D01*
X3907840Y3414725D01*
X3903370Y3417265D01*
X3898950Y3420973D01*
X3895242Y3425190D01*
X3892550Y3429457D01*
X3890873Y3433673D01*
X3890264Y3437940D01*
X3826111Y3437940D01*
X3826662Y3402126D01*
X3827576Y3377082D01*
X3828237Y3369005D01*
X3829050Y3363264D01*
X3830065Y3359302D01*
X3831285Y3356660D01*
X3832809Y3354781D01*
X3833876Y3354120D01*
X3835704Y3353460D01*
X3841546Y3352292D01*
X3849878Y3351276D01*
X3860495Y3350361D01*
X3887114Y3348990D01*
X3918864Y3348177D01*
X3961790Y3347923D01*
X3995674Y3348329D01*
X4026357Y3349294D01*
X4051300Y3350818D01*
X4060850Y3351784D01*
X4067962Y3352901D01*
X4072331Y3354120D01*
X4073448Y3354832D01*
X4074109Y3355898D01*
X4074769Y3357727D01*
X4075937Y3363569D01*
X4076954Y3371900D01*
X4077868Y3382518D01*
X4079240Y3409137D01*
X4080103Y3440836D01*
X4080357Y3483813D01*
X4079951Y3517696D01*
X4078986Y3548430D01*
X4077462Y3573373D01*
X4076496Y3582873D01*
X4075379Y3590036D01*
X4074109Y3594404D01*
X4073448Y3595522D01*
X4072432Y3596081D01*
X4067708Y3597148D01*
X4059834Y3598164D01*
X4036212Y3599942D01*
X4004818Y3601364D01*
X3968953Y3602431D01*
X3931970Y3602939D01*
G37*
G36*
X4155287Y3577386D02*
G01*
X4148531Y3577234D01*
X4141978Y3576828D01*
X4135628Y3576065D01*
X4129735Y3575050D01*
X4124401Y3573729D01*
X4119727Y3572103D01*
X4115866Y3570173D01*
X4113022Y3567988D01*
X4109821Y3564077D01*
X4107179Y3559556D01*
X4105401Y3555034D01*
X4104741Y3550970D01*
X4104995Y3546500D01*
X4105859Y3542537D01*
X4107332Y3539032D01*
X4109415Y3536035D01*
X4112260Y3533444D01*
X4115815Y3531260D01*
X4120184Y3529482D01*
X4125366Y3528060D01*
X4131411Y3526993D01*
X4138422Y3526282D01*
X4146346Y3525824D01*
X4174134Y3525926D01*
X4180484Y3526282D01*
X4185361Y3526942D01*
X4189120Y3527958D01*
X4192117Y3529431D01*
X4194810Y3531412D01*
X4197553Y3533952D01*
X4201007Y3538016D01*
X4203446Y3542233D01*
X4204919Y3546601D01*
X4205427Y3550970D01*
X4204919Y3555339D01*
X4203446Y3559708D01*
X4201007Y3563924D01*
X4197553Y3567988D01*
X4194657Y3570173D01*
X4190796Y3572103D01*
X4186123Y3573729D01*
X4180789Y3575050D01*
X4174896Y3576065D01*
X4168597Y3576828D01*
X4161993Y3577234D01*
G37*
G36*
X3750970Y3577386D02*
G01*
X3744264Y3577234D01*
X3737660Y3576828D01*
X3731361Y3576065D01*
X3725468Y3575050D01*
X3720084Y3573729D01*
X3715461Y3572103D01*
X3711600Y3570173D01*
X3708704Y3567988D01*
X3705504Y3564077D01*
X3702862Y3559556D01*
X3701135Y3555034D01*
X3700475Y3550970D01*
X3700729Y3546500D01*
X3701592Y3542537D01*
X3703065Y3539032D01*
X3705148Y3536035D01*
X3707993Y3533444D01*
X3711549Y3531260D01*
X3715918Y3529482D01*
X3721100Y3528060D01*
X3727145Y3526993D01*
X3734104Y3526282D01*
X3742029Y3525824D01*
X3769817Y3525926D01*
X3776218Y3526282D01*
X3781094Y3526942D01*
X3784854Y3527958D01*
X3787851Y3529431D01*
X3790543Y3531412D01*
X3793236Y3533952D01*
X3796690Y3538016D01*
X3799179Y3542233D01*
X3800652Y3546601D01*
X3801160Y3550970D01*
X3800652Y3555339D01*
X3799179Y3559708D01*
X3796690Y3563924D01*
X3793236Y3567988D01*
X3790340Y3570173D01*
X3786530Y3572103D01*
X3781856Y3573729D01*
X3776522Y3575050D01*
X3770579Y3576065D01*
X3764279Y3576828D01*
X3757726Y3577234D01*
G37*
G36*
X4144619Y3501542D02*
G01*
X4132732Y3501034D01*
X4127957Y3500526D01*
X4123994Y3499815D01*
X4120743Y3498951D01*
X4118254Y3497935D01*
X4114495Y3495446D01*
X4111294Y3492296D01*
X4108754Y3488537D01*
X4106824Y3484372D01*
X4105605Y3479952D01*
X4105148Y3475278D01*
X4105503Y3470605D01*
X4106672Y3465982D01*
X4108094Y3462528D01*
X4109821Y3459530D01*
X4111904Y3456990D01*
X4114444Y3454806D01*
X4117543Y3452977D01*
X4121200Y3451555D01*
X4125518Y3450437D01*
X4130598Y3449624D01*
X4136491Y3449065D01*
X4151020Y3448761D01*
X4168394Y3449269D01*
X4175963Y3449878D01*
X4182465Y3450691D01*
X4188053Y3451758D01*
X4192727Y3453180D01*
X4196588Y3454958D01*
X4199686Y3457143D01*
X4202023Y3459734D01*
X4203801Y3462832D01*
X4204919Y3466388D01*
X4205579Y3470503D01*
X4205782Y3475177D01*
X4205579Y3479850D01*
X4204919Y3483965D01*
X4203801Y3487521D01*
X4202023Y3490569D01*
X4199686Y3493160D01*
X4196588Y3495344D01*
X4192727Y3497122D01*
X4188053Y3498545D01*
X4182465Y3499612D01*
X4175963Y3500424D01*
X4168394Y3501034D01*
X4151782Y3501542D01*
G37*
G36*
X3740353Y3501542D02*
G01*
X3728465Y3501034D01*
X3723690Y3500526D01*
X3719677Y3499815D01*
X3716477Y3498951D01*
X3713987Y3497935D01*
X3710228Y3495446D01*
X3707028Y3492296D01*
X3704437Y3488537D01*
X3702558Y3484372D01*
X3701338Y3479952D01*
X3700881Y3475278D01*
X3701237Y3470605D01*
X3702405Y3465982D01*
X3703828Y3462528D01*
X3705555Y3459530D01*
X3707637Y3456990D01*
X3710178Y3454806D01*
X3713276Y3452977D01*
X3716934Y3451555D01*
X3721252Y3450437D01*
X3726332Y3449624D01*
X3732225Y3449065D01*
X3746754Y3448761D01*
X3764127Y3449269D01*
X3771696Y3449878D01*
X3778199Y3450691D01*
X3783787Y3451758D01*
X3788460Y3453180D01*
X3792321Y3454958D01*
X3795420Y3457143D01*
X3797757Y3459734D01*
X3799535Y3462832D01*
X3800652Y3466388D01*
X3801313Y3470503D01*
X3801516Y3475177D01*
X3801313Y3479850D01*
X3800652Y3483965D01*
X3799535Y3487521D01*
X3797757Y3490569D01*
X3795420Y3493160D01*
X3792321Y3495344D01*
X3788460Y3497122D01*
X3783787Y3498545D01*
X3778199Y3499612D01*
X3771696Y3500424D01*
X3764127Y3501034D01*
X3747515Y3501542D01*
G37*
G36*
X4155287Y3424631D02*
G01*
X4136390Y3424428D01*
X4130040Y3424021D01*
X4125163Y3423361D01*
X4121404Y3422345D01*
X4118406Y3420872D01*
X4115714Y3418890D01*
X4113022Y3416350D01*
X4109821Y3412439D01*
X4107179Y3407918D01*
X4105401Y3403396D01*
X4104741Y3399332D01*
X4104995Y3394862D01*
X4105859Y3390900D01*
X4107332Y3387394D01*
X4109415Y3384397D01*
X4112260Y3381806D01*
X4115815Y3379622D01*
X4120184Y3377844D01*
X4125366Y3376422D01*
X4131411Y3375355D01*
X4138422Y3374644D01*
X4146346Y3374186D01*
X4164228Y3374186D01*
X4172153Y3374644D01*
X4179112Y3375355D01*
X4185158Y3376422D01*
X4190339Y3377844D01*
X4194708Y3379622D01*
X4198264Y3381806D01*
X4201109Y3384397D01*
X4203192Y3387394D01*
X4204665Y3390900D01*
X4205528Y3394862D01*
X4205782Y3399332D01*
X4205528Y3403803D01*
X4204665Y3407765D01*
X4203192Y3411270D01*
X4201109Y3414318D01*
X4198264Y3416909D01*
X4194708Y3419043D01*
X4190339Y3420872D01*
X4185158Y3422243D01*
X4179112Y3423310D01*
X4172153Y3424072D01*
X4164228Y3424478D01*
G37*
G36*
X3750970Y3424631D02*
G01*
X3732123Y3424428D01*
X3725773Y3424021D01*
X3720896Y3423361D01*
X3717137Y3422345D01*
X3714140Y3420872D01*
X3711448Y3418890D01*
X3708704Y3416350D01*
X3705504Y3412439D01*
X3702862Y3407918D01*
X3701135Y3403396D01*
X3700475Y3399332D01*
X3700729Y3394862D01*
X3701592Y3390900D01*
X3703065Y3387394D01*
X3705148Y3384397D01*
X3707993Y3381806D01*
X3711549Y3379622D01*
X3715918Y3377844D01*
X3721100Y3376422D01*
X3727145Y3375355D01*
X3734104Y3374644D01*
X3742029Y3374186D01*
X3759911Y3374186D01*
X3767836Y3374644D01*
X3774846Y3375355D01*
X3780891Y3376422D01*
X3786073Y3377844D01*
X3790442Y3379622D01*
X3793998Y3381806D01*
X3796842Y3384397D01*
X3798925Y3387394D01*
X3800398Y3390900D01*
X3801262Y3394862D01*
X3801516Y3399332D01*
X3801262Y3403803D01*
X3800398Y3407765D01*
X3798925Y3411270D01*
X3796842Y3414318D01*
X3793998Y3416909D01*
X3790442Y3419043D01*
X3786073Y3420872D01*
X3780891Y3422243D01*
X3774846Y3423310D01*
X3767836Y3424072D01*
X3759911Y3424478D01*
G37*
G36*
X4028948Y3323539D02*
G01*
X4024884Y3322878D01*
X4020362Y3321100D01*
X4015841Y3318459D01*
X4011929Y3315258D01*
X4009339Y3312515D01*
X4007408Y3309823D01*
X4005935Y3306826D01*
X4004919Y3303066D01*
X4004259Y3298190D01*
X4003852Y3291840D01*
X4003649Y3272993D01*
X4003801Y3264052D01*
X4004208Y3256127D01*
X4004970Y3249117D01*
X4006037Y3243072D01*
X4007408Y3237890D01*
X4009186Y3233521D01*
X4011371Y3229965D01*
X4013962Y3227120D01*
X4017010Y3225038D01*
X4020515Y3223564D01*
X4024477Y3222701D01*
X4028948Y3222447D01*
X4033418Y3222701D01*
X4037380Y3223564D01*
X4040835Y3225038D01*
X4043883Y3227120D01*
X4046474Y3229965D01*
X4048658Y3233521D01*
X4050436Y3237890D01*
X4051858Y3243072D01*
X4052874Y3249117D01*
X4053636Y3256127D01*
X4054043Y3264052D01*
X4054195Y3272993D01*
X4054043Y3281934D01*
X4053636Y3289858D01*
X4052874Y3296818D01*
X4051858Y3302863D01*
X4050436Y3308045D01*
X4048658Y3312414D01*
X4046474Y3316020D01*
X4043883Y3318814D01*
X4040835Y3320948D01*
X4037380Y3322421D01*
X4033418Y3323234D01*
G37*
G36*
X3953103Y3323539D02*
G01*
X3948836Y3323031D01*
X3944162Y3321608D01*
X3939641Y3319576D01*
X3935831Y3317087D01*
X3933342Y3314903D01*
X3931412Y3312617D01*
X3929989Y3309823D01*
X3929024Y3306064D01*
X3928414Y3300933D01*
X3928059Y3293973D01*
X3927856Y3272993D01*
X3928262Y3254705D01*
X3928872Y3247440D01*
X3929786Y3241294D01*
X3931005Y3236163D01*
X3932631Y3231997D01*
X3934714Y3228746D01*
X3937254Y3226257D01*
X3940352Y3224428D01*
X3944010Y3223260D01*
X3948226Y3222650D01*
X3953103Y3222447D01*
X3957980Y3222650D01*
X3962247Y3223260D01*
X3965905Y3224428D01*
X3968953Y3226257D01*
X3971493Y3228746D01*
X3973576Y3231997D01*
X3975252Y3236163D01*
X3976471Y3241294D01*
X3977386Y3247440D01*
X3977944Y3254705D01*
X3978300Y3263188D01*
X3978300Y3282746D01*
X3977944Y3291230D01*
X3977386Y3298494D01*
X3976471Y3304641D01*
X3975252Y3309772D01*
X3973576Y3313937D01*
X3971493Y3317240D01*
X3968953Y3319729D01*
X3965905Y3321507D01*
X3962247Y3322675D01*
X3957980Y3323336D01*
G37*
G36*
X3877310Y3323539D02*
G01*
X3873296Y3322878D01*
X3868724Y3321100D01*
X3864203Y3318459D01*
X3860342Y3315258D01*
X3857751Y3312515D01*
X3855770Y3309823D01*
X3854348Y3306826D01*
X3853281Y3303066D01*
X3852621Y3298190D01*
X3852265Y3291840D01*
X3852062Y3272993D01*
X3852164Y3264052D01*
X3852621Y3256127D01*
X3853332Y3249117D01*
X3854399Y3243072D01*
X3855821Y3237890D01*
X3857599Y3233521D01*
X3859784Y3229965D01*
X3862374Y3227120D01*
X3865422Y3225038D01*
X3868877Y3223564D01*
X3872839Y3222701D01*
X3877310Y3222447D01*
X3881780Y3222701D01*
X3885742Y3223564D01*
X3889248Y3225038D01*
X3892296Y3227120D01*
X3894886Y3229965D01*
X3897020Y3233521D01*
X3898849Y3237890D01*
X3900220Y3243072D01*
X3901287Y3249117D01*
X3902049Y3256127D01*
X3902456Y3264052D01*
X3902608Y3272993D01*
X3902456Y3281934D01*
X3902049Y3289858D01*
X3901287Y3296818D01*
X3900220Y3302863D01*
X3898849Y3308045D01*
X3897020Y3312414D01*
X3894886Y3316020D01*
X3892296Y3318814D01*
X3889248Y3320948D01*
X3885742Y3322421D01*
X3881780Y3323234D01*
G37*
G36*
X4001008Y2860344D02*
G01*
X4001008Y2851404D01*
X4035856Y2851404D01*
X4042613Y2851099D01*
X4048302Y2850134D01*
X4053179Y2848203D01*
X4057446Y2845155D01*
X4061358Y2840837D01*
X4065066Y2834995D01*
X4068826Y2827477D01*
X4072890Y2818079D01*
X4086504Y2784754D01*
X4098848Y2811424D01*
X4103471Y2822295D01*
X4107027Y2832201D01*
X4109212Y2840024D01*
X4109516Y2844698D01*
X4111193Y2847340D01*
X4116832Y2849422D01*
X4125569Y2850896D01*
X4136593Y2851404D01*
X4165244Y2851404D01*
X4165244Y2789021D01*
X4169054Y2789021D01*
X4169257Y2794609D01*
X4169918Y2799943D01*
X4171035Y2805125D01*
X4172508Y2810052D01*
X4174388Y2814777D01*
X4176674Y2819196D01*
X4179265Y2823413D01*
X4182262Y2827375D01*
X4185513Y2831084D01*
X4189120Y2834487D01*
X4193032Y2837688D01*
X4197197Y2840532D01*
X4201617Y2843123D01*
X4206290Y2845409D01*
X4211167Y2847390D01*
X4216298Y2849067D01*
X4221581Y2850388D01*
X4227068Y2851404D01*
X4232757Y2852115D01*
X4238548Y2852470D01*
X4244492Y2852470D01*
X4250537Y2852115D01*
X4256633Y2851404D01*
X4262882Y2850286D01*
X4269181Y2848864D01*
X4275531Y2846984D01*
X4281881Y2844749D01*
X4288282Y2842107D01*
X4294530Y2839212D01*
X4299204Y2836722D01*
X4302302Y2834436D01*
X4303928Y2832100D01*
X4304182Y2829610D01*
X4303115Y2826715D01*
X4300778Y2823210D01*
X4297324Y2818942D01*
X4293565Y2814828D01*
X4290314Y2811932D01*
X4287215Y2810256D01*
X4284065Y2809798D01*
X4280509Y2810611D01*
X4276394Y2812643D01*
X4271314Y2815996D01*
X4259681Y2824327D01*
X4254296Y2827172D01*
X4249013Y2829153D01*
X4243832Y2830322D01*
X4238853Y2830728D01*
X4234078Y2830322D01*
X4229557Y2829204D01*
X4225340Y2827324D01*
X4221429Y2824784D01*
X4217924Y2821533D01*
X4214825Y2817622D01*
X4212234Y2813050D01*
X4210100Y2807919D01*
X4208526Y2802178D01*
X4208230Y2800248D01*
X4311904Y2800248D01*
X4312158Y2806344D01*
X4313478Y2818079D01*
X4314545Y2823616D01*
X4315866Y2828798D01*
X4317390Y2833573D01*
X4319219Y2837942D01*
X4321302Y2841802D01*
X4323588Y2845104D01*
X4326178Y2847797D01*
X4328922Y2849778D01*
X4331970Y2850997D01*
X4335221Y2851404D01*
X4343755Y2851099D01*
X4347006Y2850489D01*
X4349648Y2849321D01*
X4351680Y2847594D01*
X4353255Y2845054D01*
X4354423Y2841599D01*
X4355236Y2837078D01*
X4355744Y2831388D01*
X4356201Y2815793D01*
X4356404Y2796184D01*
X4356912Y2787446D01*
X4357827Y2779471D01*
X4358995Y2772257D01*
X4360519Y2765856D01*
X4362348Y2760268D01*
X4364482Y2755493D01*
X4366869Y2751632D01*
X4369511Y2748584D01*
X4372457Y2746451D01*
X4375556Y2745232D01*
X4378960Y2744927D01*
X4382516Y2745587D01*
X4386326Y2747213D01*
X4390288Y2749753D01*
X4394403Y2753360D01*
X4397654Y2757068D01*
X4400245Y2761386D01*
X4402277Y2766466D01*
X4403750Y2772460D01*
X4404715Y2779522D01*
X4405122Y2787802D01*
X4405071Y2797403D01*
X4403852Y2822041D01*
X4403598Y2832354D01*
X4404004Y2839923D01*
X4405172Y2845206D01*
X4407306Y2848559D01*
X4410608Y2850438D01*
X4415129Y2851251D01*
X4421124Y2851404D01*
X4423613Y2850997D01*
X4425950Y2849727D01*
X4428083Y2847644D01*
X4430064Y2844901D01*
X4431842Y2841498D01*
X4433417Y2837484D01*
X4434840Y2832963D01*
X4436059Y2828036D01*
X4437938Y2816961D01*
X4439005Y2804820D01*
X4439208Y2792120D01*
X4439056Y2785719D01*
X4437989Y2773070D01*
X4436059Y2761183D01*
X4434738Y2755646D01*
X4433163Y2750464D01*
X4431385Y2745740D01*
X4429353Y2741472D01*
X4427067Y2737764D01*
X4424883Y2735376D01*
X4421936Y2733294D01*
X4418228Y2731516D01*
X4413910Y2729992D01*
X4409033Y2728772D01*
X4403750Y2727807D01*
X4398010Y2727096D01*
X4385868Y2726486D01*
X4379518Y2726588D01*
X4366869Y2727604D01*
X4360722Y2728468D01*
X4354728Y2729585D01*
X4349089Y2730957D01*
X4343806Y2732532D01*
X4338980Y2734411D01*
X4334713Y2736494D01*
X4331055Y2738831D01*
X4328160Y2741371D01*
X4325162Y2744978D01*
X4322521Y2749092D01*
X4320133Y2753715D01*
X4318101Y2758744D01*
X4316323Y2764129D01*
X4314850Y2769768D01*
X4313682Y2775661D01*
X4312818Y2781706D01*
X4312259Y2787853D01*
X4311904Y2800248D01*
X4208230Y2800248D01*
X4207560Y2795879D01*
X4207256Y2789021D01*
X4207560Y2782214D01*
X4208526Y2775915D01*
X4210100Y2770174D01*
X4212183Y2765044D01*
X4214825Y2760472D01*
X4217873Y2756560D01*
X4221378Y2753309D01*
X4225290Y2750718D01*
X4229455Y2748838D01*
X4233976Y2747670D01*
X4238752Y2747264D01*
X4243679Y2747568D01*
X4248810Y2748737D01*
X4254042Y2750667D01*
X4259376Y2753461D01*
X4264761Y2757119D01*
X4270349Y2761234D01*
X4275124Y2764231D01*
X4279290Y2766212D01*
X4282998Y2767177D01*
X4286351Y2767177D01*
X4289552Y2766161D01*
X4292752Y2764180D01*
X4296105Y2761284D01*
X4298696Y2758236D01*
X4300220Y2755188D01*
X4300728Y2752140D01*
X4300270Y2749143D01*
X4298899Y2746248D01*
X4296714Y2743403D01*
X4293666Y2740761D01*
X4289856Y2738221D01*
X4285284Y2735834D01*
X4280103Y2733700D01*
X4274261Y2731820D01*
X4267809Y2730195D01*
X4260900Y2728874D01*
X4253433Y2727858D01*
X4245610Y2727198D01*
X4237329Y2726944D01*
X4231132Y2727045D01*
X4225137Y2727502D01*
X4219397Y2728366D01*
X4213961Y2729484D01*
X4208780Y2731008D01*
X4203903Y2732836D01*
X4199331Y2734970D01*
X4195013Y2737408D01*
X4191000Y2740202D01*
X4187291Y2743250D01*
X4183938Y2746603D01*
X4180890Y2750261D01*
X4178198Y2754172D01*
X4175810Y2758389D01*
X4173778Y2762859D01*
X4172102Y2767584D01*
X4170781Y2772562D01*
X4169816Y2777794D01*
X4169257Y2783281D01*
X4169054Y2789021D01*
X4165244Y2789021D01*
X4165244Y2726639D01*
X4134408Y2726740D01*
X4128820Y2727299D01*
X4124807Y2728620D01*
X4122165Y2730906D01*
X4120692Y2734462D01*
X4120134Y2739593D01*
X4120438Y2746552D01*
X4124299Y2784551D01*
X4102912Y2747314D01*
X4098645Y2740558D01*
X4094835Y2735326D01*
X4091381Y2731566D01*
X4088129Y2729331D01*
X4085031Y2728569D01*
X4081881Y2729331D01*
X4078681Y2731566D01*
X4075226Y2735326D01*
X4071416Y2740558D01*
X4067149Y2747314D01*
X4045762Y2784551D01*
X4049572Y2746857D01*
X4049826Y2740050D01*
X4049420Y2734970D01*
X4048150Y2731312D01*
X4045915Y2728874D01*
X4042613Y2727452D01*
X4038041Y2726791D01*
X4027678Y2726690D01*
X4023969Y2726994D01*
X4020921Y2727756D01*
X4018483Y2729230D01*
X4016552Y2731516D01*
X4015079Y2734919D01*
X4014012Y2739542D01*
X4013250Y2745689D01*
X4012793Y2753461D01*
X4012488Y2774950D01*
X4012437Y2851404D01*
X4001008Y2851404D01*
X4001008Y2717698D01*
X4459325Y2717698D01*
X4459325Y2860344D01*
G37*
G36*
X3546551Y2857550D02*
G01*
X3545179Y2857449D01*
X3543808Y2856788D01*
X3542436Y2855569D01*
X3541115Y2853690D01*
X3539896Y2851251D01*
X3538677Y2848152D01*
X3536543Y2840024D01*
X3534816Y2829306D01*
X3533546Y2815844D01*
X3531209Y2780284D01*
X3494938Y2821838D01*
X3484676Y2832862D01*
X3475837Y2841396D01*
X3471875Y2844698D01*
X3468217Y2847340D01*
X3464915Y2849321D01*
X3461867Y2850692D01*
X3459124Y2851404D01*
X3456635Y2851404D01*
X3454400Y2850794D01*
X3452368Y2849473D01*
X3450640Y2847492D01*
X3449065Y2844800D01*
X3447745Y2841447D01*
X3446627Y2837383D01*
X3444900Y2827121D01*
X3443884Y2814066D01*
X3443376Y2798114D01*
X3443376Y2776474D01*
X3443833Y2756560D01*
X3444240Y2748889D01*
X3444900Y2742641D01*
X3445713Y2737612D01*
X3446830Y2733751D01*
X3448202Y2730804D01*
X3449828Y2728772D01*
X3451860Y2727502D01*
X3454196Y2726791D01*
X3456889Y2726639D01*
X3460699Y2726944D01*
X3463645Y2728061D01*
X3465829Y2730093D01*
X3467354Y2733395D01*
X3468217Y2738018D01*
X3468471Y2744266D01*
X3468268Y2752242D01*
X3466998Y2770174D01*
X3466795Y2777032D01*
X3466896Y2782824D01*
X3467354Y2787548D01*
X3468166Y2791256D01*
X3469386Y2793898D01*
X3470960Y2795473D01*
X3473043Y2795981D01*
X3475532Y2795473D01*
X3478479Y2793898D01*
X3481984Y2791256D01*
X3485946Y2787548D01*
X3490468Y2782824D01*
X3501136Y2770174D01*
X3512515Y2755696D01*
X3521913Y2744520D01*
X3530142Y2735935D01*
X3533800Y2732582D01*
X3537204Y2729941D01*
X3540353Y2727909D01*
X3543249Y2726588D01*
X3545890Y2725928D01*
X3548329Y2725928D01*
X3550513Y2726588D01*
X3552444Y2727960D01*
X3554222Y2729992D01*
X3555746Y2732735D01*
X3557117Y2736138D01*
X3558235Y2740253D01*
X3559251Y2745079D01*
X3560673Y2756865D01*
X3561486Y2771495D01*
X3561740Y2789021D01*
X3561384Y2804007D01*
X3560419Y2817317D01*
X3558895Y2828899D01*
X3556965Y2838653D01*
X3554628Y2846476D01*
X3553409Y2849626D01*
X3552088Y2852318D01*
X3550716Y2854452D01*
X3549345Y2856026D01*
X3547973Y2857042D01*
G37*
G36*
X3878783Y2851404D02*
G01*
X3878783Y2726639D01*
X3943299Y2726791D01*
X3953510Y2727299D01*
X3962603Y2728112D01*
X3970426Y2729179D01*
X3976827Y2730449D01*
X3981653Y2731973D01*
X3984650Y2733700D01*
X3985717Y2735529D01*
X3984955Y2737307D01*
X3982720Y2738983D01*
X3979164Y2740507D01*
X3974490Y2741828D01*
X3968851Y2742895D01*
X3962349Y2743758D01*
X3955186Y2744266D01*
X3935628Y2744520D01*
X3926535Y2744978D01*
X3919778Y2745994D01*
X3915054Y2747772D01*
X3912006Y2750515D01*
X3910279Y2754477D01*
X3909517Y2759811D01*
X3909314Y2766720D01*
X3909517Y2773273D01*
X3910228Y2778455D01*
X3911600Y2782366D01*
X3913886Y2785211D01*
X3917289Y2787091D01*
X3922014Y2788259D01*
X3928160Y2788869D01*
X3936034Y2789021D01*
X3946448Y2789732D01*
X3954932Y2791612D01*
X3960672Y2794457D01*
X3962806Y2797911D01*
X3960672Y2801366D01*
X3954932Y2804210D01*
X3946448Y2806141D01*
X3923995Y2807614D01*
X3915664Y2810002D01*
X3910888Y2814167D01*
X3909314Y2820212D01*
X3909771Y2823667D01*
X3911244Y2826562D01*
X3913784Y2828899D01*
X3917594Y2830677D01*
X3922776Y2831998D01*
X3929379Y2832912D01*
X3937609Y2833420D01*
X3955186Y2833776D01*
X3962349Y2834284D01*
X3968851Y2835097D01*
X3974490Y2836214D01*
X3979164Y2837535D01*
X3982720Y2839008D01*
X3984955Y2840685D01*
X3985717Y2842514D01*
X3984650Y2844342D01*
X3981653Y2846019D01*
X3976827Y2847543D01*
X3970426Y2848864D01*
X3962603Y2849930D01*
X3953510Y2850743D01*
X3943299Y2851251D01*
G37*
G36*
X3737457Y2851404D02*
G01*
X3737457Y2778810D01*
X3764178Y2778810D01*
X3764178Y2789021D01*
X3764432Y2795828D01*
X3765143Y2802178D01*
X3766261Y2808071D01*
X3767785Y2813507D01*
X3769715Y2818434D01*
X3771950Y2822905D01*
X3774541Y2826816D01*
X3777386Y2830169D01*
X3780536Y2833014D01*
X3783888Y2835249D01*
X3787444Y2836926D01*
X3791153Y2837992D01*
X3795014Y2838450D01*
X3799027Y2838246D01*
X3803091Y2837434D01*
X3807206Y2835910D01*
X3811371Y2833725D01*
X3815537Y2830830D01*
X3819702Y2827223D01*
X3823766Y2822905D01*
X3827322Y2818180D01*
X3830167Y2813304D01*
X3832402Y2808224D01*
X3833977Y2803042D01*
X3834892Y2797810D01*
X3835247Y2792526D01*
X3835044Y2787294D01*
X3834231Y2782163D01*
X3832910Y2777134D01*
X3831082Y2772257D01*
X3828796Y2767634D01*
X3826001Y2763316D01*
X3822750Y2759303D01*
X3819093Y2755646D01*
X3815029Y2752445D01*
X3810558Y2749702D01*
X3805783Y2747467D01*
X3800601Y2745790D01*
X3795166Y2744774D01*
X3789375Y2744419D01*
X3778808Y2744673D01*
X3774846Y2745130D01*
X3771696Y2746095D01*
X3769207Y2747670D01*
X3767328Y2750058D01*
X3766007Y2753309D01*
X3765143Y2757678D01*
X3764584Y2763266D01*
X3764178Y2778810D01*
X3737457Y2778810D01*
X3737457Y2726639D01*
X3784193Y2726893D01*
X3792118Y2727248D01*
X3799484Y2727858D01*
X3806240Y2728722D01*
X3812489Y2729839D01*
X3818178Y2731211D01*
X3823360Y2732938D01*
X3828034Y2734970D01*
X3832199Y2737307D01*
X3835958Y2739999D01*
X3839260Y2743047D01*
X3842156Y2746451D01*
X3844594Y2750261D01*
X3846677Y2754477D01*
X3848404Y2759100D01*
X3849725Y2764180D01*
X3850792Y2769666D01*
X3851503Y2775610D01*
X3851910Y2782062D01*
X3851910Y2795930D01*
X3851503Y2802382D01*
X3850792Y2808325D01*
X3849725Y2813862D01*
X3848404Y2818892D01*
X3846677Y2823514D01*
X3844594Y2827731D01*
X3842156Y2831541D01*
X3839260Y2834995D01*
X3835958Y2838043D01*
X3832199Y2840736D01*
X3828034Y2843072D01*
X3823360Y2845104D01*
X3818178Y2846781D01*
X3812489Y2848203D01*
X3806240Y2849321D01*
X3799484Y2850184D01*
X3792118Y2850794D01*
X3775659Y2851302D01*
G37*
G36*
X3649979Y2848305D02*
G01*
X3644239Y2847898D01*
X3638448Y2847035D01*
X3632504Y2845663D01*
X3626510Y2843834D01*
X3620465Y2841498D01*
X3614420Y2838653D01*
X3609949Y2836164D01*
X3605834Y2833420D01*
X3602075Y2830474D01*
X3598722Y2827324D01*
X3595776Y2823972D01*
X3593134Y2820466D01*
X3590848Y2816809D01*
X3588918Y2812999D01*
X3587343Y2809087D01*
X3586073Y2805125D01*
X3585159Y2801061D01*
X3584549Y2796946D01*
X3584295Y2792780D01*
X3584340Y2789021D01*
X3611422Y2789021D01*
X3611676Y2795168D01*
X3612489Y2800959D01*
X3613810Y2806344D01*
X3615639Y2811322D01*
X3617823Y2815844D01*
X3620465Y2819908D01*
X3623411Y2823565D01*
X3626662Y2826664D01*
X3630168Y2829306D01*
X3633927Y2831388D01*
X3637889Y2832963D01*
X3642004Y2833979D01*
X3646220Y2834386D01*
X3650538Y2834182D01*
X3654856Y2833420D01*
X3659225Y2831998D01*
X3663492Y2829915D01*
X3667709Y2827172D01*
X3671824Y2823718D01*
X3675786Y2819552D01*
X3679088Y2815183D01*
X3681780Y2810611D01*
X3683914Y2805836D01*
X3685438Y2800908D01*
X3686403Y2795930D01*
X3686860Y2790901D01*
X3686759Y2785872D01*
X3686149Y2780893D01*
X3685082Y2776067D01*
X3683508Y2771394D01*
X3681526Y2766923D01*
X3679139Y2762758D01*
X3676294Y2758846D01*
X3673094Y2755341D01*
X3669537Y2752191D01*
X3665575Y2749550D01*
X3661359Y2747365D01*
X3656787Y2745790D01*
X3651910Y2744774D01*
X3646779Y2744419D01*
X3641344Y2744774D01*
X3636314Y2745790D01*
X3631742Y2747416D01*
X3627577Y2749702D01*
X3623868Y2752547D01*
X3620617Y2756052D01*
X3617823Y2760167D01*
X3615537Y2764840D01*
X3613759Y2770073D01*
X3612438Y2775864D01*
X3611676Y2782163D01*
X3611422Y2789021D01*
X3584340Y2789021D01*
X3584651Y2784348D01*
X3586226Y2776016D01*
X3588969Y2767888D01*
X3590747Y2763926D01*
X3595115Y2756357D01*
X3597706Y2752750D01*
X3600551Y2749296D01*
X3603599Y2746044D01*
X3610457Y2740101D01*
X3614267Y2737459D01*
X3618280Y2735072D01*
X3622497Y2732938D01*
X3626916Y2731058D01*
X3631539Y2729534D01*
X3636365Y2728264D01*
X3641394Y2727350D01*
X3646627Y2726791D01*
X3652012Y2726639D01*
X3657295Y2726994D01*
X3662629Y2728061D01*
X3667861Y2729788D01*
X3673043Y2732176D01*
X3678123Y2735072D01*
X3682949Y2738475D01*
X3687572Y2742336D01*
X3691940Y2746603D01*
X3695954Y2751175D01*
X3699560Y2756103D01*
X3702761Y2761284D01*
X3705504Y2766618D01*
X3707688Y2772156D01*
X3709314Y2777744D01*
X3710381Y2783382D01*
X3710686Y2789021D01*
X3710482Y2795117D01*
X3709720Y2800908D01*
X3708552Y2806446D01*
X3706926Y2811678D01*
X3704894Y2816606D01*
X3702507Y2821228D01*
X3699713Y2825496D01*
X3696563Y2829458D01*
X3693058Y2833065D01*
X3689248Y2836367D01*
X3685133Y2839212D01*
X3680764Y2841752D01*
X3676142Y2843885D01*
X3671315Y2845612D01*
X3666236Y2846933D01*
X3661003Y2847797D01*
X3655568Y2848305D01*
G37*
D11*
X3291199Y2477515D02*
G01*
X3291199Y2368550D01*
X3291199Y2477515D02*
G01*
X3327521Y2477515D01*
X3343269Y2472436D01*
X3353429Y2462021D01*
X3358763Y2451607D01*
X3363843Y2435860D01*
X3363843Y2409952D01*
X3358763Y2394457D01*
X3353429Y2384044D01*
X3343269Y2373629D01*
X3327521Y2368550D01*
X3291199Y2368550D01*
X3398133Y2456687D02*
G01*
X3408547Y2462021D01*
X3424295Y2477515D01*
X3424295Y2368550D01*
D18*
X3570599Y2046478D02*
G01*
X3570599Y1998726D01*
X3570599Y2046478D02*
G01*
X3591173Y2046478D01*
X3597777Y2044192D01*
X3600063Y2041905D01*
X3602349Y2037587D01*
X3602349Y2033015D01*
X3600063Y2028444D01*
X3597777Y2026157D01*
X3591173Y2023871D01*
X3570599Y2023871D02*
G01*
X3591173Y2023871D01*
X3597777Y2021586D01*
X3600063Y2019300D01*
X3602349Y2014728D01*
X3602349Y2007870D01*
X3600063Y2003297D01*
X3597777Y2001012D01*
X3591173Y1998726D01*
X3570599Y1998726D01*
X3414135Y2035302D02*
G01*
X3411849Y2039873D01*
X3407277Y2044192D01*
X3402705Y2046478D01*
X3393815Y2046478D01*
X3389243Y2044192D01*
X3384671Y2039873D01*
X3382385Y2035302D01*
X3380099Y2028444D01*
X3380099Y2017013D01*
X3382385Y2010155D01*
X3384671Y2005584D01*
X3389243Y2001012D01*
X3393815Y1998726D01*
X3402705Y1998726D01*
X3407277Y2001012D01*
X3411849Y2005584D01*
X3414135Y2010155D01*
X3414135Y2017013D01*
X3402705Y2017013D02*
G01*
X3414135Y2017013D01*
X3185535Y2035302D02*
G01*
X3183249Y2039873D01*
X3178677Y2044192D01*
X3174105Y2046478D01*
X3165215Y2046478D01*
X3160643Y2044192D01*
X3156071Y2039873D01*
X3153785Y2035302D01*
X3151499Y2028444D01*
X3151499Y2017013D01*
X3153785Y2010155D01*
X3156071Y2005584D01*
X3160643Y2001012D01*
X3165215Y1998726D01*
X3174105Y1998726D01*
X3178677Y2001012D01*
X3183249Y2005584D01*
X3185535Y2010155D01*
X3185535Y2017013D01*
X3174105Y2017013D02*
G01*
X3185535Y2017013D01*
X3200521Y2046478D02*
G01*
X3200521Y1998726D01*
X3200521Y2046478D02*
G01*
X3232525Y1998726D01*
X3232525Y2046478D02*
G01*
X3232525Y1998726D01*
X3247511Y2046478D02*
G01*
X3247511Y1998726D01*
X3247511Y2046478D02*
G01*
X3263259Y2046478D01*
X3270117Y2044192D01*
X3274689Y2039873D01*
X3276975Y2035302D01*
X3279261Y2028444D01*
X3279261Y2017013D01*
X3276975Y2010155D01*
X3274689Y2005584D01*
X3270117Y2001012D01*
X3263259Y1998726D01*
X3247511Y1998726D01*
X3011799Y2046478D02*
G01*
X3011799Y1998726D01*
X3011799Y2046478D02*
G01*
X3032373Y2046478D01*
X3038977Y2044192D01*
X3041263Y2041905D01*
X3043549Y2037587D01*
X3043549Y2033015D01*
X3041263Y2028444D01*
X3038977Y2026157D01*
X3032373Y2023871D01*
X3011799Y2023871D01*
X3027801Y2023871D02*
G01*
X3043549Y1998726D01*
D11*
X4978400Y2210815D02*
G01*
X4978400Y2101850D01*
X4978400Y2210815D02*
G01*
X5014722Y2210815D01*
X5030470Y2205736D01*
X5040629Y2195321D01*
X5045963Y2184907D01*
X5051043Y2169160D01*
X5051043Y2143252D01*
X5045963Y2127757D01*
X5040629Y2117344D01*
X5030470Y2106929D01*
X5014722Y2101850D01*
X4978400Y2101850D01*
X5090668Y2184907D02*
G01*
X5090668Y2189987D01*
X5095747Y2200402D01*
X5101081Y2205736D01*
X5111495Y2210815D01*
X5132070Y2210815D01*
X5142484Y2205736D01*
X5147818Y2200402D01*
X5152897Y2189987D01*
X5152897Y2179573D01*
X5147818Y2169160D01*
X5137404Y2153665D01*
X5085334Y2101850D01*
X5158231Y2101850D01*
D18*
X4777099Y2059178D02*
G01*
X4777099Y2011426D01*
X4777099Y2059178D02*
G01*
X4797673Y2059178D01*
X4804277Y2056892D01*
X4806563Y2054605D01*
X4808849Y2050287D01*
X4808849Y2045715D01*
X4806563Y2041144D01*
X4804277Y2038857D01*
X4797673Y2036571D01*
X4777099Y2036571D02*
G01*
X4797673Y2036571D01*
X4804277Y2034286D01*
X4806563Y2032000D01*
X4808849Y2027428D01*
X4808849Y2020570D01*
X4806563Y2015997D01*
X4804277Y2013712D01*
X4797673Y2011426D01*
X4777099Y2011426D01*
X4620635Y2048002D02*
G01*
X4618349Y2052573D01*
X4613777Y2056892D01*
X4609205Y2059178D01*
X4600315Y2059178D01*
X4595743Y2056892D01*
X4591171Y2052573D01*
X4588885Y2048002D01*
X4586599Y2041144D01*
X4586599Y2029713D01*
X4588885Y2022855D01*
X4591171Y2018284D01*
X4595743Y2013712D01*
X4600315Y2011426D01*
X4609205Y2011426D01*
X4613777Y2013712D01*
X4618349Y2018284D01*
X4620635Y2022855D01*
X4620635Y2029713D01*
X4609205Y2029713D02*
G01*
X4620635Y2029713D01*
X4392035Y2048002D02*
G01*
X4389749Y2052573D01*
X4385177Y2056892D01*
X4380605Y2059178D01*
X4371715Y2059178D01*
X4367143Y2056892D01*
X4362571Y2052573D01*
X4360285Y2048002D01*
X4357999Y2041144D01*
X4357999Y2029713D01*
X4360285Y2022855D01*
X4362571Y2018284D01*
X4367143Y2013712D01*
X4371715Y2011426D01*
X4380605Y2011426D01*
X4385177Y2013712D01*
X4389749Y2018284D01*
X4392035Y2022855D01*
X4392035Y2029713D01*
X4380605Y2029713D02*
G01*
X4392035Y2029713D01*
X4407021Y2059178D02*
G01*
X4407021Y2011426D01*
X4407021Y2059178D02*
G01*
X4439025Y2011426D01*
X4439025Y2059178D02*
G01*
X4439025Y2011426D01*
X4454011Y2059178D02*
G01*
X4454011Y2011426D01*
X4454011Y2059178D02*
G01*
X4469759Y2059178D01*
X4476617Y2056892D01*
X4481189Y2052573D01*
X4483475Y2048002D01*
X4485761Y2041144D01*
X4485761Y2029713D01*
X4483475Y2022855D01*
X4481189Y2018284D01*
X4476617Y2013712D01*
X4469759Y2011426D01*
X4454011Y2011426D01*
X4218299Y2059178D02*
G01*
X4218299Y2011426D01*
X4218299Y2059178D02*
G01*
X4238873Y2059178D01*
X4245477Y2056892D01*
X4247763Y2054605D01*
X4250049Y2050287D01*
X4250049Y2045715D01*
X4247763Y2041144D01*
X4245477Y2038857D01*
X4238873Y2036571D01*
X4218299Y2036571D01*
X4234301Y2036571D02*
G01*
X4250049Y2011426D01*
D11*
X7353980Y2296032D02*
G01*
X7289932Y2207877D01*
X7353980Y2296032D02*
G01*
X7383365Y2274684D01*
X7393122Y2261316D01*
X7395220Y2246919D01*
X7393414Y2235360D01*
X7388268Y2219632D01*
X7373038Y2198672D01*
X7359822Y2189124D01*
X7349385Y2183833D01*
X7335045Y2181382D01*
X7319317Y2186528D01*
X7289932Y2207877D01*
X7448918Y2227056D02*
G01*
X7495153Y2193465D01*
X7445598Y2177978D01*
X7458133Y2168872D01*
X7463574Y2158641D01*
X7464696Y2151545D01*
X7459756Y2135670D01*
X7453635Y2127244D01*
X7440211Y2117844D01*
X7425664Y2115540D01*
X7410145Y2120539D01*
X7397610Y2129645D01*
X7387854Y2143013D01*
X7386731Y2150107D01*
X7388537Y2161667D01*
D18*
X7326663Y1783087D02*
G01*
X7298596Y1744456D01*
X7326663Y1783087D02*
G01*
X7343307Y1770994D01*
X7347308Y1765264D01*
X7347813Y1762071D01*
X7347125Y1757235D01*
X7344435Y1753534D01*
X7339898Y1751180D01*
X7336706Y1750674D01*
X7330020Y1752706D01*
X7313376Y1764799D02*
G01*
X7330020Y1752706D01*
X7334018Y1746976D01*
X7334524Y1743783D01*
X7333686Y1738739D01*
X7329655Y1733191D01*
X7325118Y1730837D01*
X7321925Y1730331D01*
X7315240Y1732363D01*
X7298596Y1744456D01*
X7193511Y1866013D02*
G01*
X7194349Y1871057D01*
X7193188Y1877237D01*
X7190833Y1881774D01*
X7183640Y1886999D01*
X7178598Y1887837D01*
X7172363Y1887032D01*
X7167826Y1884677D01*
X7161944Y1880471D01*
X7155225Y1871225D01*
X7153046Y1864332D01*
X7152208Y1859290D01*
X7153219Y1852904D01*
X7155573Y1848368D01*
X7162766Y1843143D01*
X7167808Y1842305D01*
X7174194Y1843316D01*
X7178730Y1845670D01*
X7182761Y1851218D01*
X7173516Y1857936D02*
G01*
X7182761Y1851218D01*
X7008571Y2000382D02*
G01*
X7009409Y2005423D01*
X7008248Y2011606D01*
X7005891Y2016142D01*
X6998700Y2021367D01*
X6993658Y2022205D01*
X6987420Y2021400D01*
X6982884Y2019043D01*
X6977004Y2014839D01*
X6970285Y2005591D01*
X6968103Y1998700D01*
X6967265Y1993658D01*
X6968276Y1987273D01*
X6970633Y1982734D01*
X6977824Y1977509D01*
X6982866Y1976671D01*
X6989254Y1977684D01*
X6993790Y1980039D01*
X6997821Y1985586D01*
X6988573Y1992304D02*
G01*
X6997821Y1985586D01*
X7027263Y2000615D02*
G01*
X6999196Y1961982D01*
X7027263Y2000615D02*
G01*
X7025088Y1943171D01*
X7053155Y1981804D02*
G01*
X7025088Y1943171D01*
X7065279Y1972995D02*
G01*
X7037212Y1934362D01*
X7065279Y1972995D02*
G01*
X7078019Y1963737D01*
X7082223Y1957857D01*
X7083384Y1951677D01*
X7082546Y1946635D01*
X7080366Y1939742D01*
X7073645Y1930496D01*
X7067765Y1926290D01*
X7063229Y1923935D01*
X7056843Y1922924D01*
X7049952Y1925106D01*
X7037212Y1934362D01*
X6874583Y2111542D02*
G01*
X6846516Y2072911D01*
X6874583Y2111542D02*
G01*
X6891228Y2099449D01*
X6895228Y2093719D01*
X6895734Y2090526D01*
X6895045Y2085687D01*
X6892358Y2081989D01*
X6887822Y2079635D01*
X6884629Y2079129D01*
X6877941Y2081161D01*
X6861296Y2093254D01*
X6874243Y2083849D02*
G01*
X6872203Y2054247D01*
D11*
X7032889Y3813644D02*
G01*
X6965802Y3727775D01*
X7032889Y3813644D02*
G01*
X7061509Y3791282D01*
X7070791Y3777581D01*
X7072386Y3763121D01*
X7070178Y3751630D01*
X7064486Y3736093D01*
X7048535Y3715677D01*
X7034992Y3706596D01*
X7024380Y3701674D01*
X7009960Y3699720D01*
X6994423Y3705412D01*
X6965802Y3727775D01*
X7158182Y3715750D02*
G01*
X7072426Y3690561D01*
X7133877Y3642555D01*
X7158182Y3715750D02*
G01*
X7091098Y3629886D01*
D18*
X6987684Y3301964D02*
G01*
X6958286Y3264334D01*
X6987684Y3301964D02*
G01*
X7003897Y3289297D01*
X7007692Y3283432D01*
X7008088Y3280222D01*
X7007230Y3275413D01*
X7004415Y3271809D01*
X6999798Y3269612D01*
X6996592Y3269218D01*
X6989978Y3271484D01*
X6973768Y3284151D02*
G01*
X6989978Y3271484D01*
X6993775Y3265617D01*
X6994169Y3262409D01*
X6993155Y3257397D01*
X6988934Y3251995D01*
X6984316Y3249797D01*
X6981111Y3249404D01*
X6974499Y3251669D01*
X6958286Y3264334D01*
X6857509Y3389487D02*
G01*
X6858520Y3394496D01*
X6857578Y3400714D01*
X6855381Y3405332D01*
X6848378Y3410803D01*
X6843364Y3411819D01*
X6837105Y3411230D01*
X6832488Y3409033D01*
X6826465Y3405037D01*
X6819427Y3396030D01*
X6817006Y3389218D01*
X6815993Y3384209D01*
X6816783Y3377791D01*
X6818977Y3373175D01*
X6825983Y3367699D01*
X6830992Y3366688D01*
X6837410Y3367476D01*
X6842028Y3369670D01*
X6846249Y3375075D01*
X6837243Y3382114D02*
G01*
X6846249Y3375075D01*
X6677370Y3530226D02*
G01*
X6678381Y3535238D01*
X6677439Y3541455D01*
X6675244Y3546071D01*
X6668236Y3551542D01*
X6663225Y3552558D01*
X6656966Y3551969D01*
X6652351Y3549774D01*
X6646326Y3545779D01*
X6639290Y3536769D01*
X6636870Y3529959D01*
X6635854Y3524948D01*
X6636641Y3518529D01*
X6638836Y3513914D01*
X6645843Y3508443D01*
X6650855Y3507427D01*
X6657271Y3508214D01*
X6661889Y3510409D01*
X6666110Y3515817D01*
X6657103Y3522853D02*
G01*
X6666110Y3515817D01*
X6696059Y3529807D02*
G01*
X6666659Y3492179D01*
X6696059Y3529807D02*
G01*
X6691878Y3472474D01*
X6721276Y3510102D02*
G01*
X6691878Y3472474D01*
X6733087Y3500879D02*
G01*
X6703687Y3463246D01*
X6733087Y3500879D02*
G01*
X6745498Y3491181D01*
X6749493Y3485159D01*
X6750438Y3478941D01*
X6749422Y3473932D01*
X6747002Y3467120D01*
X6739966Y3458113D01*
X6733941Y3454115D01*
X6729326Y3451920D01*
X6722910Y3451133D01*
X6716097Y3453554D01*
X6703687Y3463246D01*
X6547345Y3645997D02*
G01*
X6517944Y3608367D01*
X6547345Y3645997D02*
G01*
X6563555Y3633330D01*
X6567352Y3627462D01*
X6567746Y3624252D01*
X6566888Y3619444D01*
X6564073Y3615842D01*
X6559458Y3613645D01*
X6556250Y3613251D01*
X6549638Y3615514D01*
X6533426Y3628181D01*
X6546034Y3618331D02*
G01*
X6542963Y3588819D01*
D11*
X6474086Y5363042D02*
G01*
X6407000Y5277177D01*
X6474086Y5363042D02*
G01*
X6502709Y5340680D01*
X6511991Y5326981D01*
X6513586Y5312521D01*
X6511378Y5301030D01*
X6505686Y5285493D01*
X6489735Y5265077D01*
X6476192Y5255996D01*
X6465577Y5251074D01*
X6451160Y5249123D01*
X6435623Y5254815D01*
X6407000Y5277177D01*
X6607591Y5258739D02*
G01*
X6566557Y5290797D01*
X6533781Y5257096D01*
X6540914Y5257970D01*
X6556606Y5252478D01*
X6568815Y5242940D01*
X6577741Y5229197D01*
X6579692Y5214780D01*
X6574200Y5199085D01*
X6567789Y5190881D01*
X6554045Y5181955D01*
X6539428Y5180159D01*
X6524091Y5185694D01*
X6511881Y5195234D01*
X6502600Y5208932D01*
X6501724Y5216062D01*
X6503934Y5227553D01*
D18*
X6428884Y4851364D02*
G01*
X6399484Y4813736D01*
X6428884Y4851364D02*
G01*
X6445097Y4838697D01*
X6448892Y4832830D01*
X6449286Y4829622D01*
X6448430Y4824811D01*
X6445615Y4821209D01*
X6440998Y4819014D01*
X6437790Y4818618D01*
X6431178Y4820884D01*
X6414965Y4833551D02*
G01*
X6431178Y4820884D01*
X6434975Y4815017D01*
X6435369Y4811809D01*
X6434355Y4806797D01*
X6430134Y4801395D01*
X6425516Y4799197D01*
X6422308Y4798804D01*
X6415697Y4801069D01*
X6399484Y4813736D01*
X6298707Y4938887D02*
G01*
X6299720Y4943896D01*
X6298778Y4950114D01*
X6296581Y4954729D01*
X6289575Y4960203D01*
X6284567Y4961216D01*
X6278305Y4960630D01*
X6273688Y4958433D01*
X6267665Y4954437D01*
X6260627Y4945430D01*
X6258206Y4938618D01*
X6257193Y4933609D01*
X6257980Y4927191D01*
X6260177Y4922575D01*
X6267183Y4917102D01*
X6272192Y4916088D01*
X6278610Y4916876D01*
X6283225Y4919070D01*
X6287449Y4924475D01*
X6278443Y4931511D02*
G01*
X6287449Y4924475D01*
X6118567Y5079626D02*
G01*
X6119581Y5084638D01*
X6118639Y5090855D01*
X6116441Y5095471D01*
X6109436Y5100944D01*
X6104427Y5101958D01*
X6098166Y5101369D01*
X6093548Y5099174D01*
X6087526Y5095176D01*
X6080488Y5086169D01*
X6078067Y5079359D01*
X6077054Y5074348D01*
X6077841Y5067932D01*
X6080038Y5063314D01*
X6087043Y5057841D01*
X6092052Y5056827D01*
X6098471Y5057617D01*
X6103086Y5059812D01*
X6107310Y5065217D01*
X6098303Y5072253D02*
G01*
X6107310Y5065217D01*
X6137259Y5079207D02*
G01*
X6107859Y5041577D01*
X6137259Y5079207D02*
G01*
X6133078Y5021874D01*
X6162479Y5059504D02*
G01*
X6133078Y5021874D01*
X6174287Y5050276D02*
G01*
X6144887Y5012649D01*
X6174287Y5050276D02*
G01*
X6186695Y5040581D01*
X6190693Y5034559D01*
X6191638Y5028341D01*
X6190625Y5023330D01*
X6188204Y5016520D01*
X6181166Y5007513D01*
X6175143Y5003515D01*
X6170526Y5001320D01*
X6164110Y5000533D01*
X6157297Y5002954D01*
X6144887Y5012649D01*
X5988542Y5195397D02*
G01*
X5959144Y5157767D01*
X5988542Y5195397D02*
G01*
X6004755Y5182730D01*
X6008552Y5176862D01*
X6008946Y5173654D01*
X6008090Y5168844D01*
X6005276Y5165239D01*
X6000658Y5163045D01*
X5997450Y5162651D01*
X5990838Y5164917D01*
X5974626Y5177581D01*
X5987234Y5167731D02*
G01*
X5984163Y5138219D01*
D11*
X5721129Y7085614D02*
G01*
X5646813Y7005921D01*
X5721129Y7085614D02*
G01*
X5747692Y7060841D01*
X5755746Y7046386D01*
X5756074Y7031840D01*
X5752871Y7020585D01*
X5745848Y7005604D01*
X5728180Y6986658D01*
X5713895Y6978789D01*
X5702891Y6974812D01*
X5688360Y6974123D01*
X5673377Y6981149D01*
X5646813Y7005921D01*
X5834466Y6958738D02*
G01*
X5837666Y6969991D01*
X5829800Y6984276D01*
X5822182Y6991377D01*
X5807389Y6998228D01*
X5789030Y6993813D01*
X5767461Y6978505D01*
X5749792Y6959554D01*
X5739488Y6940684D01*
X5740001Y6925967D01*
X5747870Y6911682D01*
X5751769Y6908045D01*
X5766567Y6901195D01*
X5781286Y6901708D01*
X5795568Y6909574D01*
X5799206Y6913476D01*
X5806059Y6928274D01*
X5805543Y6942990D01*
X5797677Y6957275D01*
X5793775Y6960913D01*
X5778977Y6967763D01*
X5764260Y6967250D01*
X5749792Y6959554D01*
D18*
X5631500Y6579821D02*
G01*
X5598934Y6544896D01*
X5631500Y6579821D02*
G01*
X5646549Y6565788D01*
X5649818Y6559616D01*
X5649932Y6556385D01*
X5648657Y6551665D01*
X5645541Y6548323D01*
X5640750Y6546537D01*
X5637519Y6546425D01*
X5631131Y6549257D01*
X5616084Y6563288D02*
G01*
X5631131Y6549257D01*
X5634403Y6543080D01*
X5634515Y6539852D01*
X5633067Y6534947D01*
X5628391Y6529931D01*
X5623600Y6528147D01*
X5620369Y6528036D01*
X5613981Y6530868D01*
X5598934Y6544896D01*
X5509447Y6678358D02*
G01*
X5510895Y6683260D01*
X5510496Y6689537D01*
X5508713Y6694324D01*
X5502211Y6700387D01*
X5497306Y6701833D01*
X5491020Y6701795D01*
X5486227Y6700009D01*
X5479879Y6696555D01*
X5472084Y6688195D01*
X5469079Y6681619D01*
X5467634Y6676717D01*
X5467860Y6670253D01*
X5469643Y6665465D01*
X5476146Y6659402D01*
X5481048Y6657957D01*
X5487509Y6658180D01*
X5492300Y6659966D01*
X5496976Y6664980D01*
X5488617Y6672775D02*
G01*
X5496976Y6664980D01*
X5342262Y6834261D02*
G01*
X5343707Y6839163D01*
X5343309Y6845439D01*
X5341523Y6850230D01*
X5335023Y6856293D01*
X5330118Y6857740D01*
X5323832Y6857697D01*
X5319041Y6855914D01*
X5312691Y6852457D01*
X5304896Y6844098D01*
X5301889Y6837525D01*
X5300446Y6832620D01*
X5300670Y6826161D01*
X5302455Y6821370D01*
X5308955Y6815307D01*
X5313862Y6813859D01*
X5320322Y6814085D01*
X5325112Y6815871D01*
X5329788Y6820885D01*
X5321429Y6828680D02*
G01*
X5329788Y6820885D01*
X5360845Y6832213D02*
G01*
X5328277Y6797291D01*
X5360845Y6832213D02*
G01*
X5351683Y6775462D01*
X5384248Y6810387D02*
G01*
X5351683Y6775462D01*
X5395208Y6800166D02*
G01*
X5362643Y6765241D01*
X5395208Y6800166D02*
G01*
X5406725Y6789427D01*
X5410184Y6783077D01*
X5410583Y6776803D01*
X5409135Y6771899D01*
X5406133Y6765325D01*
X5398335Y6756966D01*
X5391985Y6753509D01*
X5387197Y6751726D01*
X5380733Y6751500D01*
X5374162Y6754502D01*
X5362643Y6765241D01*
X5222821Y6960923D02*
G01*
X5190253Y6925998D01*
X5222821Y6960923D02*
G01*
X5237866Y6946892D01*
X5241137Y6940715D01*
X5241251Y6937484D01*
X5239979Y6932767D01*
X5236860Y6929424D01*
X5232072Y6927639D01*
X5228838Y6927527D01*
X5222450Y6930359D01*
X5207406Y6944387D01*
X5219105Y6933478D02*
G01*
X5213474Y6904344D01*
D11*
X4885255Y8836312D02*
G01*
X4801783Y8766268D01*
X4885255Y8836312D02*
G01*
X4908600Y8808486D01*
X4914833Y8793157D01*
X4913386Y8778679D01*
X4908837Y8767899D01*
X4900038Y8753886D01*
X4880193Y8737234D01*
X4865057Y8731163D01*
X4853652Y8728557D01*
X4839144Y8729644D01*
X4825128Y8738443D01*
X4801783Y8766268D01*
X5000851Y8698552D02*
G01*
X4883906Y8668397D01*
X4953990Y8754397D02*
G01*
X5000851Y8698552D01*
D18*
X4734653Y8345213D02*
G01*
X4698075Y8314517D01*
X4734653Y8345213D02*
G01*
X4747879Y8329449D01*
X4750374Y8322924D01*
X4750092Y8319703D01*
X4748253Y8315175D01*
X4744750Y8312238D01*
X4739779Y8311050D01*
X4736558Y8311332D01*
X4730564Y8314921D01*
X4717338Y8330681D02*
G01*
X4730564Y8314921D01*
X4733058Y8308390D01*
X4732776Y8305172D01*
X4730742Y8300481D01*
X4725489Y8296074D01*
X4720516Y8294888D01*
X4717295Y8295167D01*
X4711298Y8298759D01*
X4698075Y8314517D01*
X4625520Y8457887D02*
G01*
X4627554Y8462578D01*
X4627923Y8468855D01*
X4626736Y8473828D01*
X4621022Y8480638D01*
X4616330Y8482670D01*
X4610084Y8483396D01*
X4605111Y8482208D01*
X4598390Y8479553D01*
X4589635Y8472205D01*
X4585850Y8466046D01*
X4583818Y8461357D01*
X4583254Y8454913D01*
X4584440Y8449942D01*
X4590155Y8443132D01*
X4594844Y8441100D01*
X4601288Y8440536D01*
X4606259Y8441723D01*
X4611512Y8446129D01*
X4604164Y8454887D02*
G01*
X4611512Y8446129D01*
X4478581Y8633005D02*
G01*
X4480613Y8637694D01*
X4480981Y8643973D01*
X4479795Y8648943D01*
X4474080Y8655753D01*
X4469391Y8657788D01*
X4463143Y8658514D01*
X4458172Y8657325D01*
X4451449Y8654669D01*
X4442691Y8647323D01*
X4438906Y8641163D01*
X4436874Y8636472D01*
X4436313Y8630033D01*
X4437499Y8625060D01*
X4443214Y8618250D01*
X4447905Y8616215D01*
X4454344Y8615652D01*
X4459315Y8616843D01*
X4464570Y8621250D01*
X4457222Y8630005D02*
G01*
X4464570Y8621250D01*
X4496775Y8628707D02*
G01*
X4460194Y8598014D01*
X4496775Y8628707D02*
G01*
X4480765Y8573498D01*
X4517344Y8604191D02*
G01*
X4480765Y8573498D01*
X4526978Y8592713D02*
G01*
X4490399Y8562017D01*
X4526978Y8592713D02*
G01*
X4537100Y8580648D01*
X4539757Y8573924D01*
X4539388Y8567648D01*
X4537354Y8562957D01*
X4533572Y8556800D01*
X4524816Y8549452D01*
X4518093Y8546795D01*
X4513122Y8545609D01*
X4506678Y8546170D01*
X4500521Y8549952D01*
X4490399Y8562017D01*
X4375467Y8773279D02*
G01*
X4338886Y8742583D01*
X4375467Y8773279D02*
G01*
X4388690Y8757518D01*
X4391182Y8750988D01*
X4390900Y8747767D01*
X4389064Y8743241D01*
X4385561Y8740302D01*
X4380590Y8739116D01*
X4377369Y8739398D01*
X4371373Y8742987D01*
X4358149Y8758745D01*
X4368434Y8746489D02*
G01*
X4359295Y8718262D01*
D11*
X2858485Y8870729D02*
G01*
X2938178Y8796413D01*
X2858485Y8870729D02*
G01*
X2883258Y8897292D01*
X2897713Y8905344D01*
X2912257Y8905674D01*
X2923512Y8902471D01*
X2938495Y8895448D01*
X2957441Y8877777D01*
X2965310Y8863497D01*
X2969287Y8852494D01*
X2969976Y8837960D01*
X2962950Y8822977D01*
X2938178Y8796413D01*
X2949257Y8968069D02*
G01*
X2942231Y8953085D01*
X2946384Y8942268D01*
X2954002Y8935166D01*
X2965081Y8931780D01*
X2976084Y8935760D01*
X2994004Y8947525D01*
X3008289Y8955394D01*
X3023006Y8955907D01*
X3034261Y8952704D01*
X3045777Y8941965D01*
X3049755Y8930962D01*
X3050006Y8923781D01*
X3042980Y8908801D01*
X3028950Y8893754D01*
X3014494Y8885702D01*
X3007314Y8885450D01*
X2996062Y8888653D01*
X2984545Y8899392D01*
X2980565Y8910396D01*
X2980049Y8925112D01*
X2986902Y8939911D01*
X2997390Y8958607D01*
X3000593Y8969862D01*
X2996440Y8980678D01*
X2988825Y8987782D01*
X2977743Y8991170D01*
X2963288Y8983113D01*
X2949257Y8968069D01*
D18*
X3364278Y8781102D02*
G01*
X3399203Y8748534D01*
X3364278Y8781102D02*
G01*
X3378309Y8796149D01*
X3384483Y8799418D01*
X3387717Y8799532D01*
X3392431Y8798260D01*
X3395779Y8795141D01*
X3397562Y8790350D01*
X3397674Y8787119D01*
X3394842Y8780731D01*
X3380811Y8765684D02*
G01*
X3394842Y8780731D01*
X3401019Y8784000D01*
X3404247Y8784115D01*
X3409152Y8782667D01*
X3414168Y8777991D01*
X3415952Y8773200D01*
X3416063Y8769972D01*
X3413231Y8763581D01*
X3399203Y8748534D01*
X3265744Y8659050D02*
G01*
X3260839Y8660495D01*
X3254565Y8660096D01*
X3249775Y8658311D01*
X3243712Y8651811D01*
X3242264Y8646906D01*
X3242307Y8640620D01*
X3244090Y8635829D01*
X3247547Y8629479D01*
X3255906Y8621684D01*
X3262482Y8618679D01*
X3267382Y8617234D01*
X3273846Y8617458D01*
X3278637Y8619243D01*
X3284697Y8625743D01*
X3286145Y8630648D01*
X3285916Y8637107D01*
X3284133Y8641897D01*
X3279119Y8646576D01*
X3271324Y8638217D02*
G01*
X3279119Y8646576D01*
X3109838Y8491862D02*
G01*
X3104936Y8493307D01*
X3098660Y8492909D01*
X3093869Y8491126D01*
X3087804Y8484623D01*
X3086361Y8479721D01*
X3086399Y8473429D01*
X3088185Y8468639D01*
X3091642Y8462291D01*
X3100001Y8454496D01*
X3106574Y8451491D01*
X3111479Y8450044D01*
X3117941Y8450270D01*
X3122729Y8452055D01*
X3128794Y8458558D01*
X3130237Y8463460D01*
X3130014Y8469922D01*
X3128230Y8474712D01*
X3123211Y8479388D01*
X3115419Y8471029D02*
G01*
X3123211Y8479388D01*
X3111883Y8510442D02*
G01*
X3146808Y8477877D01*
X3111883Y8510442D02*
G01*
X3168637Y8501283D01*
X3133712Y8533851D02*
G01*
X3168637Y8501283D01*
X3143933Y8544808D02*
G01*
X3178858Y8512243D01*
X3143933Y8544808D02*
G01*
X3154672Y8556327D01*
X3161019Y8559782D01*
X3167298Y8560183D01*
X3172200Y8558735D01*
X3178774Y8555730D01*
X3187136Y8547935D01*
X3190590Y8541588D01*
X3192376Y8536797D01*
X3192602Y8530336D01*
X3189597Y8523762D01*
X3178858Y8512243D01*
X2983176Y8372421D02*
G01*
X3018101Y8339856D01*
X2983176Y8372421D02*
G01*
X2997207Y8387468D01*
X3003382Y8390740D01*
X3006615Y8390851D01*
X3011332Y8389579D01*
X3014677Y8386460D01*
X3016460Y8381672D01*
X3016575Y8378438D01*
X3013740Y8372050D01*
X2999712Y8357003D01*
X3010623Y8368705D02*
G01*
X3039755Y8363074D01*
D11*
X2165525Y7109614D02*
G01*
X2247762Y7038124D01*
X2165525Y7109614D02*
G01*
X2189355Y7137026D01*
X2203523Y7145578D01*
X2218047Y7146414D01*
X2229406Y7143610D01*
X2244623Y7137110D01*
X2264176Y7120112D01*
X2272538Y7106114D01*
X2276899Y7095256D01*
X2278090Y7080755D01*
X2271595Y7065538D01*
X2247762Y7038124D01*
X2307422Y7217481D02*
G01*
X2315781Y7203483D01*
X2316807Y7188789D01*
X2310668Y7173597D01*
X2307170Y7169569D01*
X2292979Y7161375D01*
X2278288Y7160348D01*
X2263094Y7166488D01*
X2259261Y7169820D01*
X2250874Y7184179D01*
X2249848Y7198870D01*
X2256177Y7213897D01*
X2259677Y7217923D01*
X2273675Y7226284D01*
X2288369Y7227310D01*
X2307422Y7217481D01*
X2326975Y7200480D01*
X2343386Y7179485D01*
X2348247Y7161461D01*
X2341915Y7146434D01*
X2335085Y7138573D01*
X2320917Y7130023D01*
X2309726Y7133021D01*
D18*
X2674139Y7037694D02*
G01*
X2710177Y7006366D01*
X2674139Y7037694D02*
G01*
X2687634Y7053221D01*
X2693695Y7056706D01*
X2696918Y7056932D01*
X2701678Y7055822D01*
X2705127Y7052825D01*
X2707081Y7048098D01*
X2707304Y7044872D01*
X2704696Y7038390D01*
X2691201Y7022861D02*
G01*
X2704696Y7038390D01*
X2710754Y7041875D01*
X2713979Y7042099D01*
X2718930Y7040826D01*
X2724104Y7036325D01*
X2726057Y7031601D01*
X2726283Y7028378D01*
X2723677Y7021890D01*
X2710177Y7006366D01*
X2579923Y6912277D02*
G01*
X2574973Y6913549D01*
X2568714Y6912932D01*
X2563990Y6910984D01*
X2558158Y6904273D01*
X2556883Y6899323D01*
X2557142Y6893039D01*
X2559095Y6888314D01*
X2562771Y6882089D01*
X2571396Y6874591D01*
X2578072Y6871817D01*
X2583022Y6870542D01*
X2589471Y6870994D01*
X2594195Y6872945D01*
X2600027Y6879653D01*
X2601305Y6884603D01*
X2600853Y6891055D01*
X2598902Y6895779D01*
X2593726Y6900278D01*
X2586225Y6891652D02*
G01*
X2593726Y6900278D01*
X2429949Y6739750D02*
G01*
X2424998Y6741022D01*
X2418740Y6740405D01*
X2414013Y6738457D01*
X2408181Y6731746D01*
X2406909Y6726796D01*
X2407168Y6720514D01*
X2409118Y6715787D01*
X2412794Y6709564D01*
X2421420Y6702064D01*
X2428095Y6699290D01*
X2433048Y6698015D01*
X2439497Y6698467D01*
X2444221Y6700418D01*
X2450053Y6707129D01*
X2451328Y6712079D01*
X2450879Y6718528D01*
X2448925Y6723253D01*
X2443751Y6727751D01*
X2436253Y6719125D02*
G01*
X2443751Y6727751D01*
X2431346Y6758391D02*
G01*
X2467383Y6727065D01*
X2431346Y6758391D02*
G01*
X2488379Y6751215D01*
X2452342Y6782546D02*
G01*
X2488379Y6751215D01*
X2462174Y6793857D02*
G01*
X2498211Y6762529D01*
X2462174Y6793857D02*
G01*
X2472507Y6805742D01*
X2478730Y6809417D01*
X2484988Y6810034D01*
X2489939Y6808762D01*
X2496614Y6805985D01*
X2505240Y6798487D01*
X2508915Y6792262D01*
X2510866Y6787537D01*
X2511318Y6781088D01*
X2508544Y6774411D01*
X2498211Y6762529D01*
X2307534Y6615963D02*
G01*
X2343571Y6584635D01*
X2307534Y6615963D02*
G01*
X2321031Y6631487D01*
X2327087Y6634972D01*
X2330312Y6635198D01*
X2335072Y6634091D01*
X2338524Y6631094D01*
X2340472Y6626367D01*
X2340698Y6623141D01*
X2338092Y6616659D01*
X2324595Y6601129D01*
X2335090Y6613207D02*
G01*
X2364402Y6608594D01*
D11*
X1495198Y5274556D02*
G01*
X1585534Y5213624D01*
X1495198Y5274556D02*
G01*
X1515511Y5304670D01*
X1528528Y5314883D01*
X1542841Y5317484D01*
X1554459Y5316085D01*
X1570354Y5311490D01*
X1591835Y5297002D01*
X1601838Y5284124D01*
X1607489Y5273880D01*
X1610441Y5259633D01*
X1605846Y5243738D01*
X1585534Y5213624D01*
X1572262Y5351564D02*
G01*
X1573664Y5363179D01*
X1569623Y5384899D01*
X1659961Y5323967D01*
X1606128Y5439018D02*
G01*
X1601675Y5423331D01*
X1608909Y5405892D01*
X1627545Y5387192D01*
X1640390Y5378531D01*
X1664921Y5368109D01*
X1683590Y5368081D01*
X1696463Y5378084D01*
X1702290Y5386717D01*
X1706885Y5402615D01*
X1699861Y5419910D01*
X1681012Y5438754D01*
X1668167Y5447416D01*
X1643847Y5457692D01*
X1624970Y5457865D01*
X1611952Y5447652D01*
X1606128Y5439018D01*
D18*
X2008784Y5265158D02*
G01*
X2048370Y5238455D01*
X2008784Y5265158D02*
G01*
X2020290Y5282214D01*
X2025878Y5286410D01*
X2029051Y5287027D01*
X2033910Y5286509D01*
X2037699Y5283951D01*
X2040209Y5279499D01*
X2040829Y5276326D01*
X2039030Y5269572D01*
X2027524Y5252516D02*
G01*
X2039030Y5269572D01*
X2044618Y5273768D01*
X2047791Y5274386D01*
X2052861Y5273725D01*
X2058545Y5269890D01*
X2061057Y5265437D01*
X2061674Y5262265D01*
X2059876Y5255511D01*
X2048370Y5238455D01*
X1930554Y5129192D02*
G01*
X1925487Y5129855D01*
X1919351Y5128480D01*
X1914900Y5125966D01*
X1909927Y5118597D01*
X1909267Y5113530D01*
X1910288Y5107325D01*
X1912802Y5102870D01*
X1917207Y5097142D01*
X1926683Y5090749D01*
X1933648Y5088808D01*
X1938715Y5088148D01*
X1945063Y5089382D01*
X1949516Y5091894D01*
X1954486Y5099265D01*
X1955147Y5104333D01*
X1953915Y5110680D01*
X1951403Y5115130D01*
X1945716Y5118968D01*
X1939328Y5109491D02*
G01*
X1945716Y5118968D01*
X1802724Y4939675D02*
G01*
X1797654Y4940335D01*
X1791517Y4938961D01*
X1787067Y4936449D01*
X1782094Y4929078D01*
X1781434Y4924010D01*
X1782457Y4917805D01*
X1784969Y4913353D01*
X1789379Y4907625D01*
X1798853Y4901232D01*
X1805815Y4899291D01*
X1810885Y4898631D01*
X1817230Y4899863D01*
X1821685Y4902377D01*
X1826656Y4909746D01*
X1827319Y4914813D01*
X1826082Y4921163D01*
X1823570Y4925613D01*
X1817885Y4929449D01*
X1811494Y4919974D02*
G01*
X1817885Y4929449D01*
X1801837Y4958349D02*
G01*
X1841428Y4931646D01*
X1801837Y4958349D02*
G01*
X1859323Y4958179D01*
X1819734Y4984882D02*
G01*
X1859323Y4958179D01*
X1828116Y4997305D02*
G01*
X1867702Y4970602D01*
X1828116Y4997305D02*
G01*
X1836922Y5010360D01*
X1842650Y5014767D01*
X1848787Y5016144D01*
X1853857Y5015484D01*
X1860819Y5013543D01*
X1870295Y5007150D01*
X1874702Y5001422D01*
X1877214Y4996969D01*
X1878449Y4990622D01*
X1876508Y4983657D01*
X1867702Y4970602D01*
X1696305Y4801890D02*
G01*
X1735894Y4775189D01*
X1696305Y4801890D02*
G01*
X1707812Y4818946D01*
X1713400Y4823145D01*
X1716572Y4823762D01*
X1721431Y4823244D01*
X1725223Y4820686D01*
X1727733Y4816233D01*
X1728350Y4813061D01*
X1726552Y4806307D01*
X1715048Y4789251D01*
X1723997Y4802515D02*
G01*
X1753651Y4801511D01*
D11*
X1120267Y3721780D02*
G01*
X1208420Y3657732D01*
X1120267Y3721780D02*
G01*
X1141615Y3751165D01*
X1154983Y3760919D01*
X1169377Y3763017D01*
X1180939Y3761214D01*
X1196665Y3756065D01*
X1217625Y3740838D01*
X1227175Y3727620D01*
X1232466Y3717185D01*
X1234917Y3702845D01*
X1229771Y3687117D01*
X1208420Y3657732D01*
X1199972Y3796050D02*
G01*
X1201778Y3807612D01*
X1198498Y3829458D01*
X1286654Y3765410D01*
X1235504Y3844955D02*
G01*
X1237310Y3856517D01*
X1233881Y3878158D01*
X1322036Y3814112D01*
D18*
X1633212Y3694463D02*
G01*
X1671843Y3666396D01*
X1633212Y3694463D02*
G01*
X1645302Y3711107D01*
X1651035Y3715105D01*
X1654228Y3715613D01*
X1659067Y3714925D01*
X1662762Y3712237D01*
X1665119Y3707698D01*
X1665625Y3704506D01*
X1663590Y3697820D01*
X1651500Y3681173D02*
G01*
X1663590Y3697820D01*
X1669323Y3701818D01*
X1672516Y3702324D01*
X1677560Y3701488D01*
X1683105Y3697455D01*
X1685462Y3692918D01*
X1685970Y3689725D01*
X1683938Y3683038D01*
X1671843Y3666396D01*
X1550286Y3561313D02*
G01*
X1545242Y3562149D01*
X1539062Y3560988D01*
X1534525Y3558633D01*
X1529300Y3551443D01*
X1528460Y3546398D01*
X1529267Y3540163D01*
X1531625Y3535624D01*
X1535828Y3529746D01*
X1545074Y3523028D01*
X1551967Y3520846D01*
X1557009Y3520005D01*
X1563395Y3521019D01*
X1567931Y3523373D01*
X1573156Y3530566D01*
X1573997Y3535608D01*
X1572986Y3541994D01*
X1570629Y3546530D01*
X1565081Y3550561D01*
X1558361Y3541316D02*
G01*
X1565081Y3550561D01*
X1415917Y3376371D02*
G01*
X1410873Y3377206D01*
X1404696Y3376048D01*
X1400157Y3373694D01*
X1394932Y3366500D01*
X1394094Y3361458D01*
X1394901Y3355223D01*
X1397256Y3350684D01*
X1401460Y3344804D01*
X1410705Y3338085D01*
X1417599Y3335903D01*
X1422641Y3335065D01*
X1429026Y3336079D01*
X1433563Y3338433D01*
X1438788Y3345624D01*
X1439628Y3350666D01*
X1438617Y3357054D01*
X1436260Y3361588D01*
X1430713Y3365621D01*
X1423995Y3356373D02*
G01*
X1430713Y3365621D01*
X1415684Y3395063D02*
G01*
X1454315Y3366996D01*
X1415684Y3395063D02*
G01*
X1473128Y3392886D01*
X1434495Y3420955D02*
G01*
X1473128Y3392886D01*
X1443304Y3433079D02*
G01*
X1481937Y3405012D01*
X1443304Y3433079D02*
G01*
X1452562Y3445819D01*
X1458442Y3450023D01*
X1464622Y3451184D01*
X1469664Y3450348D01*
X1476557Y3448166D01*
X1485803Y3441448D01*
X1490009Y3435565D01*
X1492361Y3431029D01*
X1493375Y3424643D01*
X1491193Y3417750D01*
X1481937Y3405012D01*
X1304757Y3242386D02*
G01*
X1343388Y3214316D01*
X1304757Y3242386D02*
G01*
X1316850Y3259028D01*
X1322580Y3263028D01*
X1325773Y3263534D01*
X1330612Y3262845D01*
X1334310Y3260158D01*
X1336664Y3255619D01*
X1337172Y3252426D01*
X1335138Y3245741D01*
X1323045Y3229096D01*
X1332450Y3242043D02*
G01*
X1362052Y3240001D01*
D11*
X860968Y2224402D02*
G01*
X941946Y2151489D01*
X860968Y2224402D02*
G01*
X885273Y2251395D01*
X899586Y2259700D01*
X914125Y2260282D01*
X925431Y2257277D01*
X940534Y2250516D01*
X959789Y2233178D01*
X967902Y2219037D01*
X972073Y2208105D01*
X973015Y2193584D01*
X966251Y2178484D01*
X941946Y2151489D01*
X948001Y2289931D02*
G01*
X951006Y2301239D01*
X950028Y2323312D01*
X1031006Y2250399D01*
X995626Y2335232D02*
G01*
X991849Y2338631D01*
X987681Y2349563D01*
X987115Y2356909D01*
X990307Y2368049D01*
X1004244Y2383525D01*
X1014989Y2387866D01*
X1022352Y2388072D01*
X1033660Y2385067D01*
X1041400Y2378100D01*
X1045568Y2367165D01*
X1050114Y2349060D01*
X1053950Y2275880D01*
X1102558Y2329868D01*
D18*
X1368249Y2143617D02*
G01*
X1403733Y2111664D01*
X1368249Y2143617D02*
G01*
X1382013Y2158906D01*
X1388135Y2162284D01*
X1391363Y2162454D01*
X1396100Y2161263D01*
X1399496Y2158204D01*
X1401366Y2153445D01*
X1401533Y2150216D01*
X1398813Y2143780D01*
X1385049Y2128489D02*
G01*
X1398813Y2143780D01*
X1404932Y2147158D01*
X1408163Y2147326D01*
X1413088Y2145967D01*
X1418183Y2141377D01*
X1420053Y2136617D01*
X1420223Y2133389D01*
X1417502Y2126952D01*
X1403733Y2111664D01*
X1271859Y2019861D02*
G01*
X1266931Y2021222D01*
X1260665Y2020714D01*
X1255905Y2018847D01*
X1249956Y2012238D01*
X1248595Y2007313D01*
X1248745Y2001024D01*
X1250614Y1996269D01*
X1254180Y1989980D01*
X1262674Y1982332D01*
X1269301Y1979442D01*
X1274226Y1978080D01*
X1280683Y1978418D01*
X1285443Y1980288D01*
X1291391Y1986894D01*
X1292753Y1991822D01*
X1292415Y1998278D01*
X1290546Y2003038D01*
X1285450Y2007626D01*
X1277802Y1999132D02*
G01*
X1285450Y2007626D01*
X1118895Y1849981D02*
G01*
X1113970Y1851339D01*
X1107701Y1850831D01*
X1102941Y1848962D01*
X1096992Y1842358D01*
X1095634Y1837428D01*
X1095781Y1831144D01*
X1097650Y1826387D01*
X1101219Y1820097D01*
X1109713Y1812450D01*
X1116337Y1809559D01*
X1121265Y1808200D01*
X1127724Y1808535D01*
X1132479Y1810405D01*
X1138428Y1817011D01*
X1139789Y1821939D01*
X1139451Y1828396D01*
X1137582Y1833153D01*
X1132486Y1837743D01*
X1124838Y1829249D02*
G01*
X1132486Y1837743D01*
X1120617Y1868594D02*
G01*
X1156103Y1836643D01*
X1120617Y1868594D02*
G01*
X1177518Y1860425D01*
X1142032Y1892378D02*
G01*
X1177518Y1860425D01*
X1152060Y1903514D02*
G01*
X1187546Y1871563D01*
X1152060Y1903514D02*
G01*
X1162598Y1915218D01*
X1168885Y1918787D01*
X1175153Y1919295D01*
X1180081Y1917931D01*
X1186705Y1915043D01*
X1195199Y1907395D01*
X1198768Y1901108D01*
X1200637Y1896348D01*
X1200975Y1889892D01*
X1198084Y1883265D01*
X1187546Y1871563D01*
X994338Y1728348D02*
G01*
X1029825Y1696394D01*
X994338Y1728348D02*
G01*
X1008103Y1743636D01*
X1014221Y1747017D01*
X1017450Y1747184D01*
X1022189Y1745993D01*
X1025585Y1742932D01*
X1027455Y1738175D01*
X1027625Y1734946D01*
X1024905Y1728510D01*
X1011135Y1713219D01*
X1021844Y1725114D02*
G01*
X1051069Y1719988D01*
D11*
X4763515Y7848600D02*
G01*
X4654550Y7848600D01*
X4763515Y7848600D02*
G01*
X4763515Y7801863D01*
X4758436Y7786370D01*
X4753102Y7781036D01*
X4742688Y7775955D01*
X4732274Y7775955D01*
X4721859Y7781036D01*
X4716779Y7786370D01*
X4711700Y7801863D01*
X4711700Y7848600D01*
X4711700Y7812278D02*
G01*
X4654550Y7775955D01*
X4742688Y7741665D02*
G01*
X4748022Y7731252D01*
X4763515Y7715504D01*
X4654550Y7715504D01*
X4458715Y7937500D02*
G01*
X4349750Y7937500D01*
X4458715Y7937500D02*
G01*
X4458715Y7890763D01*
X4453636Y7875270D01*
X4448302Y7869936D01*
X4437888Y7864855D01*
X4427474Y7864855D01*
X4417059Y7869936D01*
X4411979Y7875270D01*
X4406900Y7890763D01*
X4406900Y7937500D01*
X4406900Y7901178D02*
G01*
X4349750Y7864855D01*
X4432808Y7825231D02*
G01*
X4437888Y7825231D01*
X4448302Y7820152D01*
X4453636Y7814818D01*
X4458715Y7804404D01*
X4458715Y7783829D01*
X4453636Y7773415D01*
X4448302Y7768081D01*
X4437888Y7763002D01*
X4427474Y7763002D01*
X4417059Y7768081D01*
X4401565Y7778495D01*
X4349750Y7830565D01*
X4349750Y7757668D01*
X4141215Y8140700D02*
G01*
X4032250Y8140700D01*
X4141215Y8140700D02*
G01*
X4141215Y8093963D01*
X4136136Y8078470D01*
X4130802Y8073136D01*
X4120388Y8068055D01*
X4109974Y8068055D01*
X4099559Y8073136D01*
X4094479Y8078470D01*
X4089400Y8093963D01*
X4089400Y8140700D01*
X4089400Y8104378D02*
G01*
X4032250Y8068055D01*
X4141215Y8023352D02*
G01*
X4141215Y7966202D01*
X4099559Y7997189D01*
X4099559Y7981695D01*
X4094479Y7971281D01*
X4089400Y7966202D01*
X4073652Y7960868D01*
X4063238Y7960868D01*
X4047743Y7966202D01*
X4037329Y7976615D01*
X4032250Y7992110D01*
X4032250Y8007604D01*
X4037329Y8023352D01*
X4042409Y8028431D01*
X4052824Y8033765D01*
X5741415Y5905500D02*
G01*
X5632450Y5905500D01*
X5741415Y5905500D02*
G01*
X5741415Y5858763D01*
X5736336Y5843270D01*
X5731002Y5837936D01*
X5720588Y5832855D01*
X5710174Y5832855D01*
X5699759Y5837936D01*
X5694679Y5843270D01*
X5689600Y5858763D01*
X5689600Y5905500D01*
X5689600Y5869178D02*
G01*
X5632450Y5832855D01*
X5741415Y5746495D02*
G01*
X5668772Y5798565D01*
X5668772Y5720587D01*
X5741415Y5746495D02*
G01*
X5632450Y5746495D01*
X4979415Y6350000D02*
G01*
X4870450Y6350000D01*
X4979415Y6350000D02*
G01*
X4979415Y6303263D01*
X4974336Y6287770D01*
X4969002Y6282436D01*
X4958588Y6277355D01*
X4948174Y6277355D01*
X4937759Y6282436D01*
X4932679Y6287770D01*
X4927600Y6303263D01*
X4927600Y6350000D01*
X4927600Y6313678D02*
G01*
X4870450Y6277355D01*
X4979415Y6180581D02*
G01*
X4979415Y6232652D01*
X4932679Y6237731D01*
X4937759Y6232652D01*
X4943093Y6216904D01*
X4943093Y6201410D01*
X4937759Y6185915D01*
X4927600Y6175502D01*
X4911852Y6170168D01*
X4901438Y6170168D01*
X4885943Y6175502D01*
X4875529Y6185915D01*
X4870450Y6201410D01*
X4870450Y6216904D01*
X4875529Y6232652D01*
X4880609Y6237731D01*
X4891024Y6243065D01*
X4700015Y6489700D02*
G01*
X4591050Y6489700D01*
X4700015Y6489700D02*
G01*
X4700015Y6442963D01*
X4694936Y6427470D01*
X4689602Y6422136D01*
X4679188Y6417055D01*
X4668774Y6417055D01*
X4658359Y6422136D01*
X4653279Y6427470D01*
X4648200Y6442963D01*
X4648200Y6489700D01*
X4648200Y6453378D02*
G01*
X4591050Y6417055D01*
X4684522Y6320281D02*
G01*
X4694936Y6325615D01*
X4700015Y6341110D01*
X4700015Y6351523D01*
X4694936Y6367018D01*
X4679188Y6377431D01*
X4653279Y6382765D01*
X4627372Y6382765D01*
X4606543Y6377431D01*
X4596129Y6367018D01*
X4591050Y6351523D01*
X4591050Y6346189D01*
X4596129Y6330695D01*
X4606543Y6320281D01*
X4622038Y6315202D01*
X4627372Y6315202D01*
X4642865Y6320281D01*
X4653279Y6330695D01*
X4658359Y6346189D01*
X4658359Y6351523D01*
X4653279Y6367018D01*
X4642865Y6377431D01*
X4627372Y6382765D01*
X5561584Y4940300D02*
G01*
X5670550Y4940300D01*
X5561584Y4940300D02*
G01*
X5561584Y4987036D01*
X5566663Y5002529D01*
X5571997Y5007863D01*
X5582411Y5012944D01*
X5592825Y5012944D01*
X5603240Y5007863D01*
X5608320Y5002529D01*
X5613400Y4987036D01*
X5613400Y4940300D01*
X5613400Y4976621D02*
G01*
X5670550Y5012944D01*
X5561584Y5120131D02*
G01*
X5670550Y5068062D01*
X5561584Y5047234D02*
G01*
X5561584Y5120131D01*
X5383784Y4673600D02*
G01*
X5492750Y4673600D01*
X5383784Y4673600D02*
G01*
X5383784Y4720336D01*
X5388863Y4735829D01*
X5394197Y4741163D01*
X5404611Y4746244D01*
X5415025Y4746244D01*
X5425440Y4741163D01*
X5430520Y4735829D01*
X5435600Y4720336D01*
X5435600Y4673600D01*
X5435600Y4709921D02*
G01*
X5492750Y4746244D01*
X5383784Y4806695D02*
G01*
X5388863Y4790947D01*
X5399277Y4785868D01*
X5409691Y4785868D01*
X5420106Y4790947D01*
X5425440Y4801362D01*
X5430520Y4822189D01*
X5435600Y4837684D01*
X5446013Y4848097D01*
X5456427Y4853431D01*
X5472175Y4853431D01*
X5482590Y4848097D01*
X5487670Y4843018D01*
X5492750Y4827270D01*
X5492750Y4806695D01*
X5487670Y4790947D01*
X5482590Y4785868D01*
X5472175Y4780534D01*
X5456427Y4780534D01*
X5446013Y4785868D01*
X5435600Y4796281D01*
X5430520Y4811776D01*
X5425440Y4832604D01*
X5420106Y4843018D01*
X5409691Y4848097D01*
X5399277Y4848097D01*
X5388863Y4843018D01*
X5383784Y4827270D01*
X5383784Y4806695D01*
X5129784Y4546600D02*
G01*
X5238750Y4546600D01*
X5129784Y4546600D02*
G01*
X5129784Y4593336D01*
X5134863Y4608829D01*
X5140197Y4614163D01*
X5150611Y4619244D01*
X5161025Y4619244D01*
X5171440Y4614163D01*
X5176520Y4608829D01*
X5181600Y4593336D01*
X5181600Y4546600D01*
X5181600Y4582921D02*
G01*
X5238750Y4619244D01*
X5166106Y4721097D02*
G01*
X5181600Y4716018D01*
X5192013Y4705604D01*
X5197347Y4690110D01*
X5197347Y4684776D01*
X5192013Y4669281D01*
X5181600Y4658868D01*
X5166106Y4653534D01*
X5161025Y4653534D01*
X5145277Y4658868D01*
X5134863Y4669281D01*
X5129784Y4684776D01*
X5129784Y4690110D01*
X5134863Y4705604D01*
X5145277Y4716018D01*
X5166106Y4721097D01*
X5192013Y4721097D01*
X5218175Y4716018D01*
X5233670Y4705604D01*
X5238750Y4690110D01*
X5238750Y4679695D01*
X5233670Y4663947D01*
X5223256Y4658868D01*
X3264915Y7785100D02*
G01*
X3155950Y7785100D01*
X3264915Y7785100D02*
G01*
X3264915Y7738363D01*
X3259836Y7722870D01*
X3254502Y7717536D01*
X3244088Y7712455D01*
X3233674Y7712455D01*
X3223259Y7717536D01*
X3218179Y7722870D01*
X3213100Y7738363D01*
X3213100Y7785100D01*
X3213100Y7748778D02*
G01*
X3155950Y7712455D01*
X3244088Y7678165D02*
G01*
X3249422Y7667752D01*
X3264915Y7652004D01*
X3155950Y7652004D01*
X3264915Y7586726D02*
G01*
X3259836Y7602220D01*
X3244088Y7612634D01*
X3218179Y7617713D01*
X3202686Y7617713D01*
X3176524Y7612634D01*
X3161029Y7602220D01*
X3155950Y7586726D01*
X3155950Y7576312D01*
X3161029Y7560563D01*
X3176524Y7550150D01*
X3202686Y7545070D01*
X3218179Y7545070D01*
X3244088Y7550150D01*
X3259836Y7560563D01*
X3264915Y7576312D01*
X3264915Y7586726D01*
X3557015Y7937500D02*
G01*
X3448050Y7937500D01*
X3557015Y7937500D02*
G01*
X3557015Y7890763D01*
X3551936Y7875270D01*
X3546602Y7869936D01*
X3536188Y7864855D01*
X3525774Y7864855D01*
X3515359Y7869936D01*
X3510279Y7875270D01*
X3505200Y7890763D01*
X3505200Y7937500D01*
X3505200Y7901178D02*
G01*
X3448050Y7864855D01*
X3536188Y7830565D02*
G01*
X3541522Y7820152D01*
X3557015Y7804404D01*
X3448050Y7804404D01*
X3536188Y7770113D02*
G01*
X3541522Y7759700D01*
X3557015Y7744205D01*
X3448050Y7744205D01*
X3823715Y8128000D02*
G01*
X3714750Y8128000D01*
X3823715Y8128000D02*
G01*
X3823715Y8081263D01*
X3818636Y8065770D01*
X3813302Y8060436D01*
X3802888Y8055355D01*
X3792474Y8055355D01*
X3782059Y8060436D01*
X3776979Y8065770D01*
X3771900Y8081263D01*
X3771900Y8128000D01*
X3771900Y8091678D02*
G01*
X3714750Y8055355D01*
X3802888Y8021065D02*
G01*
X3808222Y8010652D01*
X3823715Y7994904D01*
X3714750Y7994904D01*
X3797808Y7955534D02*
G01*
X3802888Y7955534D01*
X3813302Y7950200D01*
X3818636Y7945120D01*
X3823715Y7934705D01*
X3823715Y7913878D01*
X3818636Y7903463D01*
X3813302Y7898384D01*
X3802888Y7893050D01*
X3792474Y7893050D01*
X3782059Y7898384D01*
X3766565Y7908797D01*
X3714750Y7960613D01*
X3714750Y7887970D01*
X6375400Y2983484D02*
G01*
X6375400Y3092450D01*
X6375400Y2983484D02*
G01*
X6328663Y2983484D01*
X6313170Y2988563D01*
X6307836Y2993897D01*
X6302756Y3004312D01*
X6302756Y3014726D01*
X6307836Y3025139D01*
X6313170Y3030220D01*
X6328663Y3035300D01*
X6375400Y3035300D01*
X6339077Y3035300D02*
G01*
X6302756Y3092450D01*
X6268465Y3004312D02*
G01*
X6258052Y2998978D01*
X6242304Y2983484D01*
X6242304Y3092450D01*
X6197600Y2983484D02*
G01*
X6140450Y2983484D01*
X6171691Y3025139D01*
X6156197Y3025139D01*
X6145784Y3030220D01*
X6140450Y3035300D01*
X6135370Y3051047D01*
X6135370Y3061462D01*
X6140450Y3076955D01*
X6150863Y3087370D01*
X6166611Y3092450D01*
X6182106Y3092450D01*
X6197600Y3087370D01*
X6202934Y3082289D01*
X6208013Y3071876D01*
X6210300Y3186684D02*
G01*
X6210300Y3295650D01*
X6210300Y3186684D02*
G01*
X6163563Y3186684D01*
X6148070Y3191763D01*
X6142736Y3197097D01*
X6137656Y3207512D01*
X6137656Y3217926D01*
X6142736Y3228339D01*
X6148070Y3233420D01*
X6163563Y3238500D01*
X6210300Y3238500D01*
X6173977Y3238500D02*
G01*
X6137656Y3295650D01*
X6103365Y3207512D02*
G01*
X6092952Y3202178D01*
X6077204Y3186684D01*
X6077204Y3295650D01*
X5991097Y3186684D02*
G01*
X6042913Y3259328D01*
X5965190Y3259328D01*
X5991097Y3186684D02*
G01*
X5991097Y3295650D01*
X6032500Y3516884D02*
G01*
X6032500Y3625850D01*
X6032500Y3516884D02*
G01*
X5985763Y3516884D01*
X5970270Y3521963D01*
X5964936Y3527297D01*
X5959856Y3537712D01*
X5959856Y3548126D01*
X5964936Y3558539D01*
X5970270Y3563620D01*
X5985763Y3568700D01*
X6032500Y3568700D01*
X5996177Y3568700D02*
G01*
X5959856Y3625850D01*
X5925565Y3537712D02*
G01*
X5915152Y3532378D01*
X5899404Y3516884D01*
X5899404Y3625850D01*
X5802884Y3516884D02*
G01*
X5854700Y3516884D01*
X5860034Y3563620D01*
X5854700Y3558539D01*
X5839206Y3553205D01*
X5823711Y3553205D01*
X5807963Y3558539D01*
X5797550Y3568700D01*
X5792470Y3584447D01*
X5792470Y3594862D01*
X5797550Y3610355D01*
X5807963Y3620770D01*
X5823711Y3625850D01*
X5839206Y3625850D01*
X5854700Y3620770D01*
X5860034Y3615689D01*
X5865113Y3605276D01*
X3658615Y6489700D02*
G01*
X3549650Y6489700D01*
X3658615Y6489700D02*
G01*
X3658615Y6442963D01*
X3653536Y6427470D01*
X3648202Y6422136D01*
X3637788Y6417055D01*
X3627374Y6417055D01*
X3616959Y6422136D01*
X3611879Y6427470D01*
X3606800Y6442963D01*
X3606800Y6489700D01*
X3606800Y6453378D02*
G01*
X3549650Y6417055D01*
X3637788Y6382765D02*
G01*
X3643122Y6372352D01*
X3658615Y6356604D01*
X3549650Y6356604D01*
X3643122Y6260084D02*
G01*
X3653536Y6265163D01*
X3658615Y6280912D01*
X3658615Y6291326D01*
X3653536Y6306820D01*
X3637788Y6317234D01*
X3611879Y6322313D01*
X3585972Y6322313D01*
X3565143Y6317234D01*
X3554729Y6306820D01*
X3549650Y6291326D01*
X3549650Y6285992D01*
X3554729Y6270497D01*
X3565143Y6260084D01*
X3580638Y6254750D01*
X3585972Y6254750D01*
X3601465Y6260084D01*
X3611879Y6270497D01*
X3616959Y6285992D01*
X3616959Y6291326D01*
X3611879Y6306820D01*
X3601465Y6317234D01*
X3585972Y6322313D01*
X3391915Y6350000D02*
G01*
X3282950Y6350000D01*
X3391915Y6350000D02*
G01*
X3391915Y6303263D01*
X3386836Y6287770D01*
X3381502Y6282436D01*
X3371088Y6277355D01*
X3360674Y6277355D01*
X3350259Y6282436D01*
X3345179Y6287770D01*
X3340100Y6303263D01*
X3340100Y6350000D01*
X3340100Y6313678D02*
G01*
X3282950Y6277355D01*
X3371088Y6243065D02*
G01*
X3376422Y6232652D01*
X3391915Y6216904D01*
X3282950Y6216904D01*
X3391915Y6109970D02*
G01*
X3282950Y6162039D01*
X3391915Y6182613D02*
G01*
X3391915Y6109970D01*
X2680715Y6057900D02*
G01*
X2571750Y6057900D01*
X2680715Y6057900D02*
G01*
X2680715Y6011163D01*
X2675636Y5995670D01*
X2670302Y5990336D01*
X2659888Y5985255D01*
X2649474Y5985255D01*
X2639059Y5990336D01*
X2633979Y5995670D01*
X2628900Y6011163D01*
X2628900Y6057900D01*
X2628900Y6021578D02*
G01*
X2571750Y5985255D01*
X2659888Y5950965D02*
G01*
X2665222Y5940552D01*
X2680715Y5924804D01*
X2571750Y5924804D01*
X2680715Y5864605D02*
G01*
X2675636Y5880100D01*
X2665222Y5885434D01*
X2654808Y5885434D01*
X2644393Y5880100D01*
X2639059Y5869939D01*
X2633979Y5849112D01*
X2628900Y5833363D01*
X2618486Y5822950D01*
X2608072Y5817870D01*
X2592324Y5817870D01*
X2581909Y5822950D01*
X2576829Y5828284D01*
X2571750Y5843778D01*
X2571750Y5864605D01*
X2576829Y5880100D01*
X2581909Y5885434D01*
X2592324Y5890513D01*
X2608072Y5890513D01*
X2618486Y5885434D01*
X2628900Y5875020D01*
X2633979Y5859526D01*
X2639059Y5838697D01*
X2644393Y5828284D01*
X2654808Y5822950D01*
X2665222Y5822950D01*
X2675636Y5828284D01*
X2680715Y5843778D01*
X2680715Y5864605D01*
X2134615Y4305300D02*
G01*
X2025650Y4305300D01*
X2134615Y4305300D02*
G01*
X2134615Y4258563D01*
X2129536Y4243070D01*
X2124202Y4237736D01*
X2113788Y4232655D01*
X2103374Y4232655D01*
X2092959Y4237736D01*
X2087879Y4243070D01*
X2082800Y4258563D01*
X2082800Y4305300D01*
X2082800Y4268978D02*
G01*
X2025650Y4232655D01*
X2113788Y4198365D02*
G01*
X2119122Y4187952D01*
X2134615Y4172204D01*
X2025650Y4172204D01*
X2098293Y4070350D02*
G01*
X2082800Y4075684D01*
X2072386Y4086097D01*
X2067052Y4101592D01*
X2067052Y4106926D01*
X2072386Y4122420D01*
X2082800Y4132834D01*
X2098293Y4137913D01*
X2103374Y4137913D01*
X2119122Y4132834D01*
X2129536Y4122420D01*
X2134615Y4106926D01*
X2134615Y4101592D01*
X2129536Y4086097D01*
X2119122Y4075684D01*
X2098293Y4070350D01*
X2072386Y4070350D01*
X2046224Y4075684D01*
X2030729Y4086097D01*
X2025650Y4101592D01*
X2025650Y4112005D01*
X2030729Y4127500D01*
X2041143Y4132834D01*
X2388615Y4394200D02*
G01*
X2279650Y4394200D01*
X2388615Y4394200D02*
G01*
X2388615Y4347463D01*
X2383536Y4331970D01*
X2378202Y4326636D01*
X2367788Y4321555D01*
X2357374Y4321555D01*
X2346959Y4326636D01*
X2341879Y4331970D01*
X2336800Y4347463D01*
X2336800Y4394200D01*
X2336800Y4357878D02*
G01*
X2279650Y4321555D01*
X2362708Y4281931D02*
G01*
X2367788Y4281931D01*
X2378202Y4276852D01*
X2383536Y4271518D01*
X2388615Y4261104D01*
X2388615Y4240529D01*
X2383536Y4230115D01*
X2378202Y4224781D01*
X2367788Y4219702D01*
X2357374Y4219702D01*
X2346959Y4224781D01*
X2331465Y4235195D01*
X2279650Y4287265D01*
X2279650Y4214368D01*
X2388615Y4149089D02*
G01*
X2383536Y4164584D01*
X2367788Y4174997D01*
X2341879Y4180078D01*
X2326386Y4180078D01*
X2300224Y4174997D01*
X2284729Y4164584D01*
X2279650Y4149089D01*
X2279650Y4138676D01*
X2284729Y4122928D01*
X2300224Y4112513D01*
X2326386Y4107434D01*
X2341879Y4107434D01*
X2367788Y4112513D01*
X2383536Y4122928D01*
X2388615Y4138676D01*
X2388615Y4149089D01*
X2655315Y4673600D02*
G01*
X2546350Y4673600D01*
X2655315Y4673600D02*
G01*
X2655315Y4626863D01*
X2650236Y4611370D01*
X2644902Y4606036D01*
X2634488Y4600955D01*
X2624074Y4600955D01*
X2613659Y4606036D01*
X2608579Y4611370D01*
X2603500Y4626863D01*
X2603500Y4673600D01*
X2603500Y4637278D02*
G01*
X2546350Y4600955D01*
X2629408Y4561331D02*
G01*
X2634488Y4561331D01*
X2644902Y4556252D01*
X2650236Y4550918D01*
X2655315Y4540504D01*
X2655315Y4519929D01*
X2650236Y4509515D01*
X2644902Y4504181D01*
X2634488Y4499102D01*
X2624074Y4499102D01*
X2613659Y4504181D01*
X2598165Y4514595D01*
X2546350Y4566665D01*
X2546350Y4493768D01*
X2634488Y4459478D02*
G01*
X2639822Y4449063D01*
X2655315Y4433570D01*
X2546350Y4433570D01*
X6340535Y2646801D02*
G01*
X6404584Y2734957D01*
X6340535Y2646801D02*
G01*
X6302725Y2674274D01*
X6293177Y2687490D01*
X6291996Y2694939D01*
X6294008Y2706354D01*
X6300127Y2714777D01*
X6310360Y2720215D01*
X6317660Y2721190D01*
X6333180Y2716194D01*
X6370990Y2688722D01*
X6341607Y2710073D02*
G01*
X6345814Y2777657D01*
X6264935Y2733751D02*
G01*
X6261950Y2729641D01*
X6251719Y2724203D01*
X6244269Y2723022D01*
X6232857Y2725033D01*
X6216213Y2737129D01*
X6210774Y2747360D01*
X6209596Y2754810D01*
X6211605Y2766220D01*
X6217726Y2774647D01*
X6227958Y2780085D01*
X6245489Y2786499D01*
X6318072Y2797812D01*
X6259095Y2840662D01*
X6178425Y2796606D02*
G01*
X6175438Y2792496D01*
X6165001Y2787208D01*
X6157757Y2785877D01*
X6146345Y2787888D01*
X6129497Y2800131D01*
X6124059Y2810362D01*
X6123081Y2817665D01*
X6124887Y2829224D01*
X6131008Y2837649D01*
X6141445Y2842940D01*
X6158979Y2849351D01*
X6231354Y2860817D01*
X6172586Y2903514D01*
X5870795Y2122002D02*
G01*
X5891588Y2228966D01*
X5870795Y2122002D02*
G01*
X5824918Y2130920D01*
X5810679Y2138862D01*
X5806460Y2145116D01*
X5803460Y2156310D01*
X5805446Y2166531D01*
X5812421Y2175784D01*
X5818626Y2179754D01*
X5834804Y2181783D01*
X5880681Y2172865D01*
X5845027Y2179797D02*
G01*
X5820277Y2242827D01*
X5765533Y2168855D02*
G01*
X5764565Y2163869D01*
X5757590Y2154615D01*
X5751337Y2150397D01*
X5740145Y2147397D01*
X5719947Y2151324D01*
X5710694Y2158298D01*
X5706478Y2164552D01*
X5703478Y2175743D01*
X5705464Y2185967D01*
X5712439Y2195220D01*
X5725617Y2208441D01*
X5786617Y2249370D01*
X5715058Y2263279D01*
X5650384Y2164847D02*
G01*
X5594283Y2175751D01*
X5632902Y2210678D01*
X5617692Y2213635D01*
X5608439Y2220610D01*
X5604172Y2226614D01*
X5602190Y2243043D01*
X5604177Y2253264D01*
X5612119Y2267506D01*
X5624329Y2275740D01*
X5640758Y2277722D01*
X5655967Y2274765D01*
X5670207Y2266822D01*
X5674474Y2260818D01*
X5677474Y2249627D01*
X5832695Y1944202D02*
G01*
X5853488Y2051166D01*
X5832695Y1944202D02*
G01*
X5786818Y1953120D01*
X5772579Y1961062D01*
X5768360Y1967316D01*
X5765360Y1978510D01*
X5767346Y1988731D01*
X5774321Y1997984D01*
X5780526Y2001954D01*
X5796704Y2003983D01*
X5842581Y1995065D01*
X5806927Y2001997D02*
G01*
X5782177Y2065027D01*
X5727433Y1991055D02*
G01*
X5726465Y1986069D01*
X5719490Y1976815D01*
X5713237Y1972597D01*
X5702045Y1969597D01*
X5681847Y1973524D01*
X5672594Y1980498D01*
X5668378Y1986752D01*
X5665378Y1997943D01*
X5667364Y2008167D01*
X5674339Y2017420D01*
X5687517Y2030641D01*
X5748517Y2071570D01*
X5676958Y2085479D01*
X5571644Y1994946D02*
G01*
X5636369Y2056368D01*
X5559823Y2071248D01*
X5571644Y1994946D02*
G01*
X5592434Y2101910D01*
X1994915Y3009900D02*
G01*
X1885950Y3009900D01*
X1994915Y3009900D02*
G01*
X1994915Y2963163D01*
X1989836Y2947670D01*
X1984502Y2942336D01*
X1974088Y2937255D01*
X1963674Y2937255D01*
X1953259Y2942336D01*
X1948179Y2947670D01*
X1943100Y2963163D01*
X1943100Y3009900D01*
X1943100Y2973578D02*
G01*
X1885950Y2937255D01*
X1969008Y2897631D02*
G01*
X1974088Y2897631D01*
X1984502Y2892552D01*
X1989836Y2887218D01*
X1994915Y2876804D01*
X1994915Y2856229D01*
X1989836Y2845815D01*
X1984502Y2840481D01*
X1974088Y2835402D01*
X1963674Y2835402D01*
X1953259Y2840481D01*
X1937765Y2850895D01*
X1885950Y2902965D01*
X1885950Y2830068D01*
X1994915Y2733547D02*
G01*
X1994915Y2785363D01*
X1948179Y2790697D01*
X1953259Y2785363D01*
X1958593Y2769870D01*
X1958593Y2754376D01*
X1953259Y2738628D01*
X1943100Y2728213D01*
X1927352Y2723134D01*
X1916937Y2723134D01*
X1901444Y2728213D01*
X1891029Y2738628D01*
X1885950Y2754376D01*
X1885950Y2769870D01*
X1891029Y2785363D01*
X1896110Y2790697D01*
X1906523Y2795778D01*
X2223515Y3175000D02*
G01*
X2114550Y3175000D01*
X2223515Y3175000D02*
G01*
X2223515Y3128263D01*
X2218436Y3112770D01*
X2213102Y3107436D01*
X2202688Y3102355D01*
X2192274Y3102355D01*
X2181859Y3107436D01*
X2176779Y3112770D01*
X2171700Y3128263D01*
X2171700Y3175000D01*
X2171700Y3138678D02*
G01*
X2114550Y3102355D01*
X2197608Y3062731D02*
G01*
X2202688Y3062731D01*
X2213102Y3057652D01*
X2218436Y3052318D01*
X2223515Y3041904D01*
X2223515Y3021329D01*
X2218436Y3010915D01*
X2213102Y3005581D01*
X2202688Y3000502D01*
X2192274Y3000502D01*
X2181859Y3005581D01*
X2166365Y3015995D01*
X2114550Y3068065D01*
X2114550Y2995168D01*
X2208022Y2898647D02*
G01*
X2218436Y2903728D01*
X2223515Y2919476D01*
X2223515Y2929889D01*
X2218436Y2945384D01*
X2202688Y2955797D01*
X2176779Y2960878D01*
X2150872Y2960878D01*
X2130043Y2955797D01*
X2119629Y2945384D01*
X2114550Y2929889D01*
X2114550Y2924555D01*
X2119629Y2909062D01*
X2130043Y2898647D01*
X2145538Y2893313D01*
X2150872Y2893313D01*
X2166365Y2898647D01*
X2176779Y2909062D01*
X2181859Y2924555D01*
X2181859Y2929889D01*
X2176779Y2945384D01*
X2166365Y2955797D01*
X2150872Y2960878D01*
X2591815Y3263900D02*
G01*
X2482850Y3263900D01*
X2591815Y3263900D02*
G01*
X2591815Y3217163D01*
X2586736Y3201670D01*
X2581402Y3196336D01*
X2570988Y3191255D01*
X2560574Y3191255D01*
X2550159Y3196336D01*
X2545079Y3201670D01*
X2540000Y3217163D01*
X2540000Y3263900D01*
X2540000Y3227578D02*
G01*
X2482850Y3191255D01*
X2565908Y3151631D02*
G01*
X2570988Y3151631D01*
X2581402Y3146552D01*
X2586736Y3141218D01*
X2591815Y3130804D01*
X2591815Y3110229D01*
X2586736Y3099815D01*
X2581402Y3094481D01*
X2570988Y3089402D01*
X2560574Y3089402D01*
X2550159Y3094481D01*
X2534665Y3104895D01*
X2482850Y3156965D01*
X2482850Y3084068D01*
X2591815Y2977134D02*
G01*
X2482850Y3028950D01*
X2591815Y3049778D02*
G01*
X2591815Y2977134D01*
X1482610Y1863930D02*
G01*
X1503403Y1756966D01*
X1482610Y1863930D02*
G01*
X1528485Y1872848D01*
X1544667Y1870816D01*
X1550921Y1866600D01*
X1557893Y1857344D01*
X1559880Y1847123D01*
X1556882Y1835932D01*
X1552615Y1829927D01*
X1538373Y1821985D01*
X1492498Y1813067D01*
X1528152Y1819998D02*
G01*
X1574711Y1770829D01*
X1597759Y1859920D02*
G01*
X1596791Y1864906D01*
X1599791Y1876097D01*
X1604007Y1882353D01*
X1613260Y1889328D01*
X1633458Y1893252D01*
X1644647Y1890252D01*
X1650900Y1886033D01*
X1657875Y1876780D01*
X1659862Y1866559D01*
X1656862Y1855365D01*
X1649597Y1838170D01*
X1608371Y1777372D01*
X1679930Y1791279D01*
X1718231Y1909729D02*
G01*
X1703989Y1901786D01*
X1700740Y1890547D01*
X1702729Y1880326D01*
X1709950Y1871118D01*
X1721192Y1867870D01*
X1742356Y1866811D01*
X1758787Y1864827D01*
X1770994Y1856590D01*
X1777969Y1847339D01*
X1780974Y1831878D01*
X1777974Y1820687D01*
X1773707Y1814682D01*
X1759465Y1806740D01*
X1739023Y1802767D01*
X1722843Y1804796D01*
X1716638Y1808764D01*
X1709663Y1818020D01*
X1706659Y1833476D01*
X1709658Y1844669D01*
X1717893Y1856879D01*
X1732135Y1864822D01*
X1751609Y1873783D01*
X1760816Y1881007D01*
X1764063Y1892246D01*
X1762076Y1902470D01*
X1754855Y1911675D01*
X1738675Y1913704D01*
X1718231Y1909729D01*
X1709158Y2114524D02*
G01*
X1737360Y2009272D01*
X1709158Y2114524D02*
G01*
X1754301Y2126620D01*
X1770583Y2125723D01*
X1777116Y2121951D01*
X1784718Y2113208D01*
X1787413Y2103147D01*
X1785200Y2091773D01*
X1781362Y2085487D01*
X1767712Y2076569D01*
X1722569Y2064473D01*
X1757654Y2073874D02*
G01*
X1807530Y2028073D01*
X1824306Y2118555D02*
G01*
X1822991Y2123462D01*
X1825203Y2134836D01*
X1828975Y2141369D01*
X1837717Y2148972D01*
X1857590Y2154298D01*
X1868965Y2152086D01*
X1875497Y2148314D01*
X1883100Y2139569D01*
X1885795Y2129510D01*
X1883585Y2118136D01*
X1877534Y2100475D01*
X1840651Y2036947D01*
X1911065Y2055815D01*
X1990646Y2152345D02*
G01*
X1989503Y2136000D01*
X1982139Y2123244D01*
X1968555Y2114082D01*
X1963402Y2112700D01*
X1947057Y2113843D01*
X1934301Y2121207D01*
X1925386Y2134859D01*
X1924070Y2139767D01*
X1924900Y2156292D01*
X1932264Y2169045D01*
X1945916Y2177963D01*
X1951067Y2179345D01*
X1967349Y2178448D01*
X1980102Y2171082D01*
X1990646Y2152345D01*
X1997351Y2127321D01*
X1998969Y2100668D01*
X1992922Y2083008D01*
X1979269Y2074090D01*
X1969211Y2071395D01*
X1952929Y2072292D01*
X1945083Y2080971D01*
X1957804Y2408455D02*
G01*
X1982317Y2302283D01*
X1957804Y2408455D02*
G01*
X2003343Y2418969D01*
X2019581Y2417505D01*
X2025980Y2413507D01*
X2033272Y2404503D01*
X2035614Y2394356D01*
X2033008Y2383066D01*
X2028952Y2376916D01*
X2014999Y2368481D01*
X1969460Y2357968D01*
X2004852Y2366139D02*
G01*
X2053099Y2318623D01*
X2072144Y2434854D02*
G01*
X2127829Y2447709D01*
X2107006Y2400150D01*
X2122103Y2403635D01*
X2133394Y2401028D01*
X2139485Y2397221D01*
X2148225Y2383076D01*
X2150569Y2372931D01*
X2148857Y2356634D01*
X2141052Y2344143D01*
X2127097Y2335707D01*
X2112002Y2332222D01*
X2095515Y2333630D01*
X2089421Y2337437D01*
X2081880Y2346385D01*
X2196632Y2463594D02*
G01*
X2182677Y2455158D01*
X2176073Y2437472D01*
X2176952Y2411084D01*
X2180437Y2395989D01*
X2191273Y2371638D01*
X2204905Y2358885D01*
X2221143Y2357422D01*
X2231290Y2359764D01*
X2245492Y2368255D01*
X2252154Y2385695D01*
X2251219Y2412329D01*
X2247734Y2427427D01*
X2236955Y2451526D01*
X2223267Y2464528D01*
X2206779Y2465936D01*
X2196632Y2463594D01*
X3633215Y3619500D02*
G01*
X3524250Y3619500D01*
X3633215Y3619500D02*
G01*
X3633215Y3572763D01*
X3628136Y3557270D01*
X3622802Y3551936D01*
X3612388Y3546855D01*
X3601974Y3546855D01*
X3591559Y3551936D01*
X3586479Y3557270D01*
X3581400Y3572763D01*
X3581400Y3619500D01*
X3581400Y3583178D02*
G01*
X3524250Y3546855D01*
X3633215Y3502152D02*
G01*
X3633215Y3445002D01*
X3591559Y3475989D01*
X3591559Y3460495D01*
X3586479Y3450081D01*
X3581400Y3445002D01*
X3565652Y3439668D01*
X3555238Y3439668D01*
X3539743Y3445002D01*
X3529329Y3455415D01*
X3524250Y3470910D01*
X3524250Y3486404D01*
X3529329Y3502152D01*
X3534409Y3507231D01*
X3544824Y3512565D01*
X3612388Y3405378D02*
G01*
X3617722Y3394963D01*
X3633215Y3379470D01*
X3524250Y3379470D01*
X3455415Y3619500D02*
G01*
X3346450Y3619500D01*
X3455415Y3619500D02*
G01*
X3455415Y3572763D01*
X3450336Y3557270D01*
X3445002Y3551936D01*
X3434588Y3546855D01*
X3424174Y3546855D01*
X3413759Y3551936D01*
X3408679Y3557270D01*
X3403600Y3572763D01*
X3403600Y3619500D01*
X3403600Y3583178D02*
G01*
X3346450Y3546855D01*
X3455415Y3502152D02*
G01*
X3455415Y3445002D01*
X3413759Y3475989D01*
X3413759Y3460495D01*
X3408679Y3450081D01*
X3403600Y3445002D01*
X3387852Y3439668D01*
X3377438Y3439668D01*
X3361943Y3445002D01*
X3351529Y3455415D01*
X3346450Y3470910D01*
X3346450Y3486404D01*
X3351529Y3502152D01*
X3356609Y3507231D01*
X3367024Y3512565D01*
X3429508Y3400297D02*
G01*
X3434588Y3400297D01*
X3445002Y3394963D01*
X3450336Y3389884D01*
X3455415Y3379470D01*
X3455415Y3358642D01*
X3450336Y3348228D01*
X3445002Y3343147D01*
X3434588Y3337813D01*
X3424174Y3337813D01*
X3413759Y3343147D01*
X3398265Y3353562D01*
X3346450Y3405378D01*
X3346450Y3332734D01*
X3074415Y3619500D02*
G01*
X2965450Y3619500D01*
X3074415Y3619500D02*
G01*
X3074415Y3572763D01*
X3069336Y3557270D01*
X3064002Y3551936D01*
X3053588Y3546855D01*
X3043174Y3546855D01*
X3032759Y3551936D01*
X3027679Y3557270D01*
X3022600Y3572763D01*
X3022600Y3619500D01*
X3022600Y3583178D02*
G01*
X2965450Y3546855D01*
X3074415Y3502152D02*
G01*
X3074415Y3445002D01*
X3032759Y3475989D01*
X3032759Y3460495D01*
X3027679Y3450081D01*
X3022600Y3445002D01*
X3006852Y3439668D01*
X2996438Y3439668D01*
X2980943Y3445002D01*
X2970529Y3455415D01*
X2965450Y3470910D01*
X2965450Y3486404D01*
X2970529Y3502152D01*
X2975609Y3507231D01*
X2986024Y3512565D01*
X3074415Y3394963D02*
G01*
X3074415Y3337813D01*
X3032759Y3369055D01*
X3032759Y3353562D01*
X3027679Y3343147D01*
X3022600Y3337813D01*
X3006852Y3332734D01*
X2996438Y3332734D01*
X2980943Y3337813D01*
X2970529Y3348228D01*
X2965450Y3363976D01*
X2965450Y3379470D01*
X2970529Y3394963D01*
X2975609Y3400297D01*
X2986024Y3405378D01*
X4827015Y3606800D02*
G01*
X4718050Y3606800D01*
X4827015Y3606800D02*
G01*
X4827015Y3560063D01*
X4821936Y3544570D01*
X4816602Y3539236D01*
X4806188Y3534155D01*
X4795774Y3534155D01*
X4785359Y3539236D01*
X4780279Y3544570D01*
X4775200Y3560063D01*
X4775200Y3606800D01*
X4775200Y3570478D02*
G01*
X4718050Y3534155D01*
X4827015Y3489452D02*
G01*
X4827015Y3432302D01*
X4785359Y3463289D01*
X4785359Y3447795D01*
X4780279Y3437381D01*
X4775200Y3432302D01*
X4759452Y3426968D01*
X4749038Y3426968D01*
X4733543Y3432302D01*
X4723129Y3442715D01*
X4718050Y3458210D01*
X4718050Y3473704D01*
X4723129Y3489452D01*
X4728209Y3494531D01*
X4738624Y3499865D01*
X4827015Y3340862D02*
G01*
X4754372Y3392678D01*
X4754372Y3314700D01*
X4827015Y3340862D02*
G01*
X4718050Y3340862D01*
X4649215Y3606800D02*
G01*
X4540250Y3606800D01*
X4649215Y3606800D02*
G01*
X4649215Y3560063D01*
X4644136Y3544570D01*
X4638802Y3539236D01*
X4628388Y3534155D01*
X4617974Y3534155D01*
X4607559Y3539236D01*
X4602479Y3544570D01*
X4597400Y3560063D01*
X4597400Y3606800D01*
X4597400Y3570478D02*
G01*
X4540250Y3534155D01*
X4649215Y3489452D02*
G01*
X4649215Y3432302D01*
X4607559Y3463289D01*
X4607559Y3447795D01*
X4602479Y3437381D01*
X4597400Y3432302D01*
X4581652Y3426968D01*
X4571238Y3426968D01*
X4555743Y3432302D01*
X4545329Y3442715D01*
X4540250Y3458210D01*
X4540250Y3473704D01*
X4545329Y3489452D01*
X4550409Y3494531D01*
X4560824Y3499865D01*
X4649215Y3330447D02*
G01*
X4649215Y3382263D01*
X4602479Y3387597D01*
X4607559Y3382263D01*
X4612893Y3366770D01*
X4612893Y3351276D01*
X4607559Y3335528D01*
X4597400Y3325113D01*
X4581652Y3320034D01*
X4571238Y3320034D01*
X4555743Y3325113D01*
X4545329Y3335528D01*
X4540250Y3351276D01*
X4540250Y3366770D01*
X4545329Y3382263D01*
X4550409Y3387597D01*
X4560824Y3392678D01*
X4280915Y3606800D02*
G01*
X4171950Y3606800D01*
X4280915Y3606800D02*
G01*
X4280915Y3560063D01*
X4275836Y3544570D01*
X4270502Y3539236D01*
X4260088Y3534155D01*
X4249674Y3534155D01*
X4239259Y3539236D01*
X4234179Y3544570D01*
X4229100Y3560063D01*
X4229100Y3606800D01*
X4229100Y3570478D02*
G01*
X4171950Y3534155D01*
X4280915Y3489452D02*
G01*
X4280915Y3432302D01*
X4239259Y3463289D01*
X4239259Y3447795D01*
X4234179Y3437381D01*
X4229100Y3432302D01*
X4213352Y3426968D01*
X4202938Y3426968D01*
X4187443Y3432302D01*
X4177029Y3442715D01*
X4171950Y3458210D01*
X4171950Y3473704D01*
X4177029Y3489452D01*
X4182109Y3494531D01*
X4192524Y3499865D01*
X4265422Y3330447D02*
G01*
X4275836Y3335528D01*
X4280915Y3351276D01*
X4280915Y3361689D01*
X4275836Y3377184D01*
X4260088Y3387597D01*
X4234179Y3392678D01*
X4208272Y3392678D01*
X4187443Y3387597D01*
X4177029Y3377184D01*
X4171950Y3361689D01*
X4171950Y3356355D01*
X4177029Y3340862D01*
X4187443Y3330447D01*
X4202938Y3325113D01*
X4208272Y3325113D01*
X4223765Y3330447D01*
X4234179Y3340862D01*
X4239259Y3356355D01*
X4239259Y3361689D01*
X4234179Y3377184D01*
X4223765Y3387597D01*
X4208272Y3392678D01*
X3903979Y6945376D02*
G01*
X3903979Y6867397D01*
X3909059Y6851904D01*
X3919474Y6841489D01*
X3935222Y6836410D01*
X3945636Y6836410D01*
X3961129Y6841489D01*
X3971543Y6851904D01*
X3976624Y6867397D01*
X3976624Y6945376D01*
X4016247Y6919468D02*
G01*
X4016247Y6924547D01*
X4021327Y6934962D01*
X4026661Y6940295D01*
X4037075Y6945376D01*
X4057650Y6945376D01*
X4068063Y6940295D01*
X4073397Y6934962D01*
X4078477Y6924547D01*
X4078477Y6914134D01*
X4073397Y6903720D01*
X4062984Y6888226D01*
X4010913Y6836410D01*
X4083811Y6836410D01*
X3319782Y4701034D02*
G01*
X3319782Y4604006D01*
X3319782Y4701034D02*
G01*
X3379726Y4701034D01*
X3319782Y4654806D02*
G01*
X3356612Y4654806D01*
X3319782Y4604006D02*
G01*
X3379726Y4604006D01*
X3474976Y4687318D02*
G01*
X3465832Y4696462D01*
X3451862Y4701034D01*
X3433320Y4701034D01*
X3419604Y4696462D01*
X3410206Y4687318D01*
X3410206Y4677920D01*
X3415032Y4668776D01*
X3419604Y4664204D01*
X3428748Y4659632D01*
X3456434Y4650234D01*
X3465832Y4645662D01*
X3470404Y4641090D01*
X3474976Y4631692D01*
X3474976Y4617976D01*
X3465832Y4608832D01*
X3451862Y4604006D01*
X3433320Y4604006D01*
X3419604Y4608832D01*
X3410206Y4617976D01*
X3505456Y4701034D02*
G01*
X3505456Y4604006D01*
X3505456Y4701034D02*
G01*
X3547112Y4701034D01*
X3560828Y4696462D01*
X3565400Y4691890D01*
X3569972Y4682492D01*
X3569972Y4668776D01*
X3565400Y4659632D01*
X3560828Y4654806D01*
X3547112Y4650234D01*
X3505456Y4650234D01*
X3600452Y4645662D02*
G01*
X3683764Y4645662D01*
X3714244Y4701034D02*
G01*
X3737358Y4604006D01*
X3760472Y4701034D02*
G01*
X3737358Y4604006D01*
X3760472Y4701034D02*
G01*
X3783332Y4604006D01*
X3806446Y4701034D02*
G01*
X3783332Y4604006D01*
X3836926Y4701034D02*
G01*
X3836926Y4604006D01*
X3836926Y4701034D02*
G01*
X3878582Y4701034D01*
X3892552Y4696462D01*
X3897124Y4691890D01*
X3901696Y4682492D01*
X3901696Y4673348D01*
X3897124Y4664204D01*
X3892552Y4659632D01*
X3878582Y4654806D01*
X3836926Y4654806D01*
X3869438Y4654806D02*
G01*
X3901696Y4604006D01*
X3959862Y4701034D02*
G01*
X3950718Y4696462D01*
X3941320Y4687318D01*
X3936748Y4677920D01*
X3932176Y4664204D01*
X3932176Y4641090D01*
X3936748Y4627120D01*
X3941320Y4617976D01*
X3950718Y4608832D01*
X3959862Y4604006D01*
X3978404Y4604006D01*
X3987548Y4608832D01*
X3996692Y4617976D01*
X4001518Y4627120D01*
X4006090Y4641090D01*
X4006090Y4664204D01*
X4001518Y4677920D01*
X3996692Y4687318D01*
X3987548Y4696462D01*
X3978404Y4701034D01*
X3959862Y4701034D01*
X4064256Y4701034D02*
G01*
X4055112Y4696462D01*
X4045714Y4687318D01*
X4041142Y4677920D01*
X4036570Y4664204D01*
X4036570Y4641090D01*
X4041142Y4627120D01*
X4045714Y4617976D01*
X4055112Y4608832D01*
X4064256Y4604006D01*
X4082798Y4604006D01*
X4091942Y4608832D01*
X4101086Y4617976D01*
X4105912Y4627120D01*
X4110484Y4641090D01*
X4110484Y4664204D01*
X4105912Y4677920D01*
X4101086Y4687318D01*
X4091942Y4696462D01*
X4082798Y4701034D01*
X4064256Y4701034D01*
X4140964Y4701034D02*
G01*
X4140964Y4604006D01*
X4140964Y4701034D02*
G01*
X4177794Y4604006D01*
X4214878Y4701034D02*
G01*
X4177794Y4604006D01*
X4214878Y4701034D02*
G01*
X4214878Y4604006D01*
X4245358Y4645662D02*
G01*
X4328416Y4645662D01*
X4368040Y4701034D02*
G01*
X4418840Y4701034D01*
X4391154Y4664204D01*
X4405124Y4664204D01*
X4414268Y4659632D01*
X4418840Y4654806D01*
X4423412Y4641090D01*
X4423412Y4631692D01*
X4418840Y4617976D01*
X4409696Y4608832D01*
X4395726Y4604006D01*
X4382010Y4604006D01*
X4368040Y4608832D01*
X4363468Y4613404D01*
X4358896Y4622548D01*
X4458718Y4677920D02*
G01*
X4458718Y4682492D01*
X4463290Y4691890D01*
X4467862Y4696462D01*
X4477006Y4701034D01*
X4495548Y4701034D01*
X4504692Y4696462D01*
X4509518Y4691890D01*
X4514090Y4682492D01*
X4514090Y4673348D01*
X4509518Y4664204D01*
X4500120Y4650234D01*
X4453892Y4604006D01*
X4518662Y4604006D01*
D19*
X4869941Y2337307D02*
G01*
X4942840Y2337307D01*
X4869941Y2337307D02*
G01*
X4869941Y2361437D01*
X4873497Y2371852D01*
X4880356Y2378963D01*
X4887468Y2382265D01*
X4897627Y2385821D01*
X4915154Y2385821D01*
X4925568Y2382265D01*
X4932425Y2378963D01*
X4939284Y2371852D01*
X4942840Y2361437D01*
X4942840Y2337307D01*
X4915154Y2408681D02*
G01*
X4915154Y2450337D01*
X4908041Y2450337D01*
X4901184Y2446781D01*
X4897627Y2443226D01*
X4894325Y2436368D01*
X4894325Y2425954D01*
X4897627Y2419095D01*
X4904740Y2412237D01*
X4915154Y2408681D01*
X4922011Y2408681D01*
X4932425Y2412237D01*
X4939284Y2419095D01*
X4942840Y2425954D01*
X4942840Y2436368D01*
X4939284Y2443226D01*
X4932425Y2450337D01*
X4904740Y2511297D02*
G01*
X4897627Y2507742D01*
X4894325Y2497328D01*
X4894325Y2486913D01*
X4897627Y2476500D01*
X4904740Y2473197D01*
X4911597Y2476500D01*
X4915154Y2483357D01*
X4918456Y2500884D01*
X4922011Y2507742D01*
X4928870Y2511297D01*
X4932425Y2511297D01*
X4939284Y2507742D01*
X4942840Y2497328D01*
X4942840Y2486913D01*
X4939284Y2476500D01*
X4932425Y2473197D01*
X4869941Y2534157D02*
G01*
X4873497Y2537460D01*
X4869941Y2541015D01*
X4866640Y2537460D01*
X4869941Y2534157D01*
X4894325Y2537460D02*
G01*
X4942840Y2537460D01*
X4894325Y2605278D02*
G01*
X4949697Y2605278D01*
X4960111Y2601976D01*
X4963668Y2598420D01*
X4966970Y2591562D01*
X4966970Y2581147D01*
X4963668Y2574289D01*
X4904740Y2605278D02*
G01*
X4897627Y2598420D01*
X4894325Y2591562D01*
X4894325Y2581147D01*
X4897627Y2574289D01*
X4904740Y2567178D01*
X4915154Y2563876D01*
X4922011Y2563876D01*
X4932425Y2567178D01*
X4939284Y2574289D01*
X4942840Y2581147D01*
X4942840Y2591562D01*
X4939284Y2598420D01*
X4932425Y2605278D01*
X4894325Y2628137D02*
G01*
X4942840Y2628137D01*
X4908041Y2628137D02*
G01*
X4897627Y2638552D01*
X4894325Y2645663D01*
X4894325Y2656078D01*
X4897627Y2662936D01*
X4908041Y2666237D01*
X4942840Y2666237D01*
X4915154Y2689097D02*
G01*
X4915154Y2730754D01*
X4908041Y2730754D01*
X4901184Y2727197D01*
X4897627Y2723895D01*
X4894325Y2717037D01*
X4894325Y2706623D01*
X4897627Y2699512D01*
X4904740Y2692654D01*
X4915154Y2689097D01*
X4922011Y2689097D01*
X4932425Y2692654D01*
X4939284Y2699512D01*
X4942840Y2706623D01*
X4942840Y2717037D01*
X4939284Y2723895D01*
X4932425Y2730754D01*
X4869941Y2795270D02*
G01*
X4942840Y2795270D01*
X4904740Y2795270D02*
G01*
X4897627Y2788157D01*
X4894325Y2781300D01*
X4894325Y2770886D01*
X4897627Y2764028D01*
X4904740Y2757170D01*
X4915154Y2753613D01*
X4922011Y2753613D01*
X4932425Y2757170D01*
X4939284Y2764028D01*
X4942840Y2770886D01*
X4942840Y2781300D01*
X4939284Y2788157D01*
X4932425Y2795270D01*
X4869941Y2871470D02*
G01*
X4942840Y2871470D01*
X4904740Y2871470D02*
G01*
X4897627Y2878328D01*
X4894325Y2885186D01*
X4894325Y2895600D01*
X4897627Y2902457D01*
X4904740Y2909570D01*
X4915154Y2912871D01*
X4922011Y2912871D01*
X4932425Y2909570D01*
X4939284Y2902457D01*
X4942840Y2895600D01*
X4942840Y2885186D01*
X4939284Y2878328D01*
X4932425Y2871470D01*
X4894325Y2939287D02*
G01*
X4942840Y2960115D01*
X4894325Y2980944D02*
G01*
X4942840Y2960115D01*
X4956556Y2953257D01*
X4963668Y2946145D01*
X4966970Y2939287D01*
X4966970Y2935731D01*
X4869941Y3091687D02*
G01*
X4925568Y3091687D01*
X4935727Y3088131D01*
X4939284Y3084829D01*
X4942840Y3077718D01*
X4942840Y3070860D01*
X4939284Y3064002D01*
X4935727Y3060445D01*
X4925568Y3057144D01*
X4918456Y3057144D01*
X4894325Y3131820D02*
G01*
X4897627Y3124962D01*
X4904740Y3118104D01*
X4915154Y3114547D01*
X4922011Y3114547D01*
X4932425Y3118104D01*
X4939284Y3124962D01*
X4942840Y3131820D01*
X4942840Y3142234D01*
X4939284Y3149092D01*
X4932425Y3156204D01*
X4922011Y3159505D01*
X4915154Y3159505D01*
X4904740Y3156204D01*
X4897627Y3149092D01*
X4894325Y3142234D01*
X4894325Y3131820D01*
X4869941Y3182365D02*
G01*
X4942840Y3182365D01*
X4904740Y3182365D02*
G01*
X4897627Y3189478D01*
X4894325Y3196336D01*
X4894325Y3206750D01*
X4897627Y3213607D01*
X4904740Y3220465D01*
X4915154Y3224021D01*
X4922011Y3224021D01*
X4932425Y3220465D01*
X4939284Y3213607D01*
X4942840Y3206750D01*
X4942840Y3196336D01*
X4939284Y3189478D01*
X4932425Y3182365D01*
X4904740Y3284981D02*
G01*
X4897627Y3281426D01*
X4894325Y3271012D01*
X4894325Y3260597D01*
X4897627Y3250437D01*
X4904740Y3246881D01*
X4911597Y3250437D01*
X4915154Y3257295D01*
X4918456Y3274568D01*
X4922011Y3281426D01*
X4928870Y3284981D01*
X4932425Y3284981D01*
X4939284Y3281426D01*
X4942840Y3271012D01*
X4942840Y3260597D01*
X4939284Y3250437D01*
X4932425Y3246881D01*
X4894325Y3325113D02*
G01*
X4897627Y3318255D01*
X4904740Y3311397D01*
X4915154Y3307842D01*
X4922011Y3307842D01*
X4932425Y3311397D01*
X4939284Y3318255D01*
X4942840Y3325113D01*
X4942840Y3335528D01*
X4939284Y3342386D01*
X4932425Y3349497D01*
X4922011Y3352800D01*
X4915154Y3352800D01*
X4904740Y3349497D01*
X4897627Y3342386D01*
X4894325Y3335528D01*
X4894325Y3325113D01*
X4894325Y3375660D02*
G01*
X4942840Y3375660D01*
X4908041Y3375660D02*
G01*
X4897627Y3386073D01*
X4894325Y3392931D01*
X4894325Y3403345D01*
X4897627Y3410457D01*
X4908041Y3413760D01*
X4942840Y3413760D01*
D12*
X2884799Y2330450D02*
G01*
X3722999Y2330450D01*
X3722999Y1930400D01*
X2884799Y1930400D01*
X2884799Y2330450D01*
X4091299Y2343150D02*
G01*
X4929499Y2343150D01*
X4929499Y1943100D01*
X4091299Y1943100D01*
X4091299Y2343150D01*
X6938754Y2415931D02*
G01*
X7616870Y1923247D01*
X7381727Y1599600D01*
X6703611Y2092281D01*
X6938754Y2415931D01*
X6622097Y3947957D02*
G01*
X7282609Y3431910D01*
X7036313Y3116666D01*
X6375801Y3632715D01*
X6622097Y3947957D01*
X6063297Y5497357D02*
G01*
X6723806Y4981310D01*
X6477513Y4666066D01*
X5817001Y5182115D01*
X6063297Y5497357D01*
X5323608Y7255220D02*
G01*
X5936627Y6683568D01*
X5663796Y6390990D01*
X5050774Y6962642D01*
X5323608Y7255220D01*
X4511367Y9053098D02*
G01*
X5050152Y8411001D01*
X4743696Y8153854D01*
X4204911Y8795951D01*
X4511367Y9053098D01*
X2688879Y8473206D02*
G01*
X3260531Y9086230D01*
X3553106Y8813396D01*
X2981457Y8200372D01*
X2688879Y8473206D01*
X2009896Y6706415D02*
G01*
X2559806Y7339015D01*
X2861726Y7076556D01*
X2311819Y6443959D01*
X2009896Y6706415D01*
X1389867Y4855400D02*
G01*
X1858581Y5550296D01*
X2190239Y5326593D01*
X1721520Y4631692D01*
X1389867Y4855400D01*
X1000371Y3306554D02*
G01*
X1493052Y3984670D01*
X1816699Y3749527D01*
X1324018Y3071408D01*
X1000371Y3306554D01*
X698327Y1823984D02*
G01*
X1259189Y2446886D01*
X1556486Y2179200D01*
X995621Y1556296D01*
X698327Y1823984D01*
X4546600Y8166100D02*
G01*
X4546600Y8039100D01*
X4546600Y8039100D02*
G01*
X4610100Y8039100D01*
X4610100Y8039100D02*
G01*
X4610100Y7658100D01*
X4610100Y7658100D02*
G01*
X4546600Y7658100D01*
X4546600Y7658100D02*
G01*
X4546600Y7531100D01*
X4546600Y7658100D02*
G01*
X4483100Y7658100D01*
X4483100Y7658100D02*
G01*
X4483100Y8039100D01*
X4483100Y8039100D02*
G01*
X4546600Y8039100D01*
X4241800Y8255000D02*
G01*
X4241800Y8128000D01*
X4241800Y8128000D02*
G01*
X4305300Y8128000D01*
X4305300Y8128000D02*
G01*
X4305300Y7747000D01*
X4305300Y7747000D02*
G01*
X4241800Y7747000D01*
X4241800Y7747000D02*
G01*
X4241800Y7620000D01*
X4241800Y7747000D02*
G01*
X4178300Y7747000D01*
X4178300Y7747000D02*
G01*
X4178300Y8128000D01*
X4178300Y8128000D02*
G01*
X4241800Y8128000D01*
X3924300Y8458200D02*
G01*
X3924300Y8331200D01*
X3924300Y8331200D02*
G01*
X3987800Y8331200D01*
X3987800Y8331200D02*
G01*
X3987800Y7950200D01*
X3987800Y7950200D02*
G01*
X3924300Y7950200D01*
X3924300Y7950200D02*
G01*
X3924300Y7823200D01*
X3924300Y7950200D02*
G01*
X3860800Y7950200D01*
X3860800Y7950200D02*
G01*
X3860800Y8331200D01*
X3860800Y8331200D02*
G01*
X3924300Y8331200D01*
X5524500Y6223000D02*
G01*
X5524500Y6096000D01*
X5524500Y6096000D02*
G01*
X5588000Y6096000D01*
X5588000Y6096000D02*
G01*
X5588000Y5715000D01*
X5588000Y5715000D02*
G01*
X5524500Y5715000D01*
X5524500Y5715000D02*
G01*
X5524500Y5588000D01*
X5524500Y5715000D02*
G01*
X5461000Y5715000D01*
X5461000Y5715000D02*
G01*
X5461000Y6096000D01*
X5461000Y6096000D02*
G01*
X5524500Y6096000D01*
X4762500Y6667500D02*
G01*
X4762500Y6540500D01*
X4762500Y6540500D02*
G01*
X4826000Y6540500D01*
X4826000Y6540500D02*
G01*
X4826000Y6159500D01*
X4826000Y6159500D02*
G01*
X4762500Y6159500D01*
X4762500Y6159500D02*
G01*
X4762500Y6032500D01*
X4762500Y6159500D02*
G01*
X4699000Y6159500D01*
X4699000Y6159500D02*
G01*
X4699000Y6540500D01*
X4699000Y6540500D02*
G01*
X4762500Y6540500D01*
X4483100Y6807200D02*
G01*
X4483100Y6680200D01*
X4483100Y6680200D02*
G01*
X4546600Y6680200D01*
X4546600Y6680200D02*
G01*
X4546600Y6299200D01*
X4546600Y6299200D02*
G01*
X4483100Y6299200D01*
X4483100Y6299200D02*
G01*
X4483100Y6172200D01*
X4483100Y6299200D02*
G01*
X4419600Y6299200D01*
X4419600Y6299200D02*
G01*
X4419600Y6680200D01*
X4419600Y6680200D02*
G01*
X4483100Y6680200D01*
X5778500Y4622800D02*
G01*
X5778500Y4749800D01*
X5778500Y4749800D02*
G01*
X5715000Y4749800D01*
X5715000Y4749800D02*
G01*
X5715000Y5130800D01*
X5715000Y5130800D02*
G01*
X5778500Y5130800D01*
X5778500Y5130800D02*
G01*
X5778500Y5257800D01*
X5778500Y5130800D02*
G01*
X5842000Y5130800D01*
X5842000Y5130800D02*
G01*
X5842000Y4749800D01*
X5842000Y4749800D02*
G01*
X5778500Y4749800D01*
X5600700Y4356100D02*
G01*
X5600700Y4483100D01*
X5600700Y4483100D02*
G01*
X5537200Y4483100D01*
X5537200Y4483100D02*
G01*
X5537200Y4864100D01*
X5537200Y4864100D02*
G01*
X5600700Y4864100D01*
X5600700Y4864100D02*
G01*
X5600700Y4991100D01*
X5600700Y4864100D02*
G01*
X5664200Y4864100D01*
X5664200Y4864100D02*
G01*
X5664200Y4483100D01*
X5664200Y4483100D02*
G01*
X5600700Y4483100D01*
X5346700Y4229100D02*
G01*
X5346700Y4356100D01*
X5346700Y4356100D02*
G01*
X5283200Y4356100D01*
X5283200Y4356100D02*
G01*
X5283200Y4737100D01*
X5283200Y4737100D02*
G01*
X5346700Y4737100D01*
X5346700Y4737100D02*
G01*
X5346700Y4864100D01*
X5346700Y4737100D02*
G01*
X5410200Y4737100D01*
X5410200Y4737100D02*
G01*
X5410200Y4356100D01*
X5410200Y4356100D02*
G01*
X5346700Y4356100D01*
X3048000Y8102600D02*
G01*
X3048000Y7975600D01*
X3048000Y7975600D02*
G01*
X3111500Y7975600D01*
X3111500Y7975600D02*
G01*
X3111500Y7594600D01*
X3111500Y7594600D02*
G01*
X3048000Y7594600D01*
X3048000Y7594600D02*
G01*
X3048000Y7467600D01*
X3048000Y7594600D02*
G01*
X2984500Y7594600D01*
X2984500Y7594600D02*
G01*
X2984500Y7975600D01*
X2984500Y7975600D02*
G01*
X3048000Y7975600D01*
X3340100Y8255000D02*
G01*
X3340100Y8128000D01*
X3340100Y8128000D02*
G01*
X3403600Y8128000D01*
X3403600Y8128000D02*
G01*
X3403600Y7747000D01*
X3403600Y7747000D02*
G01*
X3340100Y7747000D01*
X3340100Y7747000D02*
G01*
X3340100Y7620000D01*
X3340100Y7747000D02*
G01*
X3276600Y7747000D01*
X3276600Y7747000D02*
G01*
X3276600Y8128000D01*
X3276600Y8128000D02*
G01*
X3340100Y8128000D01*
X3606800Y8445500D02*
G01*
X3606800Y8318500D01*
X3606800Y8318500D02*
G01*
X3670300Y8318500D01*
X3670300Y8318500D02*
G01*
X3670300Y7937500D01*
X3670300Y7937500D02*
G01*
X3606800Y7937500D01*
X3606800Y7937500D02*
G01*
X3606800Y7810500D01*
X3606800Y7937500D02*
G01*
X3543300Y7937500D01*
X3543300Y7937500D02*
G01*
X3543300Y8318500D01*
X3543300Y8318500D02*
G01*
X3606800Y8318500D01*
X6692900Y3200400D02*
G01*
X6565900Y3200400D01*
X6565900Y3200400D02*
G01*
X6565900Y3136900D01*
X6565900Y3136900D02*
G01*
X6184900Y3136900D01*
X6184900Y3136900D02*
G01*
X6184900Y3200400D01*
X6184900Y3200400D02*
G01*
X6057900Y3200400D01*
X6184900Y3200400D02*
G01*
X6184900Y3263900D01*
X6184900Y3263900D02*
G01*
X6565900Y3263900D01*
X6565900Y3263900D02*
G01*
X6565900Y3200400D01*
X6527800Y3403600D02*
G01*
X6400800Y3403600D01*
X6400800Y3403600D02*
G01*
X6400800Y3340100D01*
X6400800Y3340100D02*
G01*
X6019800Y3340100D01*
X6019800Y3340100D02*
G01*
X6019800Y3403600D01*
X6019800Y3403600D02*
G01*
X5892800Y3403600D01*
X6019800Y3403600D02*
G01*
X6019800Y3467100D01*
X6019800Y3467100D02*
G01*
X6400800Y3467100D01*
X6400800Y3467100D02*
G01*
X6400800Y3403600D01*
X6350000Y3733800D02*
G01*
X6223000Y3733800D01*
X6223000Y3733800D02*
G01*
X6223000Y3670300D01*
X6223000Y3670300D02*
G01*
X5842000Y3670300D01*
X5842000Y3670300D02*
G01*
X5842000Y3733800D01*
X5842000Y3733800D02*
G01*
X5715000Y3733800D01*
X5842000Y3733800D02*
G01*
X5842000Y3797300D01*
X5842000Y3797300D02*
G01*
X6223000Y3797300D01*
X6223000Y3797300D02*
G01*
X6223000Y3733800D01*
X3441700Y6807200D02*
G01*
X3441700Y6680200D01*
X3441700Y6680200D02*
G01*
X3505200Y6680200D01*
X3505200Y6680200D02*
G01*
X3505200Y6299200D01*
X3505200Y6299200D02*
G01*
X3441700Y6299200D01*
X3441700Y6299200D02*
G01*
X3441700Y6172200D01*
X3441700Y6299200D02*
G01*
X3378200Y6299200D01*
X3378200Y6299200D02*
G01*
X3378200Y6680200D01*
X3378200Y6680200D02*
G01*
X3441700Y6680200D01*
X3175000Y6667500D02*
G01*
X3175000Y6540500D01*
X3175000Y6540500D02*
G01*
X3238500Y6540500D01*
X3238500Y6540500D02*
G01*
X3238500Y6159500D01*
X3238500Y6159500D02*
G01*
X3175000Y6159500D01*
X3175000Y6159500D02*
G01*
X3175000Y6032500D01*
X3175000Y6159500D02*
G01*
X3111500Y6159500D01*
X3111500Y6159500D02*
G01*
X3111500Y6540500D01*
X3111500Y6540500D02*
G01*
X3175000Y6540500D01*
X2463800Y6375400D02*
G01*
X2463800Y6248400D01*
X2463800Y6248400D02*
G01*
X2527300Y6248400D01*
X2527300Y6248400D02*
G01*
X2527300Y5867400D01*
X2527300Y5867400D02*
G01*
X2463800Y5867400D01*
X2463800Y5867400D02*
G01*
X2463800Y5740400D01*
X2463800Y5867400D02*
G01*
X2400300Y5867400D01*
X2400300Y5867400D02*
G01*
X2400300Y6248400D01*
X2400300Y6248400D02*
G01*
X2463800Y6248400D01*
X1917700Y4622800D02*
G01*
X1917700Y4495800D01*
X1917700Y4495800D02*
G01*
X1981200Y4495800D01*
X1981200Y4495800D02*
G01*
X1981200Y4114800D01*
X1981200Y4114800D02*
G01*
X1917700Y4114800D01*
X1917700Y4114800D02*
G01*
X1917700Y3987800D01*
X1917700Y4114800D02*
G01*
X1854200Y4114800D01*
X1854200Y4114800D02*
G01*
X1854200Y4495800D01*
X1854200Y4495800D02*
G01*
X1917700Y4495800D01*
X2171700Y4711700D02*
G01*
X2171700Y4584700D01*
X2171700Y4584700D02*
G01*
X2235200Y4584700D01*
X2235200Y4584700D02*
G01*
X2235200Y4203700D01*
X2235200Y4203700D02*
G01*
X2171700Y4203700D01*
X2171700Y4203700D02*
G01*
X2171700Y4076700D01*
X2171700Y4203700D02*
G01*
X2108200Y4203700D01*
X2108200Y4203700D02*
G01*
X2108200Y4584700D01*
X2108200Y4584700D02*
G01*
X2171700Y4584700D01*
X2438400Y4991100D02*
G01*
X2438400Y4864100D01*
X2438400Y4864100D02*
G01*
X2501900Y4864100D01*
X2501900Y4864100D02*
G01*
X2501900Y4483100D01*
X2501900Y4483100D02*
G01*
X2438400Y4483100D01*
X2438400Y4483100D02*
G01*
X2438400Y4356100D01*
X2438400Y4483100D02*
G01*
X2374900Y4483100D01*
X2374900Y4483100D02*
G01*
X2374900Y4864100D01*
X2374900Y4864100D02*
G01*
X2438400Y4864100D01*
X6632262Y2302578D02*
G01*
X6529517Y2377226D01*
X6529517Y2377226D02*
G01*
X6492194Y2325855D01*
X6492194Y2325855D02*
G01*
X6183957Y2549799D01*
X6183957Y2549799D02*
G01*
X6221282Y2601173D01*
X6221282Y2601173D02*
G01*
X6118537Y2675821D01*
X6221282Y2601173D02*
G01*
X6258605Y2652544D01*
X6258605Y2652544D02*
G01*
X6566842Y2428600D01*
X6566842Y2428600D02*
G01*
X6529517Y2377226D01*
X6661665Y2022218D02*
G01*
X6536999Y2046450D01*
X6536999Y2046450D02*
G01*
X6524884Y1984118D01*
X6524884Y1984118D02*
G01*
X6150884Y2056815D01*
X6150884Y2056815D02*
G01*
X6163000Y2119149D01*
X6163000Y2119149D02*
G01*
X6038334Y2143381D01*
X6163000Y2119149D02*
G01*
X6175115Y2181481D01*
X6175115Y2181481D02*
G01*
X6549115Y2108784D01*
X6549115Y2108784D02*
G01*
X6536999Y2046450D01*
X6623565Y1844418D02*
G01*
X6498899Y1868650D01*
X6498899Y1868650D02*
G01*
X6486784Y1806318D01*
X6486784Y1806318D02*
G01*
X6112784Y1879015D01*
X6112784Y1879015D02*
G01*
X6124900Y1941349D01*
X6124900Y1941349D02*
G01*
X6000234Y1965581D01*
X6124900Y1941349D02*
G01*
X6137015Y2003681D01*
X6137015Y2003681D02*
G01*
X6511015Y1930984D01*
X6511015Y1930984D02*
G01*
X6498899Y1868650D01*
X1778000Y3327400D02*
G01*
X1778000Y3200400D01*
X1778000Y3200400D02*
G01*
X1841500Y3200400D01*
X1841500Y3200400D02*
G01*
X1841500Y2819400D01*
X1841500Y2819400D02*
G01*
X1778000Y2819400D01*
X1778000Y2819400D02*
G01*
X1778000Y2692400D01*
X1778000Y2819400D02*
G01*
X1714500Y2819400D01*
X1714500Y2819400D02*
G01*
X1714500Y3200400D01*
X1714500Y3200400D02*
G01*
X1778000Y3200400D01*
X2006600Y3492500D02*
G01*
X2006600Y3365500D01*
X2006600Y3365500D02*
G01*
X2070100Y3365500D01*
X2070100Y3365500D02*
G01*
X2070100Y2984500D01*
X2070100Y2984500D02*
G01*
X2006600Y2984500D01*
X2006600Y2984500D02*
G01*
X2006600Y2857500D01*
X2006600Y2984500D02*
G01*
X1943100Y2984500D01*
X1943100Y2984500D02*
G01*
X1943100Y3365500D01*
X1943100Y3365500D02*
G01*
X2006600Y3365500D01*
X2374900Y3581400D02*
G01*
X2374900Y3454400D01*
X2374900Y3454400D02*
G01*
X2438400Y3454400D01*
X2438400Y3454400D02*
G01*
X2438400Y3073400D01*
X2438400Y3073400D02*
G01*
X2374900Y3073400D01*
X2374900Y3073400D02*
G01*
X2374900Y2946400D01*
X2374900Y3073400D02*
G01*
X2311400Y3073400D01*
X2311400Y3073400D02*
G01*
X2311400Y3454400D01*
X2311400Y3454400D02*
G01*
X2374900Y3454400D01*
X1212334Y1590418D02*
G01*
X1337000Y1614652D01*
X1337000Y1614652D02*
G01*
X1324881Y1676984D01*
X1324881Y1676984D02*
G01*
X1698884Y1749684D01*
X1698884Y1749684D02*
G01*
X1710999Y1687347D01*
X1710999Y1687347D02*
G01*
X1835665Y1711581D01*
X1710999Y1687347D02*
G01*
X1723118Y1625015D01*
X1723118Y1625015D02*
G01*
X1349115Y1552315D01*
X1349115Y1552315D02*
G01*
X1337000Y1614652D01*
X1458617Y1822825D02*
G01*
X1581292Y1855696D01*
X1581292Y1855696D02*
G01*
X1564855Y1917031D01*
X1564855Y1917031D02*
G01*
X1932873Y2015642D01*
X1932873Y2015642D02*
G01*
X1949307Y1954303D01*
X1949307Y1954303D02*
G01*
X2071982Y1987174D01*
X1949307Y1954303D02*
G01*
X1965744Y1892968D01*
X1965744Y1892968D02*
G01*
X1597726Y1794357D01*
X1597726Y1794357D02*
G01*
X1581292Y1855696D01*
X1697238Y2125677D02*
G01*
X1820981Y2154247D01*
X1820981Y2154247D02*
G01*
X1806696Y2216119D01*
X1806696Y2216119D02*
G01*
X2177933Y2301826D01*
X2177933Y2301826D02*
G01*
X2192218Y2239952D01*
X2192218Y2239952D02*
G01*
X2315961Y2268522D01*
X2192218Y2239952D02*
G01*
X2206503Y2178080D01*
X2206503Y2178080D02*
G01*
X1835266Y2092373D01*
X1835266Y2092373D02*
G01*
X1820981Y2154247D01*
X3581400Y3162300D02*
G01*
X3581400Y3035300D01*
X3581400Y3035300D02*
G01*
X3644900Y3035300D01*
X3644900Y3035300D02*
G01*
X3644900Y2654300D01*
X3644900Y2654300D02*
G01*
X3581400Y2654300D01*
X3581400Y2654300D02*
G01*
X3581400Y2527300D01*
X3581400Y2654300D02*
G01*
X3517900Y2654300D01*
X3517900Y2654300D02*
G01*
X3517900Y3035300D01*
X3517900Y3035300D02*
G01*
X3581400Y3035300D01*
X3390900Y3162300D02*
G01*
X3390900Y3035300D01*
X3390900Y3035300D02*
G01*
X3454400Y3035300D01*
X3454400Y3035300D02*
G01*
X3454400Y2654300D01*
X3454400Y2654300D02*
G01*
X3390900Y2654300D01*
X3390900Y2654300D02*
G01*
X3390900Y2527300D01*
X3390900Y2654300D02*
G01*
X3327400Y2654300D01*
X3327400Y2654300D02*
G01*
X3327400Y3035300D01*
X3327400Y3035300D02*
G01*
X3390900Y3035300D01*
X3022600Y3162300D02*
G01*
X3022600Y3035300D01*
X3022600Y3035300D02*
G01*
X3086100Y3035300D01*
X3086100Y3035300D02*
G01*
X3086100Y2654300D01*
X3086100Y2654300D02*
G01*
X3022600Y2654300D01*
X3022600Y2654300D02*
G01*
X3022600Y2527300D01*
X3022600Y2654300D02*
G01*
X2959100Y2654300D01*
X2959100Y2654300D02*
G01*
X2959100Y3035300D01*
X2959100Y3035300D02*
G01*
X3022600Y3035300D01*
X4787900Y3149600D02*
G01*
X4787900Y3022600D01*
X4787900Y3022600D02*
G01*
X4851400Y3022600D01*
X4851400Y3022600D02*
G01*
X4851400Y2641600D01*
X4851400Y2641600D02*
G01*
X4787900Y2641600D01*
X4787900Y2641600D02*
G01*
X4787900Y2514600D01*
X4787900Y2641600D02*
G01*
X4724400Y2641600D01*
X4724400Y2641600D02*
G01*
X4724400Y3022600D01*
X4724400Y3022600D02*
G01*
X4787900Y3022600D01*
X4597400Y3149600D02*
G01*
X4597400Y3022600D01*
X4597400Y3022600D02*
G01*
X4660900Y3022600D01*
X4660900Y3022600D02*
G01*
X4660900Y2641600D01*
X4660900Y2641600D02*
G01*
X4597400Y2641600D01*
X4597400Y2641600D02*
G01*
X4597400Y2514600D01*
X4597400Y2641600D02*
G01*
X4533900Y2641600D01*
X4533900Y2641600D02*
G01*
X4533900Y3022600D01*
X4533900Y3022600D02*
G01*
X4597400Y3022600D01*
X4229100Y3149600D02*
G01*
X4229100Y3022600D01*
X4229100Y3022600D02*
G01*
X4292600Y3022600D01*
X4292600Y3022600D02*
G01*
X4292600Y2641600D01*
X4292600Y2641600D02*
G01*
X4229100Y2641600D01*
X4229100Y2641600D02*
G01*
X4229100Y2514600D01*
X4229100Y2641600D02*
G01*
X4165600Y2641600D01*
X4165600Y2641600D02*
G01*
X4165600Y3022600D01*
X4165600Y3022600D02*
G01*
X4229100Y3022600D01*
X3576320Y1903257D02*
G01*
X3576320Y2403637D01*
X4318000Y2403637D01*
X4318000Y1903257D01*
X3578859Y1966757D02*
G01*
X4315459Y1966757D01*
X3616959Y2403637D02*
G01*
X3576320Y2403637D01*
X3576320Y2248697D01*
X4267200Y2403637D02*
G01*
X4318000Y2403637D01*
X4318000Y2238537D01*
X3576320Y1999777D02*
G01*
X3576320Y1908337D01*
X4318000Y1999777D02*
G01*
X4318000Y1908337D01*
X3616959Y1898177D02*
G01*
X3601364Y1901657D01*
X3601364Y1901657D02*
G01*
X3576320Y1900717D01*
X4318000Y1903257D02*
G01*
X4292244Y1901657D01*
X4292244Y1901657D02*
G01*
X4279900Y1900717D01*
X3652164Y1863557D02*
G01*
X4241444Y1863557D01*
X3652164Y1843237D02*
G01*
X4241444Y1843237D01*
X3636924Y1881337D02*
G01*
X3636924Y1878797D01*
X3636924Y1878797D02*
G01*
X3636924Y1858477D01*
X4256684Y1881337D02*
G01*
X4256684Y1878797D01*
X4256684Y1878797D02*
G01*
X4256684Y1858477D01*
X3578859Y1900717D02*
G01*
X3553459Y1857537D01*
X3550920Y1854997D02*
G01*
X3570884Y1843237D01*
X3570884Y1843237D02*
G01*
X3598824Y1888957D01*
X4315459Y1900717D02*
G01*
X4340859Y1857537D01*
X4340859Y1854997D02*
G01*
X4322724Y1843237D01*
X4322724Y1843237D02*
G01*
X4294784Y1886417D01*
X3241040Y2408717D02*
G01*
X3241040Y2459517D01*
X3393440Y2459517D01*
X3393440Y2415539D01*
X3190240Y2053117D02*
G01*
X3444240Y2053117D01*
X3444240Y2408717D01*
X3190240Y2408717D01*
X3190240Y2053117D01*
X3241040Y2053117D01*
X3241040Y2002317D01*
X3393440Y2002317D01*
X3393440Y2053117D01*
X4495800Y2408717D02*
G01*
X4495800Y2459517D01*
X4648200Y2459517D01*
X4648200Y2418079D01*
X4445000Y2053117D02*
G01*
X4699000Y2053117D01*
X4699000Y2408717D01*
X4445000Y2408717D01*
X4445000Y2053117D01*
X4495800Y2053117D01*
X4495800Y2002317D01*
X4648200Y2002317D01*
X4648200Y2053117D01*
X3015236Y6755899D02*
G01*
X3015236Y5405889D01*
X3015236Y4205993D01*
X3015236Y4205993D02*
G01*
X4815334Y4205993D01*
X3015236Y6755899D02*
G01*
X4815334Y6755899D01*
X4815334Y6755899D02*
G01*
X4815334Y4205993D01*
X3015236Y6155951D02*
G01*
X4615182Y6155951D01*
X4815334Y6155951D01*
D17*
X4671062Y6207259D02*
G01*
X4671062Y6669539D01*
X4127502Y6669539D01*
X4127502Y6410459D01*
X3868422Y6410459D01*
X3868422Y6669539D01*
X3614422Y6669539D01*
X3614422Y6410459D01*
X3373122Y6410459D01*
X3373122Y6669539D01*
X3169922Y6669539D01*
X3169922Y6207259D01*
X4404362Y6199639D02*
G01*
X4404362Y6668269D01*
D12*
X3162302Y5902459D02*
G01*
X3162302Y4378459D01*
X4686302Y4378459D01*
X4686302Y5902459D01*
X3162302Y5902459D01*
X2754302Y6791957D02*
G01*
X5094297Y6791957D01*
X5194297Y6691957D02*
G01*
X5194297Y2065964D01*
X5094297Y1965965D02*
G01*
X2754302Y1965965D01*
X2654302Y2065964D02*
G01*
X2654302Y6691957D01*
G75*
G01*
X3594100Y1900718D02*
G02*
X3638550Y1885224I6997J-51434D01*
G75*
G01*
X3638550Y1880652D02*
G03*
X3653790Y1866174I15002J531D01*
G75*
G01*
X3638550Y1860078D02*
G03*
X3653790Y1844584I15004J-485D01*
G75*
G01*
X4243324Y1844584D02*
G03*
X4258564Y1860078I236J15009D01*
G75*
G01*
X4243324Y1866174D02*
G03*
X4258564Y1880652I238J15009D01*
G75*
G01*
X4258564Y1885224D02*
G02*
X4297680Y1900718I32959J-26085D01*
G75*
G01*
X3600196Y1890558D02*
G03*
X3604260Y1900718I-11596J10531D01*
G75*
G01*
X4297426Y1890050D02*
G02*
X4295140Y1900718I13209J8409D01*
G75*
G01*
X5094298Y6791957D02*
G02*
X5194297Y6691958I0J-99999D01*
G75*
G01*
X5194297Y2065965D02*
G02*
X5094298Y1965965I-99999J0D01*
G75*
G01*
X2754302Y1965965D02*
G02*
X2654303Y2065965I0J100000D01*
G75*
G01*
X2654303Y6691958D02*
G02*
X2754302Y6791957I99999J0D01*
G75*
G01
X3317240Y2218207D02*
G03X3317240Y2218207I-12700J0D01*
G75*
G01
X3342640Y2243607D02*
G03X3342640Y2243607I-12700J0D01*
G75*
G01
X3342640Y2230907D02*
G03X3342640Y2230907I-25400J0D01*
G75*
G01
X3368040Y2230907D02*
G03X3368040Y2230907I-50800J0D01*
G75*
G01
X3393440Y2230907D02*
G03X3393440Y2230907I-76200J0D01*
G75*
G01
X4572000Y2218207D02*
G03X4572000Y2218207I-12700J0D01*
G75*
G01
X4597400Y2243607D02*
G03X4597400Y2243607I-12700J0D01*
G75*
G01
X4597400Y2230907D02*
G03X4597400Y2230907I-25400J0D01*
G75*
G01
X4622800Y2230907D02*
G03X4622800Y2230907I-50800J0D01*
G75*
G01
X4648200Y2230907D02*
G03X4648200Y2230907I-76200J0D01*
M02*
