G04 Layer: BoardOutline*
G04 EasyEDA v6.4.25, 2021-12-23T10:59:56+01:00*
G04 4c1ba96cef074ee2a20bac9ac7328723,10*
G04 Gerber Generator version 0.2*
G04 Scale: 100 percent, Rotated: No, Reflected: No *
G04 Dimensions in millimeters *
G04 leading zeros omitted , absolute positions ,4 integer and 5 decimal *
%FSLAX45Y45*%
%MOMM*%

%ADD10C,0.1520*%
%ADD11C,0.1524*%
D10*
X4038600Y203200D02*
G01*
X3124200Y203200D01*
D11*
X4203700Y203200D02*
G01*
X4203700Y1016000D01*
X4043679Y1016000D01*
X4043679Y203200D01*
D10*
X4203700Y203200D02*
G01*
X5156200Y203200D01*
D11*
X2750814Y1831342D02*
G01*
X1607820Y1549400D01*
X4630414Y1366520D02*
G01*
X5153670Y205737D01*
X3124200Y203200D02*
G01*
X3434085Y1379220D01*
X7640314Y3119120D02*
G01*
X7607300Y3045457D01*
X7487914Y1455420D02*
G01*
X5212085Y1884679D01*
X1663700Y2989579D02*
G01*
X1277620Y2974342D01*
X6306814Y3078479D02*
G01*
X7061200Y2377442D01*
X5212085Y1884679D02*
G01*
X4650742Y1897379D01*
X4409442Y9263379D02*
G01*
X5346700Y8163557D01*
X5346700Y8163557D02*
G01*
X5433057Y8056879D01*
X5433057Y8056879D02*
G01*
X5476242Y8003542D01*
X5476242Y8003542D02*
G01*
X5473700Y7934957D01*
X5473700Y7934957D02*
G01*
X5326385Y7739379D01*
X5326385Y7739379D02*
G01*
X5186685Y7696200D01*
X5186685Y7696200D02*
G01*
X5130800Y7663179D01*
X5130800Y7663179D02*
G01*
X5156200Y7602220D01*
X5156200Y7602220D02*
G01*
X5278114Y7401557D01*
X5278114Y7401557D02*
G01*
X5996942Y6728457D01*
X5996942Y6728457D02*
G01*
X6228085Y6487157D01*
X6228085Y6487157D02*
G01*
X6248400Y6456679D01*
X6248400Y6456679D02*
G01*
X6250942Y6416042D01*
X6250942Y6416042D02*
G01*
X6215385Y6352542D01*
X6215385Y6352542D02*
G01*
X6111242Y6273800D01*
X6111242Y6273800D02*
G01*
X5575300Y6174742D01*
X5575300Y6174742D02*
G01*
X6339842Y5394957D01*
X6339842Y5394957D02*
G01*
X6781800Y5041900D01*
X6781800Y5041900D02*
G01*
X6990085Y4861557D01*
X6990085Y4861557D02*
G01*
X7033257Y4815842D01*
X7033257Y4815842D02*
G01*
X7035800Y4752342D01*
X7035800Y4752342D02*
G01*
X6985000Y4627879D01*
X6985000Y4627879D02*
G01*
X6192514Y4551679D01*
X6192514Y4551679D02*
G01*
X6883400Y3804920D01*
X6883400Y3804920D02*
G01*
X7297414Y3477257D01*
X7297414Y3477257D02*
G01*
X7490457Y3309620D01*
X7490457Y3309620D02*
G01*
X7579357Y3225800D01*
X7579357Y3225800D02*
G01*
X7620000Y3182620D01*
X7620000Y3182620D02*
G01*
X7640314Y3159757D01*
X7640314Y3159757D02*
G01*
X7640314Y3119120D01*
X7607300Y3045457D02*
G01*
X7533642Y3012442D01*
X7533642Y3012442D02*
G01*
X7360914Y2989579D01*
X7360914Y2989579D02*
G01*
X6997700Y3030220D01*
X6997700Y3030220D02*
G01*
X6306814Y3078479D01*
X7061200Y2377442D02*
G01*
X7917185Y1750057D01*
X7917185Y1750057D02*
G01*
X8087357Y1582420D01*
X8087357Y1582420D02*
G01*
X8051800Y1506220D01*
X8051800Y1506220D02*
G01*
X7975600Y1490979D01*
X7975600Y1490979D02*
G01*
X7810500Y1468120D01*
X7810500Y1468120D02*
G01*
X7487914Y1455420D01*
X4650742Y1897379D02*
G01*
X4572000Y1889757D01*
X4572000Y1889757D02*
G01*
X4572000Y1816100D01*
X4572000Y1816100D02*
G01*
X4582157Y1668779D01*
X4582157Y1668779D02*
G01*
X4630414Y1366520D01*
X3434085Y1379220D02*
G01*
X3421385Y1676400D01*
X3421385Y1676400D02*
G01*
X3406142Y1818642D01*
X3406142Y1818642D02*
G01*
X3393442Y1887220D01*
X3393442Y1887220D02*
G01*
X3314700Y1887220D01*
X3314700Y1887220D02*
G01*
X2750814Y1831342D01*
X1607820Y1549400D02*
G01*
X1102357Y1386842D01*
X1102357Y1386842D02*
G01*
X652779Y1303020D01*
X652779Y1303020D02*
G01*
X317500Y1424942D01*
X317500Y1424942D02*
G01*
X1663700Y2989579D01*
X1277620Y2974342D02*
G01*
X876300Y2867657D01*
X876300Y2867657D02*
G01*
X693420Y2913379D01*
X693420Y2913379D02*
G01*
X655320Y2943857D01*
X655320Y2943857D02*
G01*
X665479Y2992120D01*
X665479Y2992120D02*
G01*
X721357Y3106420D01*
X721357Y3106420D02*
G01*
X1016000Y3507742D01*
X1016000Y3507742D02*
G01*
X1648457Y4300220D01*
X1648457Y4300220D02*
G01*
X1699257Y4404357D01*
X1699257Y4404357D02*
G01*
X1719579Y4460242D01*
X1719579Y4460242D02*
G01*
X1714500Y4483100D01*
X1714500Y4483100D02*
G01*
X1676400Y4498342D01*
X1676400Y4498342D02*
G01*
X1422400Y4460242D01*
X1422400Y4460242D02*
G01*
X1297942Y4439920D01*
X1297942Y4439920D02*
G01*
X1206500Y4493257D01*
X1206500Y4493257D02*
G01*
X1168400Y4531357D01*
X1168400Y4531357D02*
G01*
X1158242Y4577079D01*
X1158242Y4577079D02*
G01*
X1188720Y4691379D01*
X1188720Y4691379D02*
G01*
X1724657Y5450842D01*
X1724657Y5450842D02*
G01*
X2319014Y6192520D01*
X2319014Y6192520D02*
G01*
X2334257Y6228079D01*
X2334257Y6228079D02*
G01*
X1910079Y6289042D01*
X1910079Y6289042D02*
G01*
X1823720Y6342379D01*
X1823720Y6342379D02*
G01*
X1788157Y6385557D01*
X1788157Y6385557D02*
G01*
X1780542Y6449057D01*
X1780542Y6449057D02*
G01*
X1780542Y6512557D01*
X1780542Y6512557D02*
G01*
X1805942Y6568442D01*
X1805942Y6568442D02*
G01*
X1892300Y6682742D01*
X1892300Y6682742D02*
G01*
X2623814Y7518400D01*
X2623814Y7518400D02*
G01*
X2755900Y7744457D01*
X2755900Y7744457D02*
G01*
X2405385Y7988300D01*
X2405385Y7988300D02*
G01*
X2468885Y8227057D01*
X2468885Y8227057D02*
G01*
X2603500Y8420100D01*
X2603500Y8420100D02*
G01*
X3429000Y9283700D01*
X3429000Y9283700D02*
G01*
X3931914Y10002520D01*
X3931914Y10002520D02*
G01*
X4409442Y9263379D01*

%LPD*%
M02*
