G04 Layer: BottomSolderMaskLayer*
G04 EasyEDA v6.4.25, 2021-11-28T16:05:41+01:00*
G04 4c1ba96cef074ee2a20bac9ac7328723,10*
G04 Gerber Generator version 0.2*
G04 Scale: 100 percent, Rotated: No, Reflected: No *
G04 Dimensions in millimeters *
G04 leading zeros omitted , absolute positions ,4 integer and 5 decimal *
%FSLAX45Y45*%
%MOMM*%

%ADD20C,1.6032*%
%ADD21R,1.6002X1.6002*%
%ADD22C,1.7272*%

%LPD*%
D20*
G01*
X3209513Y2159000D03*
G01*
X3579489Y2159000D03*
G01*
X3024499Y2159000D03*
G01*
X3394501Y2159000D03*
G01*
X4416013Y2171700D03*
G01*
X4785989Y2171700D03*
G01*
X4230999Y2171700D03*
G01*
X4601001Y2171700D03*
G01*
X7100676Y2086361D03*
G01*
X7399992Y1868896D03*
G01*
X6950997Y2195111D03*
G01*
X7250336Y1977628D03*
G01*
X6772419Y3612939D03*
G01*
X7063963Y3385159D03*
G01*
X6626626Y3726845D03*
G01*
X6918192Y3499050D03*
G01*
X6213619Y5162339D03*
G01*
X6505166Y4934559D03*
G01*
X6067826Y5276245D03*
G01*
X6359392Y5048450D03*
G01*
X5444159Y6908375D03*
G01*
X5714743Y6656052D03*
G01*
X5308848Y7034555D03*
G01*
X5579450Y6782214D03*
G01*
X4588751Y8694148D03*
G01*
X4826566Y8410729D03*
G01*
X4469825Y8835877D03*
G01*
X4707658Y8552441D03*
G01*
X3035724Y8593759D03*
G01*
X3288047Y8864343D03*
G01*
X2909547Y8458448D03*
G01*
X3161885Y8729050D03*
G01*
X2352324Y6839000D03*
G01*
X2595049Y7118222D03*
G01*
X2230942Y6699369D03*
G01*
X2473685Y6978611D03*
G01*
X1713583Y5028725D03*
G01*
X1920471Y5335450D03*
G01*
X1610123Y4875342D03*
G01*
X1817027Y5182087D03*
G01*
X1329938Y3468479D03*
G01*
X1547403Y3767792D03*
G01*
X1221188Y3318797D03*
G01*
X1438671Y3618136D03*
G01*
X1043015Y1950570D03*
G01*
X1290576Y2225514D03*
G01*
X919215Y1813077D03*
G01*
X1166794Y2088040D03*
G36*
X4466590Y8149589D02*
G01*
X4466590Y8309610D01*
X4626609Y8309610D01*
X4626609Y8149589D01*
G37*
G36*
X4466590Y7387589D02*
G01*
X4466590Y7547610D01*
X4626609Y7547610D01*
X4626609Y7387589D01*
G37*
G36*
X4161790Y8238489D02*
G01*
X4161790Y8398510D01*
X4321809Y8398510D01*
X4321809Y8238489D01*
G37*
G36*
X4161790Y7476489D02*
G01*
X4161790Y7636510D01*
X4321809Y7636510D01*
X4321809Y7476489D01*
G37*
G36*
X3844290Y8441689D02*
G01*
X3844290Y8601710D01*
X4004309Y8601710D01*
X4004309Y8441689D01*
G37*
G36*
X3844290Y7679689D02*
G01*
X3844290Y7839710D01*
X4004309Y7839710D01*
X4004309Y7679689D01*
G37*
G36*
X5444490Y6206489D02*
G01*
X5444490Y6366510D01*
X5604509Y6366510D01*
X5604509Y6206489D01*
G37*
G36*
X5444490Y5444489D02*
G01*
X5444490Y5604510D01*
X5604509Y5604510D01*
X5604509Y5444489D01*
G37*
G36*
X4682490Y6650989D02*
G01*
X4682490Y6811010D01*
X4842509Y6811010D01*
X4842509Y6650989D01*
G37*
G36*
X4682490Y5888989D02*
G01*
X4682490Y6049010D01*
X4842509Y6049010D01*
X4842509Y5888989D01*
G37*
G36*
X4403090Y6790689D02*
G01*
X4403090Y6950710D01*
X4563109Y6950710D01*
X4563109Y6790689D01*
G37*
G36*
X4403090Y6028689D02*
G01*
X4403090Y6188710D01*
X4563109Y6188710D01*
X4563109Y6028689D01*
G37*
D21*
G01*
X5778500Y4559300D03*
G01*
X5778500Y5321300D03*
G01*
X5600700Y4292600D03*
G01*
X5600700Y5054600D03*
G01*
X5346700Y4165600D03*
G01*
X5346700Y4927600D03*
G36*
X2967990Y8086089D02*
G01*
X2967990Y8246110D01*
X3128009Y8246110D01*
X3128009Y8086089D01*
G37*
G36*
X2967990Y7324089D02*
G01*
X2967990Y7484110D01*
X3128009Y7484110D01*
X3128009Y7324089D01*
G37*
G36*
X3260090Y8238489D02*
G01*
X3260090Y8398510D01*
X3420109Y8398510D01*
X3420109Y8238489D01*
G37*
G36*
X3260090Y7476489D02*
G01*
X3260090Y7636510D01*
X3420109Y7636510D01*
X3420109Y7476489D01*
G37*
G36*
X3526790Y8428989D02*
G01*
X3526790Y8589010D01*
X3686809Y8589010D01*
X3686809Y8428989D01*
G37*
G36*
X3526790Y7666989D02*
G01*
X3526790Y7827010D01*
X3686809Y7827010D01*
X3686809Y7666989D01*
G37*
G36*
X6676390Y3120389D02*
G01*
X6676390Y3280410D01*
X6836409Y3280410D01*
X6836409Y3120389D01*
G37*
G36*
X5914390Y3120389D02*
G01*
X5914390Y3280410D01*
X6074409Y3280410D01*
X6074409Y3120389D01*
G37*
G36*
X6511290Y3323589D02*
G01*
X6511290Y3483610D01*
X6671309Y3483610D01*
X6671309Y3323589D01*
G37*
G36*
X5749290Y3323589D02*
G01*
X5749290Y3483610D01*
X5909309Y3483610D01*
X5909309Y3323589D01*
G37*
G36*
X6333490Y3653789D02*
G01*
X6333490Y3813810D01*
X6493509Y3813810D01*
X6493509Y3653789D01*
G37*
G36*
X5571490Y3653789D02*
G01*
X5571490Y3813810D01*
X5731509Y3813810D01*
X5731509Y3653789D01*
G37*
G36*
X3361690Y6790689D02*
G01*
X3361690Y6950710D01*
X3521709Y6950710D01*
X3521709Y6790689D01*
G37*
G36*
X3361690Y6028689D02*
G01*
X3361690Y6188710D01*
X3521709Y6188710D01*
X3521709Y6028689D01*
G37*
G36*
X3094990Y6650989D02*
G01*
X3094990Y6811010D01*
X3255009Y6811010D01*
X3255009Y6650989D01*
G37*
G36*
X3094990Y5888989D02*
G01*
X3094990Y6049010D01*
X3255009Y6049010D01*
X3255009Y5888989D01*
G37*
G36*
X2383790Y6358889D02*
G01*
X2383790Y6518910D01*
X2543809Y6518910D01*
X2543809Y6358889D01*
G37*
G36*
X2383790Y5596889D02*
G01*
X2383790Y5756910D01*
X2543809Y5756910D01*
X2543809Y5596889D01*
G37*
G36*
X1837689Y4606289D02*
G01*
X1837689Y4766310D01*
X1997709Y4766310D01*
X1997709Y4606289D01*
G37*
G36*
X1837689Y3844289D02*
G01*
X1837689Y4004310D01*
X1997709Y4004310D01*
X1997709Y3844289D01*
G37*
G36*
X2091690Y4695189D02*
G01*
X2091690Y4855210D01*
X2251709Y4855210D01*
X2251709Y4695189D01*
G37*
G36*
X2091690Y3933189D02*
G01*
X2091690Y4093210D01*
X2251709Y4093210D01*
X2251709Y3933189D01*
G37*
G36*
X2358390Y4974589D02*
G01*
X2358390Y5134610D01*
X2518409Y5134610D01*
X2518409Y4974589D01*
G37*
G36*
X2358390Y4212589D02*
G01*
X2358390Y4372610D01*
X2518409Y4372610D01*
X2518409Y4212589D01*
G37*
G36*
X6701281Y2153412D02*
G01*
X6571995Y2247645D01*
X6665975Y2376931D01*
X6795515Y2282952D01*
G37*
G36*
X6084824Y2601468D02*
G01*
X5955284Y2695447D01*
X6049518Y2824987D01*
X6178804Y2730754D01*
G37*
G36*
X6787388Y1916176D02*
G01*
X6630161Y1946910D01*
X6660641Y2103881D01*
X6817868Y2073402D01*
G37*
G36*
X6039358Y2061718D02*
G01*
X5882131Y2092197D01*
X5912611Y2249423D01*
X6069838Y2218689D01*
G37*
G36*
X6749288Y1738376D02*
G01*
X6592061Y1769110D01*
X6622541Y1926081D01*
X6779768Y1895602D01*
G37*
G36*
X6001258Y1883918D02*
G01*
X5844031Y1914397D01*
X5874511Y2071623D01*
X6031738Y2040889D01*
G37*
G36*
X1697989Y3310889D02*
G01*
X1697989Y3470910D01*
X1858010Y3470910D01*
X1858010Y3310889D01*
G37*
G36*
X1697989Y2548889D02*
G01*
X1697989Y2708910D01*
X1858010Y2708910D01*
X1858010Y2548889D01*
G37*
G36*
X1926589Y3475989D02*
G01*
X1926589Y3636010D01*
X2086609Y3636010D01*
X2086609Y3475989D01*
G37*
G36*
X1926589Y2713989D02*
G01*
X1926589Y2874010D01*
X2086609Y2874010D01*
X2086609Y2713989D01*
G37*
G36*
X2294890Y3564889D02*
G01*
X2294890Y3724910D01*
X2454909Y3724910D01*
X2454909Y3564889D01*
G37*
G36*
X2294890Y2802889D02*
G01*
X2294890Y2962910D01*
X2454909Y2962910D01*
X2454909Y2802889D01*
G37*
G36*
X1086612Y1484376D02*
G01*
X1056131Y1641602D01*
X1213357Y1672081D01*
X1243837Y1515110D01*
G37*
G36*
X1834642Y1629918D02*
G01*
X1804162Y1786889D01*
X1961388Y1817623D01*
X1991868Y1660397D01*
G37*
G36*
X1340612Y1708404D02*
G01*
X1299210Y1863089D01*
X1453895Y1904492D01*
X1495297Y1749805D01*
G37*
G36*
X2076704Y1905507D02*
G01*
X2035302Y2060194D01*
X2189988Y2101595D01*
X2231390Y1946910D01*
G37*
G36*
X1575307Y2015489D02*
G01*
X1539494Y2171445D01*
X1695450Y2207260D01*
X1731263Y2051557D01*
G37*
G36*
X2317750Y2186939D02*
G01*
X2281936Y2342642D01*
X2437891Y2378710D01*
X2473706Y2222754D01*
G37*
G36*
X3501390Y3145789D02*
G01*
X3501390Y3305810D01*
X3661409Y3305810D01*
X3661409Y3145789D01*
G37*
G36*
X3501390Y2383789D02*
G01*
X3501390Y2543810D01*
X3661409Y2543810D01*
X3661409Y2383789D01*
G37*
G36*
X3310890Y3145789D02*
G01*
X3310890Y3305810D01*
X3470909Y3305810D01*
X3470909Y3145789D01*
G37*
G36*
X3310890Y2383789D02*
G01*
X3310890Y2543810D01*
X3470909Y2543810D01*
X3470909Y2383789D01*
G37*
G36*
X2942590Y3145789D02*
G01*
X2942590Y3305810D01*
X3102609Y3305810D01*
X3102609Y3145789D01*
G37*
G36*
X2942590Y2383789D02*
G01*
X2942590Y2543810D01*
X3102609Y2543810D01*
X3102609Y2383789D01*
G37*
G36*
X4707890Y3133089D02*
G01*
X4707890Y3293110D01*
X4867909Y3293110D01*
X4867909Y3133089D01*
G37*
G36*
X4707890Y2371089D02*
G01*
X4707890Y2531110D01*
X4867909Y2531110D01*
X4867909Y2371089D01*
G37*
G36*
X4517390Y3133089D02*
G01*
X4517390Y3293110D01*
X4677409Y3293110D01*
X4677409Y3133089D01*
G37*
G36*
X4517390Y2371089D02*
G01*
X4517390Y2531110D01*
X4677409Y2531110D01*
X4677409Y2371089D01*
G37*
G36*
X4149090Y3133089D02*
G01*
X4149090Y3293110D01*
X4309109Y3293110D01*
X4309109Y3133089D01*
G37*
G36*
X4149090Y2371089D02*
G01*
X4149090Y2531110D01*
X4309109Y2531110D01*
X4309109Y2371089D01*
G37*
D22*
G01*
X2781300Y6667500D03*
G01*
X2781300Y6413500D03*
G01*
X2781300Y6159500D03*
G01*
X2781300Y5905500D03*
G01*
X2781300Y5651500D03*
G01*
X2781300Y5397500D03*
G01*
X2781300Y5143500D03*
G01*
X2781300Y4889500D03*
G01*
X2781300Y4635500D03*
G01*
X2781300Y4381500D03*
G01*
X2781300Y4127500D03*
G01*
X2781300Y3873500D03*
G01*
X2781300Y3619500D03*
G01*
X2781300Y3365500D03*
G01*
X2781300Y3111500D03*
G01*
X2781300Y2857500D03*
G01*
X2781300Y2603500D03*
G01*
X2781300Y2349500D03*
G01*
X2781300Y2095500D03*
G01*
X5067300Y2095500D03*
G01*
X5067300Y2349500D03*
G01*
X5067300Y2603500D03*
G01*
X5067300Y2857500D03*
G01*
X5067300Y3111500D03*
G01*
X5067300Y3365500D03*
G01*
X5067300Y3619500D03*
G01*
X5067300Y3873500D03*
G01*
X5067300Y4127500D03*
G01*
X5067300Y4381500D03*
G01*
X5067300Y4635500D03*
G01*
X5067300Y4889500D03*
G01*
X5067300Y5143500D03*
G01*
X5067300Y5397500D03*
G01*
X5067300Y5651500D03*
G01*
X5067300Y5905500D03*
G01*
X5067300Y6159500D03*
G01*
X5067300Y6413500D03*
G01*
X5067300Y6667500D03*
M02*
