G04 Layer: BottomLayer*
G04 EasyEDA v6.4.25, 2021-11-28T16:05:41+01:00*
G04 4c1ba96cef074ee2a20bac9ac7328723,10*
G04 Gerber Generator version 0.2*
G04 Scale: 100 percent, Rotated: No, Reflected: No *
G04 Dimensions in millimeters *
G04 leading zeros omitted , absolute positions ,4 integer and 5 decimal *
%FSLAX45Y45*%
%MOMM*%

%ADD12C,0.2540*%
%ADD14C,1.4000*%
%ADD15R,1.3970X1.3970*%
%ADD16C,1.5240*%

%LPD*%
D12*
X3581400Y3225800D02*
G01*
X3581400Y3314700D01*
X3962400Y3695700D01*
X4381500Y3695700D01*
X5067300Y4381500D01*
X5067300Y4635500D02*
G01*
X4533900Y4635500D01*
X3390900Y3492500D01*
X3390900Y3225800D01*
X3022600Y3225800D02*
G01*
X3022600Y3340100D01*
X3289300Y3606800D01*
X3289300Y3632200D01*
X4457700Y4800600D01*
X4978400Y4800600D01*
X5067300Y4889500D01*
X3048000Y7404100D02*
G01*
X3276600Y7404100D01*
X3962400Y6718300D01*
X3962400Y6426200D01*
X3098800Y5562600D01*
X2946400Y5562600D01*
X2781300Y5397500D01*
X4241800Y7556500D02*
G01*
X4241800Y6604000D01*
X2781300Y5143500D01*
X4546600Y7467600D02*
G01*
X4546600Y7188200D01*
X4292600Y6934200D01*
X4292600Y6400800D01*
X2781300Y4889500D01*
X2276932Y3644900D02*
G01*
X2154047Y3767785D01*
X1547393Y3767785D01*
X5067300Y3873500D02*
G01*
X5283200Y3873500D01*
X5321300Y3911600D01*
X5321300Y3915232D01*
X5473674Y4067606D01*
X5963462Y4392853D02*
G01*
X5963462Y4223562D01*
X5626100Y3886200D01*
X5461000Y3886200D01*
X5308600Y3733800D01*
X5181600Y3733800D01*
X5067300Y3619500D01*
X5651500Y3733800D02*
G01*
X5435600Y3733800D01*
X5067300Y3365500D01*
X3035731Y8592820D02*
G01*
X2946400Y8674100D01*
X3365500Y9118600D01*
X4406900Y9118600D01*
X4699000Y8775700D01*
X4588763Y8694420D01*
X4546600Y7467600D02*
G01*
X4546600Y7962900D01*
X3606800Y7962900D01*
X3606800Y7747000D01*
X6723989Y2010105D02*
G01*
X6756476Y1977618D01*
X7250328Y1977618D01*
X5600700Y4194632D02*
G01*
X5473674Y4067606D01*
X5256758Y4067606D01*
X5238241Y4086123D01*
X5238241Y4242155D01*
X6044539Y5048453D01*
X6359397Y5048453D01*
X5600700Y4292600D02*
G01*
X5600700Y4194632D01*
X1680032Y3390900D02*
G01*
X1607921Y3318789D01*
X1221181Y3318789D01*
X1778000Y3390900D02*
G01*
X1680032Y3390900D01*
X6067170Y2713151D02*
G01*
X5651500Y3128822D01*
X5651500Y3733800D01*
X1043025Y1950567D02*
G01*
X1300886Y1692706D01*
X1650771Y1692706D01*
X1891055Y1932990D01*
X1329944Y3468471D02*
G01*
X1231137Y3468471D01*
X1112520Y3349853D01*
X1112520Y3288664D01*
X1373555Y3027629D01*
X1677847Y3027629D01*
X1891055Y2814421D01*
X1891055Y1932990D01*
X1891055Y1932990D02*
G01*
X1934159Y1889887D01*
X2940405Y1889887D01*
X3209518Y2159000D01*
X4416018Y2171700D02*
G01*
X4299889Y2055571D01*
X3312947Y2055571D01*
X3209518Y2159000D01*
X6683629Y2265248D02*
G01*
X6880859Y2265248D01*
X6950989Y2195118D01*
X6756400Y3200400D02*
G01*
X6879209Y3200400D01*
X7063968Y3385159D01*
X6413500Y3733800D02*
G01*
X6619671Y3733800D01*
X6626631Y3726840D01*
X6591300Y3403600D02*
G01*
X6822744Y3403600D01*
X6918197Y3499053D01*
X5346700Y4263567D02*
G01*
X5475986Y4392853D01*
X5963462Y4392853D01*
X6505168Y4934559D01*
X5346700Y4165600D02*
G01*
X5346700Y4263567D01*
X4483100Y6870700D02*
G01*
X5144998Y6870700D01*
X5308854Y7034555D01*
X4860467Y6731000D02*
G01*
X4911674Y6782206D01*
X5579440Y6782206D01*
X4762500Y6731000D02*
G01*
X4860467Y6731000D01*
X4546600Y8229600D02*
G01*
X4645431Y8229600D01*
X4826558Y8410727D01*
X3924300Y8521700D02*
G01*
X4155643Y8521700D01*
X4469815Y8835872D01*
X4339767Y8318500D02*
G01*
X4573701Y8552434D01*
X4707661Y8552434D01*
X4241800Y8318500D02*
G01*
X4339767Y8318500D01*
X3606800Y8606967D02*
G01*
X3545433Y8606967D01*
X3288055Y8864345D01*
X3606800Y8509000D02*
G01*
X3606800Y8606967D01*
X3343732Y6870700D02*
G01*
X3096209Y7118222D01*
X2595041Y7118222D01*
X3441700Y6870700D02*
G01*
X3343732Y6870700D01*
X2463800Y6536867D02*
G01*
X2393441Y6536867D01*
X2230932Y6699377D01*
X2463800Y6438900D02*
G01*
X2463800Y6536867D01*
X3077032Y6731000D02*
G01*
X2829407Y6978624D01*
X2473680Y6978624D01*
X3175000Y6731000D02*
G01*
X3077032Y6731000D01*
X2340432Y5054600D02*
G01*
X2059584Y5335447D01*
X1920468Y5335447D01*
X2438400Y5054600D02*
G01*
X2340432Y5054600D01*
X1917700Y4686300D02*
G01*
X1799183Y4686300D01*
X1610131Y4875352D01*
X2171700Y4873167D02*
G01*
X2125954Y4873167D01*
X1817039Y5182082D01*
X2171700Y4775200D02*
G01*
X2171700Y4873167D01*
X2374900Y3644900D02*
G01*
X2276932Y3644900D01*
X1908632Y3556000D02*
G01*
X1846503Y3618128D01*
X1438681Y3618128D01*
X2006600Y3556000D02*
G01*
X1908632Y3556000D01*
X1635353Y2111400D02*
G01*
X1404696Y2111400D01*
X1290573Y2225522D01*
X1397279Y1806397D02*
G01*
X1166799Y2036876D01*
X1166799Y2088032D01*
X3340100Y7556500D02*
G01*
X4241800Y7556500D01*
X3048000Y7502067D02*
G01*
X3202101Y7656169D01*
X3461842Y7656169D01*
X3469004Y7649006D01*
X3715638Y7649006D01*
X3826332Y7759700D01*
X3048000Y7404100D02*
G01*
X3048000Y7502067D01*
X3924300Y7759700D02*
G01*
X3826332Y7759700D01*
X5502732Y5054600D02*
G01*
X5502732Y5109718D01*
X5087950Y5524500D01*
X5025897Y5524500D01*
X4762500Y5787897D01*
X4762500Y5969000D01*
X5600700Y5054600D02*
G01*
X5502732Y5054600D01*
X5778500Y5321300D02*
G01*
X5778500Y5455462D01*
X5215940Y6018021D01*
X5011927Y6018021D01*
X4921250Y6108700D01*
X4483100Y6108700D01*
X4787900Y3213100D02*
G01*
X4627473Y3373526D01*
X3827094Y3373526D01*
X3679367Y3225800D01*
X3581400Y3225800D02*
G01*
X3679367Y3225800D01*
X4499432Y3213100D02*
G01*
X4388738Y3323793D01*
X3884498Y3323793D01*
X3688537Y3127832D01*
X3488867Y3127832D01*
X3390900Y3225800D01*
X4597400Y3213100D02*
G01*
X4499432Y3213100D01*
X4229100Y3213100D02*
G01*
X4131132Y3213100D01*
X3022600Y3225800D02*
G01*
X3120567Y3225800D01*
X3120567Y3225800D02*
G01*
X3259404Y3086963D01*
X4004995Y3086963D01*
X4131132Y3213100D01*
D14*
G01*
X3209513Y2159000D03*
G01*
X3579489Y2159000D03*
G01*
X3024499Y2159000D03*
G01*
X3394501Y2159000D03*
G01*
X4416013Y2171700D03*
G01*
X4785989Y2171700D03*
G01*
X4230999Y2171700D03*
G01*
X4601001Y2171700D03*
G01*
X7100676Y2086361D03*
G01*
X7399992Y1868896D03*
G01*
X6950997Y2195111D03*
G01*
X7250336Y1977628D03*
G01*
X6772419Y3612939D03*
G01*
X7063963Y3385159D03*
G01*
X6626626Y3726845D03*
G01*
X6918192Y3499050D03*
G01*
X6213619Y5162339D03*
G01*
X6505166Y4934559D03*
G01*
X6067826Y5276245D03*
G01*
X6359392Y5048450D03*
G01*
X5444159Y6908375D03*
G01*
X5714743Y6656052D03*
G01*
X5308848Y7034555D03*
G01*
X5579450Y6782214D03*
G01*
X4588751Y8694148D03*
G01*
X4826566Y8410729D03*
G01*
X4469825Y8835877D03*
G01*
X4707658Y8552441D03*
G01*
X3035724Y8593759D03*
G01*
X3288047Y8864343D03*
G01*
X2909547Y8458448D03*
G01*
X3161885Y8729050D03*
G01*
X2352324Y6839000D03*
G01*
X2595049Y7118222D03*
G01*
X2230942Y6699369D03*
G01*
X2473685Y6978611D03*
G01*
X1713583Y5028725D03*
G01*
X1920471Y5335450D03*
G01*
X1610123Y4875342D03*
G01*
X1817027Y5182087D03*
G01*
X1329938Y3468479D03*
G01*
X1547403Y3767792D03*
G01*
X1221188Y3318797D03*
G01*
X1438671Y3618136D03*
G01*
X1043015Y1950570D03*
G01*
X1290576Y2225514D03*
G01*
X919215Y1813077D03*
G01*
X1166794Y2088040D03*
D15*
G01*
X4546600Y8229600D03*
G01*
X4546600Y7467600D03*
G01*
X4241800Y8318500D03*
G01*
X4241800Y7556500D03*
G01*
X3924300Y8521700D03*
G01*
X3924300Y7759700D03*
G01*
X5524500Y6286500D03*
G01*
X5524500Y5524500D03*
G01*
X4762500Y6731000D03*
G01*
X4762500Y5969000D03*
G01*
X4483100Y6870700D03*
G01*
X4483100Y6108700D03*
G01*
X5778500Y4559300D03*
G01*
X5778500Y5321300D03*
G01*
X5600700Y4292600D03*
G01*
X5600700Y5054600D03*
G01*
X5346700Y4165600D03*
G01*
X5346700Y4927600D03*
G01*
X3048000Y8166100D03*
G01*
X3048000Y7404100D03*
G01*
X3340100Y8318500D03*
G01*
X3340100Y7556500D03*
G01*
X3606800Y8509000D03*
G01*
X3606800Y7747000D03*
G01*
X6756400Y3200400D03*
G01*
X5994400Y3200400D03*
G01*
X6591300Y3403600D03*
G01*
X5829300Y3403600D03*
G01*
X6413500Y3733800D03*
G01*
X5651500Y3733800D03*
G01*
X3441700Y6870700D03*
G01*
X3441700Y6108700D03*
G01*
X3175000Y6731000D03*
G01*
X3175000Y5969000D03*
G01*
X2463800Y6438900D03*
G01*
X2463800Y5676900D03*
G01*
X1917700Y4686300D03*
G01*
X1917700Y3924300D03*
G01*
X2171700Y4775200D03*
G01*
X2171700Y4013200D03*
G01*
X2438400Y5054600D03*
G01*
X2438400Y4292600D03*
G36*
X6699089Y2167686D02*
G01*
X6586067Y2249799D01*
X6668183Y2362819D01*
X6781200Y2280706D01*
G37*
G36*
X6082616Y2615580D02*
G01*
X5969599Y2697693D01*
X6051710Y2810713D01*
X6164732Y2728600D01*
G37*
G36*
X6779239Y1928207D02*
G01*
X6642105Y1954862D01*
X6668762Y2091997D01*
X6805894Y2065340D01*
G37*
G36*
X6031237Y2073602D02*
G01*
X5894105Y2100259D01*
X5920760Y2237392D01*
X6057894Y2210737D01*
G37*
G36*
X6741139Y1750407D02*
G01*
X6604005Y1777062D01*
X6630662Y1914197D01*
X6767794Y1887540D01*
G37*
G36*
X5993137Y1895802D02*
G01*
X5856005Y1922459D01*
X5882660Y2059592D01*
X6019794Y2032937D01*
G37*
G01*
X1778000Y3390900D03*
G01*
X1778000Y2628900D03*
G01*
X2006600Y3556000D03*
G01*
X2006600Y2794000D03*
G01*
X2374900Y3644900D03*
G01*
X2374900Y2882900D03*
G36*
X1068105Y1633542D02*
G01*
X1205240Y1660194D01*
X1231894Y1523062D01*
X1094760Y1496405D01*
G37*
G36*
X1816105Y1778937D02*
G01*
X1953239Y1805594D01*
X1979894Y1668457D01*
X1842759Y1641805D01*
G37*
G36*
X1311734Y1855782D02*
G01*
X1446674Y1891939D01*
X1482831Y1756999D01*
X1347891Y1720842D01*
G37*
G36*
X2047768Y2053000D02*
G01*
X2182708Y2089157D01*
X2218865Y1954217D01*
X2083925Y1918060D01*
G37*
G36*
X1551592Y2163739D02*
G01*
X1687713Y2195167D01*
X1719138Y2059045D01*
X1583016Y2027621D01*
G37*
G36*
X2294061Y2335154D02*
G01*
X2430183Y2366578D01*
X2461607Y2230460D01*
X2325486Y2199032D01*
G37*
G01*
X3581400Y3225800D03*
G01*
X3581400Y2463800D03*
G01*
X3390900Y3225800D03*
G01*
X3390900Y2463800D03*
G01*
X3022600Y3225800D03*
G01*
X3022600Y2463800D03*
G01*
X4787900Y3213100D03*
G01*
X4787900Y2451100D03*
G01*
X4597400Y3213100D03*
G01*
X4597400Y2451100D03*
G01*
X4229100Y3213100D03*
G01*
X4229100Y2451100D03*
D16*
G01*
X2781300Y6667500D03*
G01*
X2781300Y6413500D03*
G01*
X2781300Y6159500D03*
G01*
X2781300Y5905500D03*
G01*
X2781300Y5651500D03*
G01*
X2781300Y5397500D03*
G01*
X2781300Y5143500D03*
G01*
X2781300Y4889500D03*
G01*
X2781300Y4635500D03*
G01*
X2781300Y4381500D03*
G01*
X2781300Y4127500D03*
G01*
X2781300Y3873500D03*
G01*
X2781300Y3619500D03*
G01*
X2781300Y3365500D03*
G01*
X2781300Y3111500D03*
G01*
X2781300Y2857500D03*
G01*
X2781300Y2603500D03*
G01*
X2781300Y2349500D03*
G01*
X2781300Y2095500D03*
G01*
X5067300Y2095500D03*
G01*
X5067300Y2349500D03*
G01*
X5067300Y2603500D03*
G01*
X5067300Y2857500D03*
G01*
X5067300Y3111500D03*
G01*
X5067300Y3365500D03*
G01*
X5067300Y3619500D03*
G01*
X5067300Y3873500D03*
G01*
X5067300Y4127500D03*
G01*
X5067300Y4381500D03*
G01*
X5067300Y4635500D03*
G01*
X5067300Y4889500D03*
G01*
X5067300Y5143500D03*
G01*
X5067300Y5397500D03*
G01*
X5067300Y5651500D03*
G01*
X5067300Y5905500D03*
G01*
X5067300Y6159500D03*
G01*
X5067300Y6413500D03*
G01*
X5067300Y6667500D03*
M02*
