M48
METRIC,LZ,000.000
;FILE_FORMAT=3:3
;TYPE=PLATED
;Layer: Drill PTH
;EasyEDA v6.4.25, 2021-12-23T10:59:56+01:00
;4c1ba96cef074ee2a20bac9ac7328723,10
;Gerber Generator version 0.2
;Holesize 1 = 0.813 mm
T01C0.813
;Holesize 2 = 0.847 mm
T02C0.847
;Holesize 3 = 0.915 mm
T03C0.915
%
G05
G90
T01
X039243Y073787
X039243Y066167
X041656Y072263
X041656Y064643
X036195Y073787
X036195Y066167
X045466Y082296
X045466Y074676
X042418Y083185
X042418Y075565
X038354Y085217
X038354Y077597
X055245Y062865
X055245Y055245
X047625Y067310
X047625Y059690
X044831Y068707
X044831Y061087
X057785Y045593
X057785Y053213
X056007Y042926
X056007Y050546
X053721Y042037
X053721Y049657
X030480Y081661
X030480Y074041
X033401Y083185
X033401Y075565
X036068Y086106
X036068Y078486
X067564Y032004
X059944Y032004
X065913Y034036
X058293Y034036
X064135Y037338
X056515Y037338
X034417Y068707
X034417Y061087
X031623Y068199
X031623Y060579
X024638Y064389
X024638Y056769
X019177Y046863
X019177Y039243
X021717Y047752
X021717Y040132
X024384Y050546
X024384Y042926
X066836Y022653
X060672Y027131
X067240Y020101
X059760Y021555
X066859Y018323
X059379Y019777
X017780Y033909
X017780Y026289
X020066Y035560
X020066Y027940
X023749Y036449
X023749Y028829
X011500Y015783
X018980Y017237
X013973Y018064
X021333Y020036
X016354Y021114
X023778Y022828
X035814Y032258
X035814Y024638
X033909Y032258
X033909Y024638
X030226Y032258
X030226Y024638
X047879Y032131
X047879Y024511
X045974Y032131
X045974Y024511
X042291Y032131
X042291Y024511
X039116Y009398
X043307Y009398
T02
X040041Y092025
X036341Y092025
X041891Y092025
X038191Y092025
X032095Y021590
X035795Y021590
X030245Y021590
X033945Y021590
X044160Y021717
X047860Y021717
X042310Y021717
X046010Y021717
X071007Y020864
X074000Y018689
X069510Y021951
X072503Y019776
X067724Y036129
X070640Y033852
X066266Y037268
X069182Y034991
X062136Y051623
X065052Y049346
X060678Y052762
X063594Y050485
X054441Y069084
X057148Y066560
X053088Y070346
X055795Y067822
X045887Y086942
X048266Y084107
X044698Y088359
X047077Y085524
X030357Y085937
X032881Y088644
X029095Y084584
X031619Y087291
X023523Y068390
X025951Y071182
X022309Y066994
X024737Y069786
X017136Y050287
X019205Y053355
X016101Y048753
X018170Y051821
X013299Y034685
X015474Y037678
X012212Y033188
X014387Y036181
X010430Y019506
X012906Y022255
X009192Y018131
X011668Y020880
T03
X027813Y066675
X027813Y064135
X027813Y061595
X027813Y059055
X027813Y056515
X027813Y053975
X027813Y051435
X027813Y048895
X027813Y046355
X027813Y043815
X027813Y041275
X027813Y038735
X027813Y036195
X027813Y033655
X027813Y031115
X027813Y028575
X027813Y026035
X027813Y023495
X027813Y020955
X050673Y020955
X050673Y023495
X050673Y026035
X050673Y028575
X050673Y031115
X050673Y033655
X050673Y036195
X050673Y038735
X050673Y041275
X050673Y043815
X050673Y046355
X050673Y048895
X050673Y051435
X050673Y053975
X050673Y056515
X050673Y059055
X050673Y061595
X050673Y064135
X050673Y066675
M30
