G04 Layer: BottomSilkLayer*
G04 EasyEDA v6.4.25, 2021-11-28T16:05:41+01:00*
G04 4c1ba96cef074ee2a20bac9ac7328723,10*
G04 Gerber Generator version 0.2*
G04 Scale: 100 percent, Rotated: No, Reflected: No *
G04 Dimensions in millimeters *
G04 leading zeros omitted , absolute positions ,4 integer and 5 decimal *
%FSLAX45Y45*%
%MOMM*%

%ADD10C,0.0001*%

%LPD*%
G36*
X7581900Y1993900D02*
G01*
X7569200Y1943100D01*
X7543800Y1917700D01*
X7531100Y1841500D01*
X7505700Y1752600D01*
X7454900Y1689100D01*
X7404100Y1663700D01*
X7378700Y1625600D01*
X7340600Y1549400D01*
X7327900Y1485900D01*
X7493000Y1460500D01*
X7810500Y1473200D01*
X8013700Y1498600D01*
X8051800Y1511300D01*
X8064500Y1549400D01*
X8077200Y1574800D01*
X8077200Y1587500D01*
X7924800Y1739900D01*
X7696200Y1905000D01*
G37*
G36*
X7378700Y3403600D02*
G01*
X7366000Y3365500D01*
X7315200Y3340100D01*
X7264400Y3276600D01*
X7150100Y3213100D01*
X7073900Y3111500D01*
X7010400Y3073400D01*
X7010400Y3035300D01*
X7353300Y2984500D01*
X7531100Y3009900D01*
X7607300Y3048000D01*
X7632700Y3111500D01*
X7632700Y3162300D01*
X7505700Y3289300D01*
G37*
G36*
X6781800Y5041900D02*
G01*
X6718300Y5003800D01*
X6667500Y4940300D01*
X6654800Y4876800D01*
X6578600Y4775200D01*
X6464300Y4699000D01*
X6375400Y4584700D01*
X6362700Y4572000D01*
X6985000Y4635500D01*
X7035800Y4749800D01*
X7035800Y4813300D01*
G37*
G36*
X5829300Y6883400D02*
G01*
X5816600Y6794500D01*
X5829300Y6705600D01*
X5803900Y6565900D01*
X5740400Y6451600D01*
X5676900Y6311900D01*
X5664200Y6197600D01*
X6108700Y6273800D01*
X6210300Y6350000D01*
X6248400Y6413500D01*
X6248400Y6451600D01*
X6172200Y6540500D01*
X6007100Y6718300D01*
G37*
G36*
X5181600Y8356600D02*
G01*
X5168900Y8229600D01*
X5118100Y8166100D01*
X5143500Y8013700D01*
X5105400Y7912100D01*
X5168900Y7823200D01*
X5181600Y7696200D01*
X5334000Y7747000D01*
X5473700Y7937500D01*
X5473700Y8001000D01*
X5321300Y8191500D01*
G37*
G36*
X3924300Y9988550D02*
G01*
X3530600Y9417050D01*
X3581400Y9385300D01*
X3606800Y9398000D01*
X3644900Y9385300D01*
X3759200Y9398000D01*
X3810000Y9366250D01*
X3911600Y9385300D01*
X4013200Y9378950D01*
X4114800Y9404350D01*
X4191000Y9391650D01*
X4305300Y9410700D01*
X4241800Y9512300D01*
X4102100Y9734550D01*
X3937000Y9988550D01*
G37*
G36*
X2692400Y8509000D02*
G01*
X2603500Y8420100D01*
X2476500Y8242300D01*
X2413000Y7988300D01*
X2755900Y7747000D01*
X2705100Y7848600D01*
X2730500Y7962900D01*
X2717800Y8077200D01*
X2755900Y8191500D01*
X2730500Y8305800D01*
X2755900Y8432800D01*
G37*
G36*
X2057400Y6870700D02*
G01*
X1854200Y6629400D01*
X1778000Y6515100D01*
X1778000Y6426200D01*
X1790700Y6388100D01*
X1828800Y6337300D01*
X1917700Y6286500D01*
X2324100Y6235700D01*
X2324100Y6299200D01*
X2286000Y6375400D01*
X2197100Y6477000D01*
X2159000Y6616700D01*
X2070100Y6731000D01*
G37*
G36*
X1333500Y4902200D02*
G01*
X1193800Y4686300D01*
X1155700Y4572000D01*
X1168400Y4533900D01*
X1193800Y4508500D01*
X1295400Y4445000D01*
X1676400Y4495800D01*
X1625600Y4546600D01*
X1612900Y4584700D01*
X1587500Y4622800D01*
X1511300Y4673600D01*
X1485900Y4775200D01*
X1409700Y4864100D01*
G37*
G36*
X1003300Y3492500D02*
G01*
X723900Y3098800D01*
X673100Y2997200D01*
X660400Y2946400D01*
X698500Y2908300D01*
X876300Y2870200D01*
X1282700Y2971800D01*
X1244600Y3009900D01*
X1181100Y3048000D01*
X1168400Y3124200D01*
X1092200Y3187700D01*
X1028700Y3276600D01*
X1028700Y3390900D01*
G37*
G36*
X609600Y1765300D02*
G01*
X317500Y1422400D01*
X647700Y1308100D01*
X1092200Y1384300D01*
X1028700Y1447800D01*
X901700Y1485900D01*
X850900Y1549400D01*
X736600Y1587500D01*
X711200Y1689100D01*
X647700Y1701800D01*
G37*
M02*
